<?xml version="1.0" encoding="UTF-8" standalone="no"?>
<svg
   xmlns:dc="http://purl.org/dc/elements/1.1/"
   xmlns:cc="http://creativecommons.org/ns#"
   xmlns:rdf="http://www.w3.org/1999/02/22-rdf-syntax-ns#"
   xmlns:svg="http://www.w3.org/2000/svg"
   xmlns="http://www.w3.org/2000/svg"
   viewBox="0 0 489.23999 365.38666"
   height="365.38666"
   width="489.23999"
   xml:space="preserve"
   id="svg2"
   version="1.1"><metadata
     id="metadata8"><rdf:RDF><cc:Work
         rdf:about=""><dc:format>image/svg+xml</dc:format><dc:type
           rdf:resource="http://purl.org/dc/dcmitype/StillImage" /></cc:Work></rdf:RDF></metadata><defs
     id="defs6"><clipPath
       id="clipPath34"
       clipPathUnits="userSpaceOnUse"><path
         id="path32"
         d="m 695.137,1021.37 c 0.082,0.49 0.144,0.89 0.144,0.89 -24.597,4.75 -49.281,9.01 -74.054,12.71 -74.215,11.69 -148.903,20.61 -223.848,26.03 l -0.367,-3.78 c 23.59,-15.73 47.605,-25.25 71.769,-33.04 73.524,-21.29 149.672,-29.078 224.571,-6.05 -48.286,-86.45 -157.68,-139.251 -247.606,-84.169 -67.176,42.211 -111.668,186.589 -125.453,263.109 -32.637,180.93 7.789,376.71 118.508,524.58 29.465,42.27 83.785,41.69 129.855,53.07 67.235,12.77 135.465,20.16 203.934,22.85 28.289,-0.72 54.785,12.9 74.738,32.46 -0.359,-0.52 -0.742,-1.03 -1.101,-1.55 178.893,188.03 435.713,287.36 693.453,267.3 75.08,-2.71 157.69,-6.14 231.78,-16.73 70.17,-8.89 140.3,-18.73 208.57,-38.1 -32.73,-23.31 -57.87,-57.11 -69.32,-95.24 10.47,20.63 24.51,38.91 40.91,54.2 21.95,20.97 49.45,34.07 77.26,44.47 l -22.67,8.96 c -73.34,29.64 -151.38,45.41 -228.67,61.79 -74.57,16.99 -159.01,23.14 -235.64,27.38 -261.47,24.32 -536.96,-89.07 -689.13,-304.8 -21.903,-19.84 -50.301,-33.21 -80.125,-29.82 -34.59,1.81 -69.305,1.67 -104.012,0.38 -52.047,-2.39 -104.16,-7.81 -155.492,-17.11 -25.536,-4.3 -57.246,-10.53 -78.723,-29.14 -140.031,-145.6 -188.117,-376.71 -149.383,-571.64 18.195,-86.26 68.094,-233.271 148.203,-277.829 101.848,-55.039 219.196,5.597 260.914,105.809 0.172,0.06 0.348,0.1 0.52,0.15 0,0 0.144,0.9 0.293,1.81 0.406,1.01 0.851,1.99 1.242,2.99 -0.344,-0.65 -0.723,-1.29 -1.07,-1.94 z" /></clipPath><linearGradient
       id="linearGradient46"
       spreadMethod="pad"
       gradientTransform="matrix(2004.58,-928.045,-928.045,-2004.58,547.739,1794.63)"
       gradientUnits="userSpaceOnUse"
       y2="0"
       x2="1"
       y1="0"
       x1="0"><stop
         id="stop36"
         offset="0"
         style="stop-opacity:1;stop-color:#918f8f" /><stop
         id="stop38"
         offset="0.33782142"
         style="stop-opacity:1;stop-color:#ffffff" /><stop
         id="stop40"
         offset="0.521174"
         style="stop-opacity:1;stop-color:#ffffff" /><stop
         id="stop42"
         offset="0.70333329"
         style="stop-opacity:1;stop-color:#ffffff" /><stop
         id="stop44"
         offset="1"
         style="stop-opacity:1;stop-color:#918f8f" /></linearGradient><clipPath
       id="clipPath56"
       clipPathUnits="userSpaceOnUse"><path
         id="path54"
         d="m 1187.61,1600.97 c 211.07,99.51 438.94,129.42 670.41,125.15 -224.26,58.76 -486.85,21.65 -670.41,-125.15 z" /></clipPath><linearGradient
       id="linearGradient68"
       spreadMethod="pad"
       gradientTransform="matrix(2004.58,-928.045,-928.045,-2004.58,669.869,2058.43)"
       gradientUnits="userSpaceOnUse"
       y2="0"
       x2="1"
       y1="0"
       x1="0"><stop
         id="stop58"
         offset="0"
         style="stop-opacity:1;stop-color:#918f8f" /><stop
         id="stop60"
         offset="0.33782142"
         style="stop-opacity:1;stop-color:#ffffff" /><stop
         id="stop62"
         offset="0.521174"
         style="stop-opacity:1;stop-color:#ffffff" /><stop
         id="stop64"
         offset="0.70333329"
         style="stop-opacity:1;stop-color:#ffffff" /><stop
         id="stop66"
         offset="1"
         style="stop-opacity:1;stop-color:#918f8f" /></linearGradient><clipPath
       id="clipPath78"
       clipPathUnits="userSpaceOnUse"><path
         id="path76"
         d="m 2384.46,2003.92 c -94.4,72.11 -239.05,74.21 -330.78,-3.88 -30.2,-25.06 -55.27,-54.01 -78.13,-83.51 -46.21,-58.85 -87.43,-122.13 -117.53,-190.41 65.52,87.66 133.95,176.68 217.7,245.85 83.22,65.4 204.14,63.42 292.01,7.34 59.64,-37.46 107.58,-96.09 130.31,-167.12 -6.91,74.73 -50.86,145.95 -113.58,191.73 z" /></clipPath><linearGradient
       id="linearGradient90"
       spreadMethod="pad"
       gradientTransform="matrix(2004.58,-928.045,-928.045,-2004.58,853.568,2455.22)"
       gradientUnits="userSpaceOnUse"
       y2="0"
       x2="1"
       y1="0"
       x1="0"><stop
         id="stop80"
         offset="0"
         style="stop-opacity:1;stop-color:#918f8f" /><stop
         id="stop82"
         offset="0.33782142"
         style="stop-opacity:1;stop-color:#ffffff" /><stop
         id="stop84"
         offset="0.521174"
         style="stop-opacity:1;stop-color:#ffffff" /><stop
         id="stop86"
         offset="0.70333329"
         style="stop-opacity:1;stop-color:#ffffff" /><stop
         id="stop88"
         offset="1"
         style="stop-opacity:1;stop-color:#918f8f" /></linearGradient><clipPath
       id="clipPath100"
       clipPathUnits="userSpaceOnUse"><path
         id="path98"
         d="m 2155.09,1785.69 c -20.63,-4.26 -43.97,-8.06 -64.52,-14.94 -21.28,-6.96 -41.96,-15.58 -61.05,-26.89 21.49,5.45 42.75,10.28 64.24,13.27 40.98,8.46 125.39,-4.67 117.04,61.21 -20.12,79.14 -130.94,80.77 -188.76,44.69 -39.75,-23.51 -67.41,-63.49 -80.5,-106.66 34.29,55.19 84.66,98.88 149.65,101.81 35.53,2.75 95.07,-11.34 93.43,-54.79 -3.96,-11.28 -16.65,-14.01 -29.53,-17.7 z" /></clipPath><linearGradient
       id="linearGradient112"
       spreadMethod="pad"
       gradientTransform="matrix(2004.58,-928.045,-928.045,-2004.58,821.215,2385.34)"
       gradientUnits="userSpaceOnUse"
       y2="0"
       x2="1"
       y1="0"
       x1="0"><stop
         id="stop102"
         offset="0"
         style="stop-opacity:1;stop-color:#918f8f" /><stop
         id="stop104"
         offset="0.33782142"
         style="stop-opacity:1;stop-color:#ffffff" /><stop
         id="stop106"
         offset="0.521174"
         style="stop-opacity:1;stop-color:#ffffff" /><stop
         id="stop108"
         offset="0.70333329"
         style="stop-opacity:1;stop-color:#ffffff" /><stop
         id="stop110"
         offset="1"
         style="stop-opacity:1;stop-color:#918f8f" /></linearGradient><clipPath
       id="clipPath122"
       clipPathUnits="userSpaceOnUse"><path
         id="path120"
         d="m 2498.04,1812.19 c -34.41,-24.12 -70.73,-43.11 -108.68,-57.46 -114.98,-42.65 -242.02,-45.55 -359.84,-10.87 140.36,-86.68 361.69,-60.67 468.52,68.33 z" /></clipPath><linearGradient
       id="linearGradient134"
       spreadMethod="pad"
       gradientTransform="matrix(2004.58,-928.045,-928.045,-2004.58,843.842,2434.21)"
       gradientUnits="userSpaceOnUse"
       y2="0"
       x2="1"
       y1="0"
       x1="0"><stop
         id="stop124"
         offset="0"
         style="stop-opacity:1;stop-color:#918f8f" /><stop
         id="stop126"
         offset="0.33782142"
         style="stop-opacity:1;stop-color:#ffffff" /><stop
         id="stop128"
         offset="0.521174"
         style="stop-opacity:1;stop-color:#ffffff" /><stop
         id="stop130"
         offset="0.70333329"
         style="stop-opacity:1;stop-color:#ffffff" /><stop
         id="stop132"
         offset="1"
         style="stop-opacity:1;stop-color:#918f8f" /></linearGradient><clipPath
       id="clipPath144"
       clipPathUnits="userSpaceOnUse"><path
         id="path142"
         d="m 1787.5,1494.81 c 100.59,105.57 191.5,-0.63 245.04,-93.33 -28.01,67.91 -73.14,150.78 -154.92,159.54 -84.37,4.48 -141.51,-75.96 -176.21,-142.11 -66.05,-136.64 -86.82,-297.64 -48.7,-444.379 -17.92,165.709 20.75,394.419 134.79,520.279 z" /></clipPath><linearGradient
       id="linearGradient156"
       spreadMethod="pad"
       gradientTransform="matrix(2004.58,-928.045,-928.045,-2004.58,563.175,1827.97)"
       gradientUnits="userSpaceOnUse"
       y2="0"
       x2="1"
       y1="0"
       x1="0"><stop
         id="stop146"
         offset="0"
         style="stop-opacity:1;stop-color:#918f8f" /><stop
         id="stop148"
         offset="0.33782142"
         style="stop-opacity:1;stop-color:#ffffff" /><stop
         id="stop150"
         offset="0.521174"
         style="stop-opacity:1;stop-color:#ffffff" /><stop
         id="stop152"
         offset="0.70333329"
         style="stop-opacity:1;stop-color:#ffffff" /><stop
         id="stop154"
         offset="1"
         style="stop-opacity:1;stop-color:#918f8f" /></linearGradient><clipPath
       id="clipPath166"
       clipPathUnits="userSpaceOnUse"><path
         id="path164"
         d="m 1889.38,1360.66 c 25.99,2.42 57.15,-7.11 72.53,-28.61 12.89,-17.36 32.21,-36.4 46.66,-68.91 -4.62,10.4 -10.75,38.09 -13.52,48.94 -6.13,23.12 -10.8,43.11 -20.79,66.64 -18.83,44.3 -60.65,89.1 -117.39,54.18 -82.17,-50.57 -102.94,-169.76 -117.39,-349.45 l 5.7,4.48 c 20.91,83.53 22.22,163.37 72.86,231.2 15,19.02 46.29,38.06 71.34,41.53 z" /></clipPath><linearGradient
       id="linearGradient178"
       spreadMethod="pad"
       gradientTransform="matrix(2004.58,-928.045,-928.045,-2004.58,570.971,1844.81)"
       gradientUnits="userSpaceOnUse"
       y2="0"
       x2="1"
       y1="0"
       x1="0"><stop
         id="stop168"
         offset="0"
         style="stop-opacity:1;stop-color:#918f8f" /><stop
         id="stop170"
         offset="0.33782142"
         style="stop-opacity:1;stop-color:#ffffff" /><stop
         id="stop172"
         offset="0.521174"
         style="stop-opacity:1;stop-color:#ffffff" /><stop
         id="stop174"
         offset="0.70333329"
         style="stop-opacity:1;stop-color:#ffffff" /><stop
         id="stop176"
         offset="1"
         style="stop-opacity:1;stop-color:#918f8f" /></linearGradient><clipPath
       id="clipPath188"
       clipPathUnits="userSpaceOnUse"><path
         id="path186"
         d="m 546.465,1309.77 c -25.145,0.28 -50.715,0.18 -75.906,0.14 l -8.11,-0.05 c -3.449,-0.18 -8.875,-0.4 -15.285,-3.66 -6.5,-3.38 -10.512,-8.69 -12.723,-12.56 -23.765,-52.62 -33.73,-109.88 -35.121,-167.45 l 19.395,-0.11 c 281.566,-2.12 562.875,-24.14 842.325,-58.51 -269.454,60.88 -545.688,90.43 -821.786,95.58 3.949,37.33 12.949,74.7 26.684,109.52 2.062,0.02 4.941,0.06 4.941,0.06 105.648,1.12 211.32,0.48 316.945,-2.32 161.34,-3.8 322.156,-13.4 483.256,-24.36 -239.13,41.66 -481.975,60.89 -724.615,63.72 z" /></clipPath><linearGradient
       id="linearGradient200"
       spreadMethod="pad"
       gradientTransform="matrix(2004.58,-928.045,-928.045,-2004.58,366.485,1403.12)"
       gradientUnits="userSpaceOnUse"
       y2="0"
       x2="1"
       y1="0"
       x1="0"><stop
         id="stop190"
         offset="0"
         style="stop-opacity:1;stop-color:#918f8f" /><stop
         id="stop192"
         offset="0.33782142"
         style="stop-opacity:1;stop-color:#ffffff" /><stop
         id="stop194"
         offset="0.521174"
         style="stop-opacity:1;stop-color:#ffffff" /><stop
         id="stop196"
         offset="0.70333329"
         style="stop-opacity:1;stop-color:#ffffff" /><stop
         id="stop198"
         offset="1"
         style="stop-opacity:1;stop-color:#918f8f" /></linearGradient><clipPath
       id="clipPath210"
       clipPathUnits="userSpaceOnUse"><path
         id="path208"
         d="m 590.629,1216.06 0.019,-1.9 c 95.282,-9.29 190.137,-11.15 285.594,-14.02 95.215,-4.29 190.308,-11.68 285.078,-22.17 l 0.26,1.89 c -94.21,15.84 -189.115,27.67 -284.377,35.44 -95.273,9.2 -191.258,12.24 -286.574,0.76 z" /></clipPath><linearGradient
       id="linearGradient222"
       spreadMethod="pad"
       gradientTransform="matrix(2004.58,-928.045,-928.045,-2004.58,377.857,1427.68)"
       gradientUnits="userSpaceOnUse"
       y2="0"
       x2="1"
       y1="0"
       x1="0"><stop
         id="stop212"
         offset="0"
         style="stop-opacity:1;stop-color:#918f8f" /><stop
         id="stop214"
         offset="0.33782142"
         style="stop-opacity:1;stop-color:#ffffff" /><stop
         id="stop216"
         offset="0.521174"
         style="stop-opacity:1;stop-color:#ffffff" /><stop
         id="stop218"
         offset="0.70333329"
         style="stop-opacity:1;stop-color:#ffffff" /><stop
         id="stop220"
         offset="1"
         style="stop-opacity:1;stop-color:#918f8f" /></linearGradient><clipPath
       id="clipPath232"
       clipPathUnits="userSpaceOnUse"><path
         id="path230"
         d="m 667.098,1591.26 c 123.523,-51.19 264.347,-63.87 394.982,-35.26 -133.014,-2.13 -264.463,9.5 -394.982,35.26 z" /></clipPath><linearGradient
       id="linearGradient244"
       spreadMethod="pad"
       gradientTransform="matrix(2004.58,-928.045,-928.045,-2004.58,519.41,1733.44)"
       gradientUnits="userSpaceOnUse"
       y2="0"
       x2="1"
       y1="0"
       x1="0"><stop
         id="stop234"
         offset="0"
         style="stop-opacity:1;stop-color:#918f8f" /><stop
         id="stop236"
         offset="0.33782142"
         style="stop-opacity:1;stop-color:#ffffff" /><stop
         id="stop238"
         offset="0.521174"
         style="stop-opacity:1;stop-color:#ffffff" /><stop
         id="stop240"
         offset="0.70333329"
         style="stop-opacity:1;stop-color:#ffffff" /><stop
         id="stop242"
         offset="1"
         style="stop-opacity:1;stop-color:#918f8f" /></linearGradient><clipPath
       id="clipPath254"
       clipPathUnits="userSpaceOnUse"><path
         id="path252"
         d="m 1063.37,1493.18 c -141.479,-13.25 -283.143,1.87 -418.557,44.98 125.957,-68.12 281.007,-84.88 418.557,-44.98 z" /></clipPath><linearGradient
       id="linearGradient266"
       spreadMethod="pad"
       gradientTransform="matrix(2004.58,-928.045,-928.045,-2004.58,495.245,1681.24)"
       gradientUnits="userSpaceOnUse"
       y2="0"
       x2="1"
       y1="0"
       x1="0"><stop
         id="stop256"
         offset="0"
         style="stop-opacity:1;stop-color:#918f8f" /><stop
         id="stop258"
         offset="0.33782142"
         style="stop-opacity:1;stop-color:#ffffff" /><stop
         id="stop260"
         offset="0.521174"
         style="stop-opacity:1;stop-color:#ffffff" /><stop
         id="stop262"
         offset="0.70333329"
         style="stop-opacity:1;stop-color:#ffffff" /><stop
         id="stop264"
         offset="1"
         style="stop-opacity:1;stop-color:#918f8f" /></linearGradient><clipPath
       id="clipPath276"
       clipPathUnits="userSpaceOnUse"><path
         id="path274"
         d="m 374.375,1558.34 c 47.707,-52.72 126.93,-56.73 192.891,-53.53 0.922,13.41 0.277,30.02 -6.395,41.11 -27.476,46.83 -80.012,79 -132.945,85.26 38.125,-20.19 72.25,-46.87 97.91,-81.29 4.434,-5.88 8.105,-11.85 10.484,-17.53 -55.765,-1.22 -111.062,0.46 -161.945,25.98 z" /></clipPath><linearGradient
       id="linearGradient288"
       spreadMethod="pad"
       gradientTransform="matrix(2004.58,-928.045,-928.045,-2004.58,445.163,1573.06)"
       gradientUnits="userSpaceOnUse"
       y2="0"
       x2="1"
       y1="0"
       x1="0"><stop
         id="stop278"
         offset="0"
         style="stop-opacity:1;stop-color:#918f8f" /><stop
         id="stop280"
         offset="0.33782142"
         style="stop-opacity:1;stop-color:#ffffff" /><stop
         id="stop282"
         offset="0.521174"
         style="stop-opacity:1;stop-color:#ffffff" /><stop
         id="stop284"
         offset="0.70333329"
         style="stop-opacity:1;stop-color:#ffffff" /><stop
         id="stop286"
         offset="1"
         style="stop-opacity:1;stop-color:#918f8f" /></linearGradient><clipPath
       id="clipPath298"
       clipPathUnits="userSpaceOnUse"><path
         id="path296"
         d="M 0,0 H 3669 V 2740 H 0 Z" /></clipPath><clipPath
       id="clipPath304"
       clipPathUnits="userSpaceOnUse"><path
         id="path302"
         d="m 2351.82,2642.95 c -522.51,96.71 -993.74,81.23 -1384.207,95.25 -43.918,1.58 -93.836,2.58 -133.019,2.07 105.176,-14.44 145.246,-24.58 186.126,-33 219.44,-45.21 329.47,-59.13 550.64,-108.79 803.18,-180.37 1313.1,-366.57 1313.1,-594.23 0,-95.54 -92.59,-181.62 -253.6,-259.71 12.9,-3.47 25.38,-9.27 32.5,-10.69 165.62,82.48 238.19,164.24 238.19,270.17 0,129.58 -105.43,220.62 -381.52,334.61 -271.52,112.09 -566.32,188.9 -937.38,272.23 -170.52,38.28 -444.96,81.34 -617.099,118.06 370.329,-18.6 943.329,-7.83 1382.509,-105.58 439.44,-97.82 767.14,-195.32 1011.85,-353.29 138.17,-89.19 274.28,-210.87 282.45,-381.58 v -0.01 c 1.21,-118.52 -56.98,-238.04 -172.98,-355.23 -185.93,-187.87 -525.31,-363.44 -944.71,-500.05 -253.29,-82.508 -526.96,-139.532 -753.27,-190.77 33.12,-1.289 22.15,-1.41 55.3,-1.66 24.43,-0.18 21.59,-0.5 46.01,-0.141 189.22,33.68 467.08,111.942 662.4,175.551 423.63,138 759.08,311.86 948.15,502.89 121.55,122.79 179.56,246.93 178.26,373.34 -3.16,303.31 -457.62,592.84 -1309.7,750.56 z" /></clipPath><linearGradient
       id="linearGradient316"
       spreadMethod="pad"
       gradientTransform="matrix(2004.58,-928.045,-928.045,-2004.58,821.531,2386.02)"
       gradientUnits="userSpaceOnUse"
       y2="0"
       x2="1"
       y1="0"
       x1="0"><stop
         id="stop306"
         offset="0"
         style="stop-opacity:1;stop-color:#918f8f" /><stop
         id="stop308"
         offset="0.33782142"
         style="stop-opacity:1;stop-color:#ffffff" /><stop
         id="stop310"
         offset="0.521174"
         style="stop-opacity:1;stop-color:#ffffff" /><stop
         id="stop312"
         offset="0.70333329"
         style="stop-opacity:1;stop-color:#ffffff" /><stop
         id="stop314"
         offset="1"
         style="stop-opacity:1;stop-color:#918f8f" /></linearGradient><clipPath
       id="clipPath326"
       clipPathUnits="userSpaceOnUse"><path
         id="path324"
         d="m 0,1063.88 4.91406,-28.06 225.64494,39.52 -4.914,28.06 z" /></clipPath><linearGradient
       id="linearGradient338"
       spreadMethod="pad"
       gradientTransform="matrix(2004.58,-928.045,-928.045,-2004.58,194.997,1032.7)"
       gradientUnits="userSpaceOnUse"
       y2="0"
       x2="1"
       y1="0"
       x1="0"><stop
         id="stop328"
         offset="0"
         style="stop-opacity:1;stop-color:#918f8f" /><stop
         id="stop330"
         offset="0.33782142"
         style="stop-opacity:1;stop-color:#ffffff" /><stop
         id="stop332"
         offset="0.521174"
         style="stop-opacity:1;stop-color:#ffffff" /><stop
         id="stop334"
         offset="0.70333329"
         style="stop-opacity:1;stop-color:#ffffff" /><stop
         id="stop336"
         offset="1"
         style="stop-opacity:1;stop-color:#918f8f" /></linearGradient><clipPath
       id="clipPath348"
       clipPathUnits="userSpaceOnUse"><path
         id="path346"
         d="M 172.238,354.031 29.2891,639.949 H 4.33984 V 0 H 35.043 V 560.309 L 172.238,285.91 309.441,560.309 V 0 h 29.743 v 639.949 h -23.989 z" /></clipPath><linearGradient
       id="linearGradient360"
       spreadMethod="pad"
       gradientTransform="matrix(3907.07,9.28045,9.28045,-3907.07,-137.69,319.24)"
       gradientUnits="userSpaceOnUse"
       y2="0"
       x2="1"
       y1="0"
       x1="0"><stop
         id="stop350"
         offset="0"
         style="stop-opacity:1;stop-color:#918f8f" /><stop
         id="stop352"
         offset="0.33782142"
         style="stop-opacity:1;stop-color:#ffffff" /><stop
         id="stop354"
         offset="0.521174"
         style="stop-opacity:1;stop-color:#ffffff" /><stop
         id="stop356"
         offset="0.70333329"
         style="stop-opacity:1;stop-color:#ffffff" /><stop
         id="stop358"
         offset="1"
         style="stop-opacity:1;stop-color:#918f8f" /></linearGradient><clipPath
       id="clipPath370"
       clipPathUnits="userSpaceOnUse"><path
         id="path368"
         d="M 480.113,0 H 714.504 V 21.4922 H 501.605 V 212.898 h 212.899 v 21.493 H 501.605 v 192.078 h 212.899 v 21.492 H 480.113 Z" /></clipPath><linearGradient
       id="linearGradient382"
       spreadMethod="pad"
       gradientTransform="matrix(3907.07,9.28045,9.28045,-3907.07,-137.459,222.24)"
       gradientUnits="userSpaceOnUse"
       y2="0"
       x2="1"
       y1="0"
       x1="0"><stop
         id="stop372"
         offset="0"
         style="stop-opacity:1;stop-color:#918f8f" /><stop
         id="stop374"
         offset="0.33782142"
         style="stop-opacity:1;stop-color:#ffffff" /><stop
         id="stop376"
         offset="0.521174"
         style="stop-opacity:1;stop-color:#ffffff" /><stop
         id="stop378"
         offset="0.70333329"
         style="stop-opacity:1;stop-color:#ffffff" /><stop
         id="stop380"
         offset="1"
         style="stop-opacity:1;stop-color:#918f8f" /></linearGradient><clipPath
       id="clipPath392"
       clipPathUnits="userSpaceOnUse"><path
         id="path390"
         d="m 880.383,398.262 c 18.805,18.808 41.41,28.207 67.832,28.207 26.41,0 49.027,-9.399 67.835,-28.207 18.8,-18.801 28.21,-41.422 28.21,-67.832 h 20.81 c 0,32.242 -11.42,59.992 -34.25,83.281 -22.83,22.828 -50.367,34.25 -82.605,34.25 -32.238,0 -59.774,-11.422 -82.61,-34.25 C 842.32,390.422 830.684,362.672 830.684,330.43 V 117.531 c 0,-32.2302 11.636,-59.7693 34.921,-82.6013 C 888.441,11.6406 915.977,0 948.215,0 c 32.238,0 59.775,11.6406 82.605,34.9297 22.83,22.832 34.25,50.3711 34.25,82.6013 h -20.81 c 0,-26.4216 -9.41,-49.031 -28.21,-67.8318 -18.808,-18.8008 -41.425,-28.207 -67.835,-28.207 -26.422,0 -49.027,9.4062 -67.832,28.207 C 861.578,68.5 852.18,91.1094 852.18,117.531 V 330.43 c 0,26.41 9.398,49.031 28.203,67.832 z" /></clipPath><linearGradient
       id="linearGradient404"
       spreadMethod="pad"
       gradientTransform="matrix(3907.07,9.28045,9.28045,-3907.07,-137.457,221.4)"
       gradientUnits="userSpaceOnUse"
       y2="0"
       x2="1"
       y1="0"
       x1="0"><stop
         id="stop394"
         offset="0"
         style="stop-opacity:1;stop-color:#918f8f" /><stop
         id="stop396"
         offset="0.33782142"
         style="stop-opacity:1;stop-color:#ffffff" /><stop
         id="stop398"
         offset="0.521174"
         style="stop-opacity:1;stop-color:#ffffff" /><stop
         id="stop400"
         offset="0.70333329"
         style="stop-opacity:1;stop-color:#ffffff" /><stop
         id="stop402"
         offset="1"
         style="stop-opacity:1;stop-color:#918f8f" /></linearGradient><clipPath
       id="clipPath414"
       clipPathUnits="userSpaceOnUse"><path
         id="path412"
         d="m 1394.15,234.391 h -191.4 v 96.039 c 0,26.41 9.4,49.031 28.2,67.832 18.81,18.808 41.42,28.207 67.84,28.207 26.41,0 49.02,-9.399 67.83,-28.207 18.35,-18.801 27.53,-41.422 27.53,-67.832 z m -95.36,213.57 c -32.69,0 -60.45,-11.422 -83.28,-34.25 -22.84,-22.832 -34.25,-50.602 -34.25,-83.281 V 0 h 21.49 v 213.57 h 191.4 V 0 h 22.17 v 330.43 c 0,32.679 -11.42,60.449 -34.26,83.281 -22.83,22.828 -50.6,34.25 -83.27,34.25 z" /></clipPath><linearGradient
       id="linearGradient426"
       spreadMethod="pad"
       gradientTransform="matrix(3907.07,9.28045,9.28045,-3907.07,-137.455,220.43)"
       gradientUnits="userSpaceOnUse"
       y2="0"
       x2="1"
       y1="0"
       x1="0"><stop
         id="stop416"
         offset="0"
         style="stop-opacity:1;stop-color:#918f8f" /><stop
         id="stop418"
         offset="0.33782142"
         style="stop-opacity:1;stop-color:#ffffff" /><stop
         id="stop420"
         offset="0.521174"
         style="stop-opacity:1;stop-color:#ffffff" /><stop
         id="stop422"
         offset="0.70333329"
         style="stop-opacity:1;stop-color:#ffffff" /><stop
         id="stop424"
         offset="1"
         style="stop-opacity:1;stop-color:#918f8f" /></linearGradient><clipPath
       id="clipPath436"
       clipPathUnits="userSpaceOnUse"><path
         id="path434"
         d="m 1724.77,354.031 -142.95,285.918 h -24.95 V 0 h 30.7 v 560.309 l 137.2,-274.399 137.2,274.399 V 0 h 29.74 v 639.949 h -23.99 z" /></clipPath><linearGradient
       id="linearGradient448"
       spreadMethod="pad"
       gradientTransform="matrix(3907.07,9.28045,9.28045,-3907.07,-137.681,315.55)"
       gradientUnits="userSpaceOnUse"
       y2="0"
       x2="1"
       y1="0"
       x1="0"><stop
         id="stop438"
         offset="0"
         style="stop-opacity:1;stop-color:#918f8f" /><stop
         id="stop440"
         offset="0.33782142"
         style="stop-opacity:1;stop-color:#ffffff" /><stop
         id="stop442"
         offset="0.521174"
         style="stop-opacity:1;stop-color:#ffffff" /><stop
         id="stop444"
         offset="0.70333329"
         style="stop-opacity:1;stop-color:#ffffff" /><stop
         id="stop446"
         offset="1"
         style="stop-opacity:1;stop-color:#918f8f" /></linearGradient><clipPath
       id="clipPath458"
       clipPathUnits="userSpaceOnUse"><path
         id="path456"
         d="m 2246.21,117.531 c 0,-26.4216 -9.41,-49.031 -28.21,-67.8318 -18.8,-18.8008 -41.42,-28.207 -67.82,-28.207 -26.43,0 -49.03,9.4062 -67.84,28.207 -18.8,18.8008 -28.21,41.4102 -28.21,67.8318 V 330.43 c 0,26.41 9.41,49.031 28.21,67.832 18.81,18.808 41.41,28.207 67.84,28.207 26.4,0 49.02,-9.399 67.82,-28.207 18.8,-18.801 28.21,-41.422 28.21,-67.832 z m -96.03,330.43 c -32.24,0 -59.78,-11.422 -82.62,-34.25 -23.28,-23.289 -34.92,-51.039 -34.92,-83.281 V 117.531 c 0,-32.2302 11.64,-59.7693 34.92,-82.6013 C 2090.4,11.6406 2117.94,0 2150.18,0 c 32.22,0 59.76,11.6406 82.6,34.9297 22.83,22.832 34.25,50.3711 34.25,82.6013 V 330.43 c 0,32.242 -11.42,59.992 -34.25,83.281 -22.84,22.828 -50.38,34.25 -82.6,34.25 z" /></clipPath><linearGradient
       id="linearGradient470"
       spreadMethod="pad"
       gradientTransform="matrix(3907.07,9.28045,9.28045,-3907.07,-137.451,218.55)"
       gradientUnits="userSpaceOnUse"
       y2="0"
       x2="1"
       y1="0"
       x1="0"><stop
         id="stop460"
         offset="0"
         style="stop-opacity:1;stop-color:#918f8f" /><stop
         id="stop462"
         offset="0.33782142"
         style="stop-opacity:1;stop-color:#ffffff" /><stop
         id="stop464"
         offset="0.521174"
         style="stop-opacity:1;stop-color:#ffffff" /><stop
         id="stop466"
         offset="0.70333329"
         style="stop-opacity:1;stop-color:#ffffff" /><stop
         id="stop468"
         offset="1"
         style="stop-opacity:1;stop-color:#918f8f" /></linearGradient><clipPath
       id="clipPath480"
       clipPathUnits="userSpaceOnUse"><path
         id="path478"
         d="m 2500.75,234.391 h -96.05 v 192.078 h 96.05 c 26.4,0 49.02,-9.399 67.82,-28.207 18.81,-18.801 28.21,-41.422 28.21,-67.832 0,-26.418 -9.4,-49.032 -28.21,-67.828 -18.8,-18.813 -41.42,-28.211 -67.82,-28.211 z m 67.82,-49.032 c 18.81,-18.8 28.21,-41.41 28.21,-67.828 0,-26.4216 -9.4,-49.031 -28.21,-67.8318 -18.8,-18.8008 -41.42,-28.207 -67.82,-28.207 H 2404.7 V 213.57 h 96.05 c 26.4,0 49.02,-9.398 67.82,-28.211 z m 30.23,80.602 c 12.53,19.699 18.8,41.18 18.8,64.469 0,32.242 -11.42,59.992 -34.25,83.281 -22.84,22.828 -50.37,34.25 -82.6,34.25 H 2383.21 V 0 h 117.54 c 32.23,0 59.76,11.6406 82.6,34.9297 22.83,22.832 34.25,50.3711 34.25,82.6013 0,23.278 -6.27,44.77 -18.8,64.481 -12.54,18.347 -29.11,32.23 -49.7,41.629 20.59,9.41 37.16,23.507 49.7,42.32 z" /></clipPath><linearGradient
       id="linearGradient492"
       spreadMethod="pad"
       gradientTransform="matrix(3907.07,9.28045,9.28045,-3907.07,-137.449,217.85)"
       gradientUnits="userSpaceOnUse"
       y2="0"
       x2="1"
       y1="0"
       x1="0"><stop
         id="stop482"
         offset="0"
         style="stop-opacity:1;stop-color:#918f8f" /><stop
         id="stop484"
         offset="0.33782142"
         style="stop-opacity:1;stop-color:#ffffff" /><stop
         id="stop486"
         offset="0.521174"
         style="stop-opacity:1;stop-color:#ffffff" /><stop
         id="stop488"
         offset="0.70333329"
         style="stop-opacity:1;stop-color:#ffffff" /><stop
         id="stop490"
         offset="1"
         style="stop-opacity:1;stop-color:#918f8f" /></linearGradient><clipPath
       id="clipPath502"
       clipPathUnits="userSpaceOnUse"><path
         id="path500"
         d="m 2733.78,426.469 h 106.79 V 21.4922 H 2733.78 V 0 h 234.39 V 21.4922 H 2862.06 V 426.469 h 106.11 v 21.492 h -234.39 z" /></clipPath><linearGradient
       id="linearGradient514"
       spreadMethod="pad"
       gradientTransform="matrix(3907.07,9.28045,9.28045,-3907.07,-137.447,216.88)"
       gradientUnits="userSpaceOnUse"
       y2="0"
       x2="1"
       y1="0"
       x1="0"><stop
         id="stop504"
         offset="0"
         style="stop-opacity:1;stop-color:#918f8f" /><stop
         id="stop506"
         offset="0.33782142"
         style="stop-opacity:1;stop-color:#ffffff" /><stop
         id="stop508"
         offset="0.521174"
         style="stop-opacity:1;stop-color:#ffffff" /><stop
         id="stop510"
         offset="0.70333329"
         style="stop-opacity:1;stop-color:#ffffff" /><stop
         id="stop512"
         offset="1"
         style="stop-opacity:1;stop-color:#918f8f" /></linearGradient><clipPath
       id="clipPath524"
       clipPathUnits="userSpaceOnUse"><path
         id="path522"
         d="m 3105.84,447.961 h -21.49 V 0 h 234.39 v 21.4922 h -212.9 z" /></clipPath><linearGradient
       id="linearGradient536"
       spreadMethod="pad"
       gradientTransform="matrix(3907.07,9.28045,9.28045,-3907.07,-137.445,216.05)"
       gradientUnits="userSpaceOnUse"
       y2="0"
       x2="1"
       y1="0"
       x1="0"><stop
         id="stop526"
         offset="0"
         style="stop-opacity:1;stop-color:#918f8f" /><stop
         id="stop528"
         offset="0.33782142"
         style="stop-opacity:1;stop-color:#ffffff" /><stop
         id="stop530"
         offset="0.521174"
         style="stop-opacity:1;stop-color:#ffffff" /><stop
         id="stop532"
         offset="0.70333329"
         style="stop-opacity:1;stop-color:#ffffff" /><stop
         id="stop534"
         offset="1"
         style="stop-opacity:1;stop-color:#918f8f" /></linearGradient><clipPath
       id="clipPath546"
       clipPathUnits="userSpaceOnUse"><path
         id="path544"
         d="M 0,0 H 3669 V 2740 H 0 Z" /></clipPath><clipPath
       id="clipPath552"
       clipPathUnits="userSpaceOnUse"><path
         id="path550"
         d="m 3669.31,426.469 v 21.492 H 3434.92 V 0 h 234.39 v 21.4922 h -212.9 V 212.898 h 212.9 v 21.493 h -212.9 v 192.078 z" /></clipPath><linearGradient
       id="linearGradient564"
       spreadMethod="pad"
       gradientTransform="matrix(3907.07,9.28045,9.28045,-3907.07,-137.443,215.22)"
       gradientUnits="userSpaceOnUse"
       y2="0"
       x2="1"
       y1="0"
       x1="0"><stop
         id="stop554"
         offset="0"
         style="stop-opacity:1;stop-color:#918f8f" /><stop
         id="stop556"
         offset="0.33782142"
         style="stop-opacity:1;stop-color:#ffffff" /><stop
         id="stop558"
         offset="0.521174"
         style="stop-opacity:1;stop-color:#ffffff" /><stop
         id="stop560"
         offset="0.70333329"
         style="stop-opacity:1;stop-color:#ffffff" /><stop
         id="stop562"
         offset="1"
         style="stop-opacity:1;stop-color:#918f8f" /></linearGradient></defs><g
     transform="matrix(1.3333333,0,0,-1.3333333,0,365.38667)"
     id="g10"><g
       transform="scale(0.1)"
       id="g12"><path
         id="path14"
         style="fill:#90191e;fill-opacity:1;fill-rule:nonzero;stroke:none"
         d="m 791.461,2424.36 -123.102,-47.27 c -16.101,-6.18 -34.339,1.93 -40.523,18.04 l -17.953,46.75 c -6.188,16.1 1.93,34.34 18.035,40.52 l 123.098,47.28 c 16.101,6.18 34.339,-1.93 40.523,-18.04 l 17.953,-46.75 c 6.188,-16.1 -1.929,-34.34 -18.031,-40.53" /><path
         id="path16"
         style="fill:#90191e;fill-opacity:1;fill-rule:nonzero;stroke:none"
         d="m 527.656,2257.73 -72.051,-110.44 c -9.425,-14.45 -28.957,-18.56 -43.406,-9.13 l -41.945,27.36 c -14.445,9.43 -18.555,28.96 -9.129,43.41 l 72.051,110.44 c 9.426,14.44 28.957,18.55 43.406,9.13 l 41.945,-27.37 c 14.446,-9.42 18.555,-28.95 9.129,-43.4" /><path
         id="path18"
         style="fill:#90191e;fill-opacity:1;fill-rule:nonzero;stroke:none"
         d="m 436.879,1975.38 25.25,-132.65 c 3.062,-16.09 0.219,-20.85 -19.633,-30.39 l -56.363,-14.39 c -16.09,-3.06 -31.762,7.59 -34.824,23.69 l -25.25,132.65 c -3.063,16.09 7.593,31.76 23.683,34.82 l 52.313,9.96 c 16.09,3.06 31.761,-7.6 34.824,-23.69" /><path
         id="path20"
         style="fill:#90191e;fill-opacity:1;fill-rule:nonzero;stroke:none"
         d="m 1342.48,2354.82 73.66,-113.17 c 8.94,-13.73 5.02,-32.27 -8.71,-41.21 l -44.63,-29.05 c -18.36,-6.26 -32.27,-5.01 -41.2,8.72 l -73.67,113.16 c -8.93,13.73 -5.01,32.28 8.72,41.21 l 44.63,29.05 c 13.72,8.93 32.26,5.01 41.2,-8.71" /><path
         id="path22"
         style="fill:#90191e;fill-opacity:1;fill-rule:nonzero;stroke:none"
         d="m 1016.21,2539.11 125.88,-39.26 c 16.47,-5.13 25.74,-22.81 20.61,-39.28 l -14.91,-47.81 c -5.14,-16.47 -22.81,-25.74 -39.28,-20.6 l -125.889,39.25 c -16.469,5.14 -25.738,22.82 -20.601,39.28 l 14.91,47.82 c 5.133,16.46 22.808,25.74 39.28,20.6" /><path
         id="path24"
         style="fill:#90191e;fill-opacity:1;fill-rule:nonzero;stroke:none"
         d="m 504.988,1832.27 c 0.918,0.36 1.742,0.93 2.614,1.39 -10.684,36.73 -20.559,83.07 -20.559,123.2 0,228.65 186.016,414.66 414.66,414.66 158.407,0 299.647,-94.05 369.447,-224.94 31.08,6.49 58.91,14.38 91.65,24.81 -80.07,173.67 -257.65,290.87 -461.097,290.87 -278.676,0 -505.394,-226.72 -505.394,-505.4 0,-55.79 3.902,-101.68 20.671,-151.91 1.336,0.71 24.114,7.02 25.516,7.39 28.473,7.37 37.043,10.1 62.492,19.93" /><path
         id="path26"
         style="fill:#90191e;fill-opacity:1;fill-rule:nonzero;stroke:none"
         d="m 570.688,1976.15 c 0,180.02 146.453,326.48 326.472,326.48 124.42,0 232.78,-69.99 287.86,-172.65 10.36,2.77 20.73,5.45 31.13,8.03 -59.19,116.18 -179.91,195.99 -318.99,195.99 -197.32,0 -357.851,-160.53 -357.851,-357.85 0,-40.14 6.742,-78.72 18.992,-114.77 9.301,5.12 18.597,10.24 27.929,15.31 -10.058,31.38 -15.542,64.79 -15.542,99.46" /><g
         id="g28"><g
           clip-path="url(#clipPath34)"
           id="g30"><path
             id="path48"
             style="fill:url(#linearGradient46);fill-opacity:1;fill-rule:nonzero;stroke:none"
             d="m 695.137,1021.37 c 0.082,0.49 0.144,0.89 0.144,0.89 -24.597,4.75 -49.281,9.01 -74.054,12.71 -74.215,11.69 -148.903,20.61 -223.848,26.03 l -0.367,-3.78 c 23.59,-15.73 47.605,-25.25 71.769,-33.04 73.524,-21.29 149.672,-29.078 224.571,-6.05 -48.286,-86.45 -157.68,-139.251 -247.606,-84.169 -67.176,42.211 -111.668,186.589 -125.453,263.109 -32.637,180.93 7.789,376.71 118.508,524.58 29.465,42.27 83.785,41.69 129.855,53.07 67.235,12.77 135.465,20.16 203.934,22.85 28.289,-0.72 54.785,12.9 74.738,32.46 -0.359,-0.52 -0.742,-1.03 -1.101,-1.55 178.893,188.03 435.713,287.36 693.453,267.3 75.08,-2.71 157.69,-6.14 231.78,-16.73 70.17,-8.89 140.3,-18.73 208.57,-38.1 -32.73,-23.31 -57.87,-57.11 -69.32,-95.24 10.47,20.63 24.51,38.91 40.91,54.2 21.95,20.97 49.45,34.07 77.26,44.47 l -22.67,8.96 c -73.34,29.64 -151.38,45.41 -228.67,61.79 -74.57,16.99 -159.01,23.14 -235.64,27.38 -261.47,24.32 -536.96,-89.07 -689.13,-304.8 -21.903,-19.84 -50.301,-33.21 -80.125,-29.82 -34.59,1.81 -69.305,1.67 -104.012,0.38 -52.047,-2.39 -104.16,-7.81 -155.492,-17.11 -25.536,-4.3 -57.246,-10.53 -78.723,-29.14 -140.031,-145.6 -188.117,-376.71 -149.383,-571.64 18.195,-86.26 68.094,-233.271 148.203,-277.829 101.848,-55.039 219.196,5.597 260.914,105.809 0.172,0.06 0.348,0.1 0.52,0.15 0,0 0.144,0.9 0.293,1.81 0.406,1.01 0.851,1.99 1.242,2.99 -0.344,-0.65 -0.723,-1.29 -1.07,-1.94" /></g></g><g
         id="g50"><g
           clip-path="url(#clipPath56)"
           id="g52"><path
             id="path70"
             style="fill:url(#linearGradient68);fill-opacity:1;fill-rule:nonzero;stroke:none"
             d="m 1187.61,1600.97 c 211.07,99.51 438.94,129.42 670.41,125.15 -224.26,58.76 -486.85,21.65 -670.41,-125.15" /></g></g><g
         id="g72"><g
           clip-path="url(#clipPath78)"
           id="g74"><path
             id="path92"
             style="fill:url(#linearGradient90);fill-opacity:1;fill-rule:nonzero;stroke:none"
             d="m 2384.46,2003.92 c -94.4,72.11 -239.05,74.21 -330.78,-3.88 -30.2,-25.06 -55.27,-54.01 -78.13,-83.51 -46.21,-58.85 -87.43,-122.13 -117.53,-190.41 65.52,87.66 133.95,176.68 217.7,245.85 83.22,65.4 204.14,63.42 292.01,7.34 59.64,-37.46 107.58,-96.09 130.31,-167.12 -6.91,74.73 -50.86,145.95 -113.58,191.73" /></g></g><g
         id="g94"><g
           clip-path="url(#clipPath100)"
           id="g96"><path
             id="path114"
             style="fill:url(#linearGradient112);fill-opacity:1;fill-rule:nonzero;stroke:none"
             d="m 2155.09,1785.69 c -20.63,-4.26 -43.97,-8.06 -64.52,-14.94 -21.28,-6.96 -41.96,-15.58 -61.05,-26.89 21.49,5.45 42.75,10.28 64.24,13.27 40.98,8.46 125.39,-4.67 117.04,61.21 -20.12,79.14 -130.94,80.77 -188.76,44.69 -39.75,-23.51 -67.41,-63.49 -80.5,-106.66 34.29,55.19 84.66,98.88 149.65,101.81 35.53,2.75 95.07,-11.34 93.43,-54.79 -3.96,-11.28 -16.65,-14.01 -29.53,-17.7" /></g></g><g
         id="g116"><g
           clip-path="url(#clipPath122)"
           id="g118"><path
             id="path136"
             style="fill:url(#linearGradient134);fill-opacity:1;fill-rule:nonzero;stroke:none"
             d="m 2498.04,1812.19 c -34.41,-24.12 -70.73,-43.11 -108.68,-57.46 -114.98,-42.65 -242.02,-45.55 -359.84,-10.87 140.36,-86.68 361.69,-60.67 468.52,68.33" /></g></g><g
         id="g138"><g
           clip-path="url(#clipPath144)"
           id="g140"><path
             id="path158"
             style="fill:url(#linearGradient156);fill-opacity:1;fill-rule:nonzero;stroke:none"
             d="m 1787.5,1494.81 c 100.59,105.57 191.5,-0.63 245.04,-93.33 -28.01,67.91 -73.14,150.78 -154.92,159.54 -84.37,4.48 -141.51,-75.96 -176.21,-142.11 -66.05,-136.64 -86.82,-297.64 -48.7,-444.379 -17.92,165.709 20.75,394.419 134.79,520.279" /></g></g><g
         id="g160"><g
           clip-path="url(#clipPath166)"
           id="g162"><path
             id="path180"
             style="fill:url(#linearGradient178);fill-opacity:1;fill-rule:nonzero;stroke:none"
             d="m 1889.38,1360.66 c 25.99,2.42 57.15,-7.11 72.53,-28.61 12.89,-17.36 32.21,-36.4 46.66,-68.91 -4.62,10.4 -10.75,38.09 -13.52,48.94 -6.13,23.12 -10.8,43.11 -20.79,66.64 -18.83,44.3 -60.65,89.1 -117.39,54.18 -82.17,-50.57 -102.94,-169.76 -117.39,-349.45 l 5.7,4.48 c 20.91,83.53 22.22,163.37 72.86,231.2 15,19.02 46.29,38.06 71.34,41.53" /></g></g><g
         id="g182"><g
           clip-path="url(#clipPath188)"
           id="g184"><path
             id="path202"
             style="fill:url(#linearGradient200);fill-opacity:1;fill-rule:nonzero;stroke:none"
             d="m 546.465,1309.77 c -25.145,0.28 -50.715,0.18 -75.906,0.14 l -8.11,-0.05 c -3.449,-0.18 -8.875,-0.4 -15.285,-3.66 -6.5,-3.38 -10.512,-8.69 -12.723,-12.56 -23.765,-52.62 -33.73,-109.88 -35.121,-167.45 l 19.395,-0.11 c 281.566,-2.12 562.875,-24.14 842.325,-58.51 -269.454,60.88 -545.688,90.43 -821.786,95.58 3.949,37.33 12.949,74.7 26.684,109.52 2.062,0.02 4.941,0.06 4.941,0.06 105.648,1.12 211.32,0.48 316.945,-2.32 161.34,-3.8 322.156,-13.4 483.256,-24.36 -239.13,41.66 -481.975,60.89 -724.615,63.72" /></g></g><g
         id="g204"><g
           clip-path="url(#clipPath210)"
           id="g206"><path
             id="path224"
             style="fill:url(#linearGradient222);fill-opacity:1;fill-rule:nonzero;stroke:none"
             d="m 590.629,1216.06 0.019,-1.9 c 95.282,-9.29 190.137,-11.15 285.594,-14.02 95.215,-4.29 190.308,-11.68 285.078,-22.17 l 0.26,1.89 c -94.21,15.84 -189.115,27.67 -284.377,35.44 -95.273,9.2 -191.258,12.24 -286.574,0.76" /></g></g><g
         id="g226"><g
           clip-path="url(#clipPath232)"
           id="g228"><path
             id="path246"
             style="fill:url(#linearGradient244);fill-opacity:1;fill-rule:nonzero;stroke:none"
             d="m 667.098,1591.26 c 123.523,-51.19 264.347,-63.87 394.982,-35.26 -133.014,-2.13 -264.463,9.5 -394.982,35.26" /></g></g><g
         id="g248"><g
           clip-path="url(#clipPath254)"
           id="g250"><path
             id="path268"
             style="fill:url(#linearGradient266);fill-opacity:1;fill-rule:nonzero;stroke:none"
             d="m 1063.37,1493.18 c -141.479,-13.25 -283.143,1.87 -418.557,44.98 125.957,-68.12 281.007,-84.88 418.557,-44.98" /></g></g><g
         id="g270"><g
           clip-path="url(#clipPath276)"
           id="g272"><path
             id="path290"
             style="fill:url(#linearGradient288);fill-opacity:1;fill-rule:nonzero;stroke:none"
             d="m 374.375,1558.34 c 47.707,-52.72 126.93,-56.73 192.891,-53.53 0.922,13.41 0.277,30.02 -6.395,41.11 -27.476,46.83 -80.012,79 -132.945,85.26 38.125,-20.19 72.25,-46.87 97.91,-81.29 4.434,-5.88 8.105,-11.85 10.484,-17.53 -55.765,-1.22 -111.062,0.46 -161.945,25.98" /></g></g><g
         id="g292"><g
           clip-path="url(#clipPath298)"
           id="g294"><g
             clip-path="url(#clipPath304)"
             id="g300"><path
               id="path318"
               style="fill:url(#linearGradient316);fill-opacity:1;fill-rule:nonzero;stroke:none"
               d="m 1805,840 v 1 h -24 v 1 h -10 v 1 h 3 v 1 h 4 v 1 h 4 v 1 h 5 v 1 h 4 v 1 h 5 v 1 h 4 v 1 h 5 v 1 h 4 v 1 h 4 v 1 h 5 v 1 h 4 v 1 h 5 v 1 h 4 v 1 h 5 v 1 h 4 v 1 h 5 v 1 h 4 v 1 h 5 v 1 h 4 v 1 h 5 v 1 h 4 v 1 h 5 v 1 h 4 v 1 h 4 v 1 h 5 v 1 h 4 v 1 h 5 v 1 h 4 v 1 h 5 v 1 h 4 v 1 h 5 v 1 h 4 v 1 h 5 v 1 h 4 v 1 h 5 v 1 h 4 v 1 h 5 v 1 h 4 v 1 h 4 v 1 h 5 v 1 h 4 v 1 h 5 v 1 h 4 v 1 h 4 v 1 h 5 v 1 h 4 v 1 h 5 v 1 h 4 v 1 h 4 v 1 h 5 v 1 h 4 v 1 h 4 v 1 h 5 v 1 h 4 v 1 h 5 v 1 h 4 v 1 h 4 v 1 h 5 v 1 h 4 v 1 h 5 v 1 h 4 v 1 h 4 v 1 h 4 v 1 h 5 v 1 h 4 v 1 h 4 v 1 h 4 v 1 h 5 v 1 h 4 v 1 h 4 v 1 h 4 v 1 h 5 v 1 h 4 v 1 h 4 v 1 h 4 v 1 h 4 v 1 h 5 v 1 h 4 v 1 h 4 v 1 h 4 v 1 h 5 v 1 h 4 v 1 h 4 v 1 h 4 v 1 h 4 v 1 h 4 v 1 h 4 v 1 h 4 v 1 h 4 v 1 h 4 v 1 h 4 v 1 h 4 v 1 h 4 v 1 h 4 v 1 h 5 v 1 h 4 v 1 h 4 v 1 h 4 v 1 h 4 v 1 h 4 v 1 h 4 v 1 h 4 v 1 h 4 v 1 h 4 v 1 h 4 v 1 h 4 v 1 h 4 v 1 h 4 v 1 h 3 v 1 h 4 v 1 h 4 v 1 h 4 v 1 h 4 v 1 h 3 v 1 h 4 v 1 h 4 v 1 h 4 v 1 h 4 v 1 h 3 v 1 h 4 v 1 h 4 v 1 h 4 v 1 h 3 v 1 h 4 v 1 h 4 v 1 h 4 v 1 h 4 v 1 h 3 v 1 h 4 v 1 h 4 v 1 h 4 v 1 h 4 v 1 h 3 v 1 h 4 v 1 h 3 v 1 h 4 v 1 h 3 v 1 h 4 v 1 h 3 v 1 h 4 v 1 h 3 v 1 h 4 v 1 h 3 v 1 h 4 v 1 h 3 v 1 h 4 v 1 h 3 v 1 h 4 v 1 h 3 v 1 h 4 v 1 h 3 v 1 h 4 v 1 h 3 v 1 h 4 v 1 h 3 v 1 h 4 v 1 h 3 v 1 h 4 v 1 h 3 v 1 h 4 v 1 h 3 v 1 h 4 v 1 h 3 v 1 h 3 v 1 h 3 v 1 h 4 v 1 h 3 v 1 h 3 v 1 h 3 v 1 h 4 v 1 h 3 v 1 h 3 v 1 h 4 v 1 h 3 v 1 h 3 v 1 h 3 v 1 h 4 v 1 h 3 v 1 h 3 v 1 h 3 v 1 h 4 v 1 h 3 v 1 h 3 v 1 h 3 v 1 h 3 v 1 h 3 v 1 h 3 v 1 h 3 v 1 h 4 v 1 h 3 v 1 h 3 v 1 h 3 v 1 h 3 v 1 h 3 v 1 h 3 v 1 h 3 v 1 h 3 v 1 h 3 v 1 h 3 v 1 h 3 v 1 h 3 v 1 h 3 v 1 h 3 v 1 h 3 v 1 h 3 v 1 h 3 v 1 h 3 v 1 h 3 v 1 h 2 v 1 h 3 v 1 h 3 v 1 h 3 v 1 h 3 v 1 h 3 v 1 h 3 v 1 h 3 v 1 h 3 v 1 h 3 v 1 h 3 v 1 h 2 v 1 h 3 v 1 h 3 v 1 h 3 v 1 h 3 v 1 h 2 v 1 h 3 v 1 h 3 v 1 h 3 v 1 h 3 v 1 h 3 v 1 h 2 v 1 h 3 v 1 h 3 v 1 h 3 v 1 h 3 v 1 h 2 v 1 h 3 v 1 h 3 v 1 h 3 v 1 h 3 v 1 h 2 v 1 h 3 v 1 h 3 v 1 h 3 v 1 h 2 v 1 h 3 v 1 h 3 v 1 h 2 v 1 h 3 v 1 h 3 v 1 h 2 v 1 h 3 v 1 h 3 v 1 h 2 v 1 h 3 v 1 h 3 v 1 h 2 v 1 h 3 v 1 h 2 v 1 h 3 v 1 h 3 v 1 h 2 v 1 h 3 v 1 h 3 v 1 h 2 v 1 h 3 v 1 h 3 v 1 h 2 v 1 h 3 v 1 h 3 v 1 h 2 v 1 h 3 v 1 h 2 v 1 h 3 v 1 h 2 v 1 h 3 v 1 h 2 v 1 h 3 v 1 h 2 v 1 h 3 v 1 h 2 v 1 h 3 v 1 h 2 v 1 h 3 v 1 h 2 v 1 h 3 v 1 h 2 v 1 h 3 v 1 h 2 v 1 h 3 v 1 h 2 v 1 h 3 v 1 h 2 v 1 h 3 v 1 h 2 v 1 h 3 v 1 h 2 v 1 h 3 v 1 h 2 v 1 h 3 v 1 h 2 v 1 h 2 v 1 h 3 v 1 h 2 v 1 h 2 v 1 h 3 v 1 h 2 v 1 h 3 v 1 h 2 v 1 h 2 v 1 h 3 v 1 h 2 v 1 h 2 v 1 h 3 v 1 h 2 v 1 h 2 v 1 h 3 v 1 h 2 v 1 h 2 v 1 h 3 v 1 h 2 v 1 h 3 v 1 h 2 v 1 h 2 v 1 h 3 v 1 h 2 v 1 h 2 v 1 h 3 v 1 h 2 v 1 h 2 v 1 h 2 v 1 h 3 v 1 h 2 v 1 h 2 v 1 h 2 v 1 h 3 v 1 h 2 v 1 h 2 v 1 h 2 v 1 h 2 v 1 h 3 v 1 h 2 v 1 h 2 v 1 h 2 v 1 h 3 v 1 h 2 v 1 h 2 v 1 h 2 v 1 h 2 v 1 h 3 v 1 h 2 v 1 h 2 v 1 h 2 v 1 h 3 v 1 h 2 v 1 h 2 v 1 h 2 v 1 h 2 v 1 h 3 v 1 h 2 v 1 h 2 v 1 h 2 v 1 h 2 v 1 h 2 v 1 h 2 v 1 h 2 v 1 h 2 v 1 h 2 v 1 h 2 v 1 h 3 v 1 h 2 v 1 h 2 v 1 h 2 v 1 h 2 v 1 h 2 v 1 h 2 v 1 h 2 v 1 h 2 v 1 h 2 v 1 h 2 v 1 h 3 v 1 h 2 v 1 h 2 v 1 h 2 v 1 h 2 v 1 h 2 v 1 h 2 v 1 h 2 v 1 h 2 v 1 h 2 v 1 h 2 v 1 h 2 v 1 h 2 v 1 h 2 v 1 h 2 v 1 h 2 v 1 h 2 v 1 h 2 v 1 h 2 v 1 h 2 v 1 h 2 v 1 h 2 v 1 h 2 v 1 h 2 v 1 h 2 v 1 h 2 v 1 h 2 v 1 h 2 v 1 h 2 v 1 h 2 v 1 h 1 v 1 h 2 v 1 h 2 v 1 h 2 v 1 h 2 v 1 h 2 v 1 h 2 v 1 h 2 v 1 h 2 v 1 h 2 v 1 h 2 v 1 h 2 v 1 h 2 v 1 h 2 v 1 h 1 v 1 h 2 v 1 h 2 v 1 h 2 v 1 h 2 v 1 h 2 v 1 h 2 v 1 h 1 v 1 h 2 v 1 h 2 v 1 h 2 v 1 h 2 v 1 h 2 v 1 h 1 v 1 h 2 v 1 h 2 v 1 h 2 v 1 h 2 v 1 h 2 v 1 h 1 v 1 h 2 v 1 h 2 v 1 h 2 v 1 h 2 v 1 h 2 v 1 h 1 v 1 h 2 v 1 h 2 v 1 h 2 v 1 h 2 v 1 h 1 v 1 h 2 v 1 h 2 v 1 h 2 v 1 h 1 v 1 h 2 v 1 h 2 v 1 h 1 v 1 h 2 v 1 h 2 v 1 h 2 v 1 h 1 v 1 h 2 v 1 h 2 v 1 h 2 v 1 h 1 v 1 h 2 v 1 h 2 v 1 h 1 v 1 h 2 v 1 h 2 v 1 h 2 v 1 h 1 v 1 h 2 v 1 h 2 v 1 h 1 v 1 h 2 v 1 h 2 v 1 h 2 v 1 h 1 v 1 h 2 v 1 h 2 v 1 h 1 v 1 h 2 v 1 h 2 v 1 h 1 v 1 h 2 v 1 h 1 v 1 h 2 v 1 h 2 v 1 h 1 v 1 h 2 v 1 h 1 v 1 h 2 v 1 h 2 v 1 h 1 v 1 h 2 v 1 h 1 v 1 h 2 v 1 h 2 v 1 h 1 v 1 h 2 v 1 h 1 v 1 h 2 v 1 h 2 v 1 h 1 v 1 h 2 v 1 h 1 v 1 h 2 v 1 h 2 v 1 h 1 v 1 h 2 v 1 h 1 v 1 h 2 v 1 h 2 v 1 h 1 v 1 h 2 v 1 h 1 v 1 h 2 v 1 h 1 v 1 h 2 v 1 h 1 v 1 h 1 v 1 h 2 v 1 h 1 v 1 h 2 v 1 h 1 v 1 h 2 v 1 h 1 v 1 h 2 v 1 h 1 v 1 h 2 v 1 h 1 v 1 h 2 v 1 h 1 v 1 h 2 v 1 h 1 v 1 h 2 v 1 h 1 v 1 h 2 v 1 h 1 v 1 h 2 v 1 h 1 v 1 h 2 v 1 h 1 v 1 h 2 v 1 h 1 v 1 h 2 v 1 h 1 v 1 h 1 v 1 h 2 v 1 h 1 v 1 h 2 v 1 h 1 v 1 h 1 v 1 h 2 v 1 h 1 v 1 h 2 v 1 h 1 v 1 h 1 v 1 h 2 v 1 h 1 v 1 h 1 v 1 h 2 v 1 h 1 v 1 h 2 v 1 h 1 v 1 h 1 v 1 h 2 v 1 h 1 v 1 h 1 v 1 h 2 v 1 h 1 v 1 h 2 v 1 h 1 v 1 h 1 v 1 h 2 v 1 h 1 v 1 h 1 v 1 h 2 v 1 h 1 v 1 h 2 v 1 h 1 v 1 h 1 v 1 h 1 v 1 h 2 v 1 h 1 v 1 h 1 v 1 h 1 v 1 h 2 v 1 h 1 v 1 h 1 v 1 h 1 v 1 h 2 v 1 h 1 v 1 h 1 v 1 h 2 v 1 h 1 v 1 h 1 v 1 h 1 v 1 h 2 v 1 h 1 v 1 h 1 v 1 h 1 v 1 h 2 v 1 h 1 v 1 h 1 v 1 h 1 v 1 h 2 v 1 h 1 v 1 h 1 v 1 h 2 v 1 h 1 v 1 h 1 v 1 h 1 v 1 h 2 v 1 h 1 v 1 h 1 v 1 h 1 v 1 h 1 v 1 h 1 v 1 h 2 v 1 h 1 v 1 h 1 v 1 h 1 v 1 h 1 v 1 h 1 v 1 h 2 v 1 h 1 v 1 h 1 v 1 h 1 v 1 h 1 v 1 h 1 v 1 h 1 v 1 h 2 v 1 h 1 v 1 h 1 v 1 h 1 v 1 h 1 v 1 h 1 v 1 h 2 v 1 h 1 v 1 h 1 v 1 h 1 v 1 h 1 v 1 h 1 v 1 h 1 v 1 h 2 v 1 h 1 v 1 h 1 v 1 h 1 v 1 h 1 v 1 h 1 v 1 h 1 v 1 h 1 v 1 h 1 v 1 h 1 v 1 h 2 v 1 h 1 v 1 h 1 v 1 h 1 v 1 h 1 v 1 h 1 v 1 h 1 v 1 h 1 v 1 h 1 v 1 h 1 v 1 h 1 v 1 h 1 v 1 h 1 v 1 h 1 v 1 h 1 v 1 h 1 v 1 h 2 v 1 h 1 v 1 h 1 v 1 h 1 v 1 h 1 v 1 h 1 v 1 h 1 v 1 h 1 v 1 h 1 v 1 h 1 v 1 h 1 v 1 h 1 v 1 h 1 v 1 h 1 v 1 h 1 v 1 h 1 v 1 h 1 v 1 h 1 v 1 h 1 v 1 h 1 v 1 h 1 v 1 h 1 v 1 h 1 v 1 h 1 v 2 h 1 v 1 h 1 v 1 h 1 v 1 h 1 v 1 h 1 v 1 h 1 v 1 h 1 v 1 h 1 v 1 h 1 v 2 h 1 v 1 h 1 v 1 h 1 v 1 h 1 v 1 h 1 v 1 h 1 v 1 h 1 v 1 h 1 v 1 h 1 v 1 h 1 v 2 h 1 v 1 h 1 v 1 h 1 v 1 h 1 v 1 h 1 v 1 h 1 v 1 h 1 v 1 h 1 v 1 h 1 v 1 h 1 v 2 h 1 v 1 h 1 v 1 h 1 v 1 h 1 v 2 h 1 v 1 h 1 v 1 h 1 v 1 h 1 v 2 h 1 v 1 h 1 v 1 h 1 v 1 h 1 v 2 h 1 v 1 h 1 v 1 h 1 v 1 h 1 v 2 h 1 v 1 h 1 v 1 h 1 v 1 h 1 v 2 h 1 v 1 h 1 v 1 h 1 v 1 h 1 v 2 h 1 v 1 h 1 v 1 h 1 v 1 h 1 v 2 h 1 v 1 h 1 v 1 h 1 v 1 h 1 v 2 h 1 v 1 h 1 v 1 h 1 v 1 h 1 v 2 h 1 v 1 h 1 v 2 h 1 v 1 h 1 v 2 h 1 v 1 h 1 v 2 h 1 v 1 h 1 v 2 h 1 v 1 h 1 v 2 h 1 v 1 h 1 v 2 h 1 v 1 h 1 v 2 h 1 v 1 h 1 v 1 h 1 v 2 h 1 v 1 h 1 v 2 h 1 v 1 h 1 v 2 h 1 v 1 h 1 v 2 h 1 v 1 h 1 v 2 h 1 v 1 h 1 v 2 h 1 v 1 h 1 v 2 h 1 v 1 h 1 v 2 h 1 v 2 h 1 v 2 h 1 v 2 h 1 v 2 h 1 v 1 h 1 v 2 h 1 v 2 h 1 v 2 h 1 v 2 h 1 v 1 h 1 v 2 h 1 v 2 h 1 v 2 h 1 v 2 h 1 v 2 h 1 v 1 h 1 v 2 h 1 v 2 h 1 v 2 h 1 v 2 h 1 v 2 h 1 v 1 h 1 v 2 h 1 v 3 h 1 v 2 h 1 v 2 h 1 v 3 h 1 v 2 h 1 v 2 h 1 v 3 h 1 v 2 h 1 v 2 h 1 v 3 h 1 v 2 h 1 v 3 h 1 v 2 h 1 v 2 h 1 v 3 h 1 v 2 h 1 v 2 h 1 v 3 h 1 v 2 h 1 v 4 h 1 v 3 h 1 v 3 h 1 v 4 h 1 v 3 h 1 v 3 h 1 v 3 h 1 v 4 h 1 v 3 h 1 v 3 h 1 v 4 h 1 v 3 h 1 v 3 h 1 v 6 h 1 v 5 h 1 v 6 h 1 v 6 h 1 v 5 h 1 v 6 h 1 v 6 h 1 v 5 h 1 v 14 h 1 v 13 h 1 v 24 h -1 v 10 h -1 v 9 h -1 v 7 h -1 v 6 h -1 v 5 h -1 v 5 h -1 v 5 h -1 v 5 h -1 v 5 h -1 v 3 h -1 v 4 h -1 v 3 h -1 v 3 h -1 v 4 h -1 v 3 h -1 v 4 h -1 v 3 h -1 v 3 h -1 v 2 h -1 v 3 h -1 v 3 h -1 v 2 h -1 v 3 h -1 v 2 h -1 v 3 h -1 v 2 h -1 v 3 h -1 v 3 h -1 v 2 h -1 v 2 h -1 v 2 h -1 v 2 h -1 v 2 h -1 v 2 h -1 v 2 h -1 v 2 h -1 v 2 h -1 v 2 h -1 v 2 h -1 v 2 h -1 v 2 h -1 v 2 h -1 v 2 h -1 v 1 h -1 v 2 h -1 v 2 h -1 v 2 h -1 v 1 h -1 v 2 h -1 v 2 h -1 v 1 h -1 v 2 h -1 v 2 h -1 v 2 h -1 v 1 h -1 v 2 h -1 v 1 h -1 v 2 h -1 v 1 h -1 v 2 h -1 v 1 h -1 v 2 h -1 v 1 h -1 v 2 h -1 v 1 h -1 v 2 h -1 v 1 h -1 v 2 h -1 v 1 h -1 v 1 h -1 v 2 h -1 v 1 h -1 v 2 h -1 v 1 h -1 v 1 h -1 v 2 h -1 v 1 h -1 v 1 h -1 v 2 h -1 v 1 h -1 v 1 h -1 v 1 h -1 v 2 h -1 v 1 h -1 v 1 h -1 v 2 h -1 v 1 h -1 v 1 h -1 v 1 h -1 v 2 h -1 v 1 h -1 v 1 h -1 v 1 h -1 v 1 h -1 v 2 h -1 v 1 h -1 v 1 h -1 v 1 h -1 v 1 h -1 v 1 h -1 v 1 h -1 v 2 h -1 v 1 h -1 v 1 h -1 v 1 h -1 v 1 h -1 v 1 h -1 v 1 h -1 v 2 h -1 v 1 h -1 v 1 h -1 v 1 h -1 v 1 h -1 v 1 h -1 v 1 h -1 v 1 h -1 v 1 h -1 v 1 h -1 v 1 h -1 v 1 h -1 v 1 h -1 v 1 h -1 v 1 h -1 v 1 h -1 v 1 h -1 v 1 h -1 v 1 h -1 v 1 h -1 v 1 h -1 v 1 h -1 v 1 h -1 v 1 h -1 v 1 h -1 v 1 h -1 v 1 h -1 v 1 h -1 v 1 h -1 v 1 h -1 v 1 h -1 v 1 h -1 v 1 h -1 v 1 h -1 v 1 h -1 v 1 h -1 v 1 h -1 v 1 h -1 v 1 h -1 v 1 h -2 v 1 h -1 v 1 h -1 v 1 h -1 v 1 h -1 v 1 h -1 v 1 h -1 v 1 h -1 v 1 h -1 v 1 h -1 v 1 h -2 v 1 h -1 v 1 h -1 v 1 h -1 v 1 h -1 v 1 h -1 v 1 h -2 v 1 h -1 v 1 h -1 v 1 h -1 v 1 h -1 v 1 h -1 v 1 h -2 v 1 h -1 v 1 h -1 v 1 h -1 v 1 h -1 v 1 h -1 v 1 h -2 v 1 h -1 v 1 h -1 v 1 h -1 v 1 h -2 v 1 h -1 v 1 h -1 v 1 h -1 v 1 h -2 v 1 h -1 v 1 h -1 v 1 h -1 v 1 h -2 v 1 h -1 v 1 h -1 v 1 h -1 v 1 h -2 v 1 h -1 v 1 h -1 v 1 h -1 v 1 h -2 v 1 h -1 v 1 h -1 v 1 h -2 v 1 h -1 v 1 h -2 v 1 h -1 v 1 h -1 v 1 h -2 v 1 h -1 v 1 h -1 v 1 h -2 v 1 h -1 v 1 h -1 v 1 h -2 v 1 h -1 v 1 h -1 v 1 h -2 v 1 h -1 v 1 h -1 v 1 h -2 v 1 h -1 v 1 h -2 v 1 h -1 v 1 h -2 v 1 h -1 v 1 h -1 v 1 h -2 v 1 h -1 v 1 h -2 v 1 h -1 v 1 h -2 v 1 h -1 v 1 h -2 v 1 h -1 v 1 h -1 v 1 h -2 v 1 h -1 v 1 h -2 v 1 h -1 v 1 h -2 v 1 h -1 v 1 h -2 v 1 h -1 v 1 h -2 v 1 h -1 v 1 h -2 v 1 h -1 v 1 h -2 v 1 h -1 v 1 h -2 v 1 h -1 v 1 h -2 v 1 h -2 v 1 h -1 v 1 h -2 v 1 h -1 v 1 h -2 v 1 h -1 v 1 h -2 v 1 h -1 v 1 h -2 v 1 h -2 v 1 h -1 v 1 h -2 v 1 h -2 v 1 h -1 v 1 h -2 v 1 h -1 v 1 h -2 v 1 h -2 v 1 h -1 v 1 h -2 v 1 h -2 v 1 h -1 v 1 h -2 v 1 h -2 v 1 h -1 v 1 h -2 v 1 h -2 v 1 h -1 v 1 h -2 v 1 h -1 v 1 h -2 v 1 h -2 v 1 h -2 v 1 h -2 v 1 h -1 v 1 h -2 v 1 h -2 v 1 h -2 v 1 h -1 v 1 h -2 v 1 h -2 v 1 h -2 v 1 h -1 v 1 h -2 v 1 h -2 v 1 h -2 v 1 h -2 v 1 h -1 v 1 h -2 v 1 h -2 v 1 h -2 v 1 h -1 v 1 h -2 v 1 h -2 v 1 h -2 v 1 h -2 v 1 h -1 v 1 h -2 v 1 h -2 v 1 h -2 v 1 h -2 v 1 h -2 v 1 h -2 v 1 h -2 v 1 h -2 v 1 h -2 v 1 h -1 v 1 h -2 v 1 h -2 v 1 h -2 v 1 h -2 v 1 h -2 v 1 h -2 v 1 h -2 v 1 h -2 v 1 h -2 v 1 h -2 v 1 h -2 v 1 h -2 v 1 h -2 v 1 h -2 v 1 h -1 v 1 h -2 v 1 h -2 v 1 h -2 v 1 h -3 v 1 h -2 v 1 h -2 v 1 h -2 v 1 h -2 v 1 h -2 v 1 h -2 v 1 h -2 v 1 h -2 v 1 h -2 v 1 h -3 v 1 h -2 v 1 h -2 v 1 h -2 v 1 h -2 v 1 h -2 v 1 h -2 v 1 h -2 v 1 h -2 v 1 h -2 v 1 h -3 v 1 h -2 v 1 h -2 v 1 h -2 v 1 h -2 v 1 h -2 v 1 h -3 v 1 h -2 v 1 h -2 v 1 h -2 v 1 h -3 v 1 h -2 v 1 h -2 v 1 h -3 v 1 h -2 v 1 h -2 v 1 h -2 v 1 h -3 v 1 h -2 v 1 h -2 v 1 h -3 v 1 h -2 v 1 h -2 v 1 h -2 v 1 h -3 v 1 h -2 v 1 h -2 v 1 h -3 v 1 h -2 v 1 h -2 v 1 h -3 v 1 h -2 v 1 h -3 v 1 h -2 v 1 h -3 v 1 h -2 v 1 h -3 v 1 h -2 v 1 h -3 v 1 h -2 v 1 h -3 v 1 h -2 v 1 h -3 v 1 h -2 v 1 h -2 v 1 h -3 v 1 h -2 v 1 h -3 v 1 h -2 v 1 h -3 v 1 h -2 v 1 h -3 v 1 h -3 v 1 h -2 v 1 h -3 v 1 h -3 v 1 h -2 v 1 h -3 v 1 h -2 v 1 h -3 v 1 h -3 v 1 h -3 v 1 h -2 v 1 h -3 v 1 h -3 v 1 h -2 v 1 h -3 v 1 h -2 v 1 h -3 v 1 h -3 v 1 h -3 v 1 h -2 v 1 h -3 v 1 h -3 v 1 h -2 v 1 h -3 v 1 h -3 v 1 h -3 v 1 h -3 v 1 h -3 v 1 h -3 v 1 h -2 v 1 h -3 v 1 h -3 v 1 h -3 v 1 h -3 v 1 h -3 v 1 h -3 v 1 h -3 v 1 h -2 v 1 h -3 v 1 h -3 v 1 h -3 v 1 h -3 v 1 h -3 v 1 h -3 v 1 h -3 v 1 h -3 v 1 h -3 v 1 h -3 v 1 h -3 v 1 h -3 v 1 h -3 v 1 h -3 v 1 h -3 v 1 h -4 v 1 h -3 v 1 h -3 v 1 h -3 v 1 h -3 v 1 h -3 v 1 h -3 v 1 h -3 v 1 h -3 v 1 h -3 v 1 h -3 v 1 h -4 v 1 h -3 v 1 h -3 v 1 h -3 v 1 h -4 v 1 h -3 v 1 h -3 v 1 h -4 v 1 h -3 v 1 h -3 v 1 h -3 v 1 h -4 v 1 h -3 v 1 h -3 v 1 h -4 v 1 h -3 v 1 h -3 v 1 h -3 v 1 h -4 v 1 h -3 v 1 h -3 v 1 h -4 v 1 h -3 v 1 h -4 v 1 h -3 v 1 h -4 v 1 h -3 v 1 h -4 v 1 h -3 v 1 h -4 v 1 h -3 v 1 h -4 v 1 h -3 v 1 h -4 v 1 h -3 v 1 h -4 v 1 h -3 v 1 h -4 v 1 h -3 v 1 h -4 v 1 h -4 v 1 h -3 v 1 h -4 v 1 h -4 v 1 h -3 v 1 h -4 v 1 h -4 v 1 h -3 v 1 h -4 v 1 h -4 v 1 h -3 v 1 h -4 v 1 h -4 v 1 h -4 v 1 h -3 v 1 h -4 v 1 h -4 v 1 h -3 v 1 h -4 v 1 h -4 v 1 h -4 v 1 h -4 v 1 h -4 v 1 h -4 v 1 h -3 v 1 h -4 v 1 h -4 v 1 h -4 v 1 h -4 v 1 h -4 v 1 h -4 v 1 h -4 v 1 h -4 v 1 h -3 v 1 h -4 v 1 h -4 v 1 h -4 v 1 h -4 v 1 h -4 v 1 h -4 v 1 h -4 v 1 h -4 v 1 h -4 v 1 h -5 v 1 h -4 v 1 h -4 v 1 h -4 v 1 h -4 v 1 h -4 v 1 h -4 v 1 h -4 v 1 h -4 v 1 h -4 v 1 h -4 v 1 h -4 v 1 h -5 v 1 h -4 v 1 h -4 v 1 h -4 v 1 h -5 v 1 h -4 v 1 h -4 v 1 h -4 v 1 h -5 v 1 h -4 v 1 h -4 v 1 h -4 v 1 h -5 v 1 h -4 v 1 h -4 v 1 h -4 v 1 h -5 v 1 h -4 v 1 h -4 v 1 h -4 v 1 h -5 v 1 h -4 v 1 h -5 v 1 h -4 v 1 h -4 v 1 h -5 v 1 h -4 v 1 h -5 v 1 h -4 v 1 h -4 v 1 h -5 v 1 h -4 v 1 h -5 v 1 h -4 v 1 h -4 v 1 h -5 v 1 h -4 v 1 h -5 v 1 h -4 v 1 h -5 v 1 h -4 v 1 h -5 v 1 h -4 v 1 h -5 v 1 h -6 v 1 h -5 v 1 h -5 v 1 h -5 v 1 h -5 v 1 h -5 v 1 h -5 v 1 h -5 v 1 h -5 v 1 h -5 v 1 h -5 v 1 h -6 v 1 h -6 v 1 h -5 v 1 h -6 v 1 h -6 v 1 h -6 v 1 h -6 v 1 h -6 v 1 h -6 v 1 h -5 v 1 h -6 v 1 h -6 v 1 h -6 v 1 h -6 v 1 h -6 v 1 h -7 v 1 h -7 v 1 h -7 v 1 h -7 v 1 h -7 v 1 h -7 v 1 h -7 v 1 h -7 v 1 h -7 v 1 h -7 v 1 h -7 v 1 h -7 v 1 h -7 v 1 h -9 v 1 h -8 v 1 h -9 v 1 h -8 v 1 h -8 v 1 h -9 v 1 h -8 v 1 h -9 v 1 h -8 v 1 h -9 v 1 h -9 v 1 h -10 v 1 h -11 v 1 h -10 v 1 h -10 v 1 h -10 v 1 h -11 v 1 h -10 v 1 h -10 v 1 h -12 v 1 h -12 v 1 h -12 v 1 h -13 v 1 h -12 v 1 h -13 v 1 h -12 v 1 h -13 v 1 h -15 v 1 h -16 v 1 h -15 v 1 h -15 v 1 h -15 v 1 h -16 v 1 h -19 v 1 h -18 v 1 h -19 v 1 h -18 v 1 h -20 v 1 h -23 v 1 h -22 v 1 h -23 v 1 h -23 v 1 h -28 v 1 h -27 v 1 h -27 v 1 h -32 v 1 h -32 v 1 h -32 v 1 h -35 v 1 h -35 v 1 h -36 v 1 h -35 v 1 h -35 v 1 h -33 v 1 h -34 v 1 h -28 v 1 h -28 v 1 h -27 v 1 h -24 v 1 h -24 v 1 h -8 v -1 h 5 v -1 h 5 v -1 h 5 v -1 h 4 v -1 h 5 v -1 h 5 v -1 h 5 v -1 h 5 v -1 h 5 v -1 h 5 v -1 h 5 v -1 h 5 v -1 h 6 v -1 h 5 v -1 h 5 v -1 h 5 v -1 h 5 v -1 h 5 v -1 h 6 v -1 h 5 v -1 h 5 v -1 h 5 v -1 h 6 v -1 h 5 v -1 h 5 v -1 h 6 v -1 h 5 v -1 h 5 v -1 h 6 v -1 h 5 v -1 h 6 v -1 h 5 v -1 h 6 v -1 h 5 v -1 h 5 v -1 h 6 v -1 h 5 v -1 h 6 v -1 h 5 v -1 h 6 v -1 h 5 v -1 h 6 v -1 h 5 v -1 h 6 v -1 h 5 v -1 h 6 v -1 h 5 v -1 h 6 v -1 h 6 v -1 h 5 v -1 h 6 v -1 h 5 v -1 h 6 v -1 h 5 v -1 h 6 v -1 h 5 v -1 h 6 v -1 h 5 v -1 h 6 v -1 h 5 v -1 h 6 v -1 h 5 v -1 h 6 v -1 h 5 v -1 h 6 v -1 h 5 v -1 h 6 v -1 h 5 v -1 h 6 v -1 h 5 v -1 h 6 v -1 h 5 v -1 h 6 v -1 h 5 v -1 h 5 v -1 h 6 v -1 h 5 v -1 h 6 v -1 h 5 v -1 h 5 v -1 h 6 v -1 h 5 v -1 h 5 v -1 h 6 v -1 h 5 v -1 h 5 v -1 h 5 v -1 h 6 v -1 h 5 v -1 h 5 v -1 h 5 v -1 h 5 v -1 h 6 v -1 h 5 v -1 h 5 v -1 h 5 v -1 h 5 v -1 h 5 v -1 h 5 v -1 h 5 v -1 h 5 v -1 h 5 v -1 h 5 v -1 h 4 v -1 h 5 v -1 h 5 v -1 h 5 v -1 h 5 v -1 h 4 v -1 h 5 v -1 h 5 v -1 h 4 v -1 h 5 v -1 h 5 v -1 h 4 v -1 h 5 v -1 h 4 v -1 h 4 v -1 h 5 v -1 h 4 v -1 h 5 v -1 h 4 v -1 h 5 v -1 h 4 v -1 h 4 v -1 h 5 v -1 h 4 v -1 h 5 v -1 h 4 v -1 h 4 v -1 h 5 v -1 h 4 v -1 h 4 v -1 h 5 v -1 h 4 v -1 h 4 v -1 h 5 v -1 h 4 v -1 h 4 v -1 h 5 v -1 h 4 v -1 h 4 v -1 h 5 v -1 h 4 v -1 h 4 v -1 h 5 v -1 h 4 v -1 h 4 v -1 h 5 v -1 h 4 v -1 h 4 v -1 h 4 v -1 h 5 v -1 h 4 v -1 h 4 v -1 h 4 v -1 h 4 v -1 h 5 v -1 h 4 v -1 h 4 v -1 h 4 v -1 h 5 v -1 h 4 v -1 h 4 v -1 h 4 v -1 h 4 v -1 h 4 v -1 h 4 v -1 h 5 v -1 h 4 v -1 h 4 v -1 h 4 v -1 h 4 v -1 h 4 v -1 h 4 v -1 h 4 v -1 h 5 v -1 h 4 v -1 h 4 v -1 h 4 v -1 h 4 v -1 h 4 v -1 h 4 v -1 h 4 v -1 h 4 v -1 h 4 v -1 h 4 v -1 h 4 v -1 h 4 v -1 h 4 v -1 h 4 v -1 h 4 v -1 h 4 v -1 h 4 v -1 h 4 v -1 h 3 v -1 h 4 v -1 h 4 v -1 h 4 v -1 h 4 v -1 h 4 v -1 h 4 v -1 h 4 v -1 h 3 v -1 h 4 v -1 h 4 v -1 h 4 v -1 h 4 v -1 h 4 v -1 h 4 v -1 h 3 v -1 h 4 v -1 h 4 v -1 h 4 v -1 h 3 v -1 h 4 v -1 h 4 v -1 h 4 v -1 h 3 v -1 h 4 v -1 h 4 v -1 h 4 v -1 h 3 v -1 h 4 v -1 h 4 v -1 h 3 v -1 h 4 v -1 h 4 v -1 h 3 v -1 h 4 v -1 h 3 v -1 h 4 v -1 h 4 v -1 h 3 v -1 h 4 v -1 h 3 v -1 h 4 v -1 h 4 v -1 h 3 v -1 h 4 v -1 h 3 v -1 h 4 v -1 h 3 v -1 h 4 v -1 h 3 v -1 h 4 v -1 h 3 v -1 h 4 v -1 h 3 v -1 h 4 v -1 h 3 v -1 h 4 v -1 h 3 v -1 h 3 v -1 h 4 v -1 h 3 v -1 h 4 v -1 h 3 v -1 h 4 v -1 h 3 v -1 h 3 v -1 h 4 v -1 h 3 v -1 h 3 v -1 h 3 v -1 h 4 v -1 h 3 v -1 h 3 v -1 h 4 v -1 h 3 v -1 h 3 v -1 h 4 v -1 h 3 v -1 h 3 v -1 h 4 v -1 h 3 v -1 h 3 v -1 h 3 v -1 h 3 v -1 h 3 v -1 h 4 v -1 h 3 v -1 h 3 v -1 h 3 v -1 h 3 v -1 h 3 v -1 h 4 v -1 h 3 v -1 h 3 v -1 h 3 v -1 h 3 v -1 h 3 v -1 h 4 v -1 h 3 v -1 h 3 v -1 h 3 v -1 h 3 v -1 h 3 v -1 h 3 v -1 h 3 v -1 h 3 v -1 h 3 v -1 h 3 v -1 h 3 v -1 h 3 v -1 h 3 v -1 h 3 v -1 h 3 v -1 h 3 v -1 h 3 v -1 h 3 v -1 h 3 v -1 h 3 v -1 h 2 v -1 h 3 v -1 h 3 v -1 h 3 v -1 h 3 v -1 h 3 v -1 h 3 v -1 h 3 v -1 h 2 v -1 h 3 v -1 h 3 v -1 h 3 v -1 h 3 v -1 h 3 v -1 h 3 v -1 h 3 v -1 h 2 v -1 h 3 v -1 h 3 v -1 h 3 v -1 h 2 v -1 h 3 v -1 h 3 v -1 h 3 v -1 h 2 v -1 h 3 v -1 h 3 v -1 h 3 v -1 h 2 v -1 h 3 v -1 h 3 v -1 h 3 v -1 h 2 v -1 h 3 v -1 h 3 v -1 h 2 v -1 h 3 v -1 h 3 v -1 h 2 v -1 h 3 v -1 h 2 v -1 h 3 v -1 h 3 v -1 h 2 v -1 h 3 v -1 h 2 v -1 h 3 v -1 h 3 v -1 h 2 v -1 h 3 v -1 h 3 v -1 h 2 v -1 h 3 v -1 h 2 v -1 h 3 v -1 h 2 v -1 h 3 v -1 h 2 v -1 h 3 v -1 h 2 v -1 h 3 v -1 h 2 v -1 h 3 v -1 h 2 v -1 h 3 v -1 h 2 v -1 h 3 v -1 h 2 v -1 h 3 v -1 h 2 v -1 h 3 v -1 h 2 v -1 h 3 v -1 h 2 v -1 h 3 v -1 h 2 v -1 h 2 v -1 h 3 v -1 h 2 v -1 h 3 v -1 h 2 v -1 h 2 v -1 h 3 v -1 h 2 v -1 h 2 v -1 h 3 v -1 h 2 v -1 h 2 v -1 h 3 v -1 h 2 v -1 h 2 v -1 h 3 v -1 h 2 v -1 h 2 v -1 h 3 v -1 h 2 v -1 h 2 v -1 h 3 v -1 h 2 v -1 h 2 v -1 h 2 v -1 h 3 v -1 h 2 v -1 h 2 v -1 h 2 v -1 h 2 v -1 h 3 v -1 h 2 v -1 h 2 v -1 h 2 v -1 h 3 v -1 h 2 v -1 h 2 v -1 h 2 v -1 h 2 v -1 h 3 v -1 h 2 v -1 h 2 v -1 h 2 v -1 h 2 v -1 h 2 v -1 h 2 v -1 h 2 v -1 h 2 v -1 h 2 v -1 h 2 v -1 h 3 v -1 h 2 v -1 h 2 v -1 h 2 v -1 h 2 v -1 h 2 v -1 h 2 v -1 h 2 v -1 h 2 v -1 h 2 v -1 h 2 v -1 h 2 v -1 h 2 v -1 h 2 v -1 h 2 v -1 h 2 v -1 h 2 v -1 h 2 v -1 h 2 v -1 h 2 v -1 h 1 v -1 h 2 v -1 h 2 v -1 h 2 v -1 h 2 v -1 h 2 v -1 h 2 v -1 h 2 v -1 h 2 v -1 h 2 v -1 h 2 v -1 h 1 v -1 h 2 v -1 h 2 v -1 h 2 v -1 h 1 v -1 h 2 v -1 h 2 v -1 h 2 v -1 h 1 v -1 h 2 v -1 h 2 v -1 h 2 v -1 h 1 v -1 h 2 v -1 h 2 v -1 h 2 v -1 h 1 v -1 h 2 v -1 h 2 v -1 h 2 v -1 h 1 v -1 h 2 v -1 h 1 v -1 h 2 v -1 h 2 v -1 h 1 v -1 h 2 v -1 h 1 v -1 h 2 v -1 h 2 v -1 h 1 v -1 h 2 v -1 h 1 v -1 h 2 v -1 h 1 v -1 h 2 v -1 h 2 v -1 h 1 v -1 h 2 v -1 h 1 v -1 h 2 v -1 h 1 v -1 h 2 v -1 h 1 v -1 h 1 v -1 h 2 v -1 h 1 v -1 h 2 v -1 h 1 v -1 h 1 v -1 h 2 v -1 h 1 v -1 h 2 v -1 h 1 v -1 h 1 v -1 h 2 v -1 h 1 v -1 h 2 v -1 h 1 v -1 h 1 v -1 h 2 v -1 h 1 v -1 h 1 v -1 h 1 v -1 h 2 v -1 h 1 v -1 h 1 v -1 h 1 v -1 h 1 v -1 h 2 v -1 h 1 v -1 h 1 v -1 h 1 v -1 h 2 v -1 h 1 v -1 h 1 v -1 h 1 v -1 h 2 v -1 h 1 v -1 h 1 v -1 h 1 v -1 h 1 v -1 h 1 v -1 h 1 v -1 h 1 v -1 h 1 v -1 h 1 v -1 h 1 v -1 h 2 v -1 h 1 v -1 h 1 v -1 h 1 v -1 h 1 v -1 h 1 v -1 h 1 v -1 h 1 v -1 h 1 v -1 h 1 v -1 h 1 v -1 h 1 v -1 h 1 v -1 h 1 v -1 h 1 v -1 h 1 v -1 h 1 v -2 h 1 v -1 h 1 v -1 h 1 v -1 h 1 v -1 h 1 v -1 h 1 v -1 h 1 v -1 h 1 v -2 h 1 v -1 h 1 v -1 h 1 v -1 h 1 v -1 h 1 v -1 h 1 v -2 h 1 v -1 h 1 v -1 h 1 v -2 h 1 v -1 h 1 v -1 h 1 v -2 h 1 v -1 h 1 v -2 h 1 v -1 h 1 v -1 h 1 v -2 h 1 v -1 h 1 v -1 h 1 v -2 h 1 v -2 h 1 v -1 h 1 v -2 h 1 v -2 h 1 v -2 h 1 v -1 h 1 v -2 h 1 v -2 h 1 v -2 h 1 v -1 h 1 v -2 h 1 v -2 h 1 v -2 h 1 v -3 h 1 v -2 h 1 v -3 h 1 v -2 h 1 v -2 h 1 v -3 h 1 v -2 h 1 v -2 h 1 v -4 h 1 v -3 h 1 v -4 h 1 v -3 h 1 v -3 h 1 v -4 h 1 v -5 h 1 v -6 h 1 v -6 h 1 v -6 h 1 v -12 h 1 v -29 h -1 v -10 h -1 v -8 h -1 v -7 h -1 v -4 h -1 v -4 h -1 v -4 h -1 v -5 h -1 v -3 h -1 v -3 h -1 v -3 h -1 v -3 h -1 v -3 h -1 v -3 h -1 v -2 h -1 v -2 h -1 v -3 h -1 v -2 h -1 v -2 h -1 v -2 h -1 v -2 h -1 v -3 h -1 v -2 h -1 v -1 h -1 v -2 h -1 v -2 h -1 v -2 h -1 v -1 h -1 v -2 h -1 v -2 h -1 v -2 h -1 v -2 h -1 v -1 h -1 v -1 h -1 v -2 h -1 v -1 h -1 v -2 h -1 v -1 h -1 v -2 h -1 v -1 h -1 v -2 h -1 v -1 h -1 v -2 h -1 v -1 h -1 v -1 h -1 v -1 h -1 v -2 h -1 v -1 h -1 v -1 h -1 v -1 h -1 v -1 h -1 v -2 h -1 v -1 h -1 v -1 h -1 v -1 h -1 v -2 h -1 v -1 h -1 v -1 h -1 v -1 h -1 v -1 h -1 v -1 h -1 v -1 h -1 v -1 h -1 v -1 h -1 v -1 h -1 v -1 h -1 v -1 h -1 v -1 h -1 v -2 h -1 v -1 h -1 v -1 h -1 v -1 h -1 v -1 h -1 v -1 h -1 v -1 h -1 v -1 h -2 v -1 h -1 v -1 h -1 v -1 h -1 v -1 h -1 v -1 h -1 v -1 h -1 v -1 h -1 v -1 h -1 v -1 h -1 v -1 h -1 v -1 h -2 v -1 h -1 v -1 h -1 v -1 h -1 v -1 h -1 v -1 h -1 v -1 h -2 v -1 h -1 v -1 h -1 v -1 h -1 v -1 h -2 v -1 h -1 v -1 h -1 v -1 h -1 v -1 h -1 v -1 h -2 v -1 h -1 v -1 h -1 v -1 h -1 v -1 h -2 v -1 h -1 v -1 h -2 v -1 h -1 v -1 h -1 v -1 h -2 v -1 h -1 v -1 h -1 v -1 h -2 v -1 h -1 v -1 h -2 v -1 h -1 v -1 h -1 v -1 h -2 v -1 h -1 v -1 h -2 v -1 h -1 v -1 h -2 v -1 h -1 v -1 h -2 v -1 h -1 v -1 h -2 v -1 h -1 v -1 h -2 v -1 h -1 v -1 h -2 v -1 h -1 v -1 h -2 v -1 h -1 v -1 h -2 v -1 h -1 v -1 h -2 v -1 h -2 v -1 h -1 v -1 h -2 v -1 h -1 v -1 h -2 v -1 h -2 v -1 h -1 v -1 h -2 v -1 h -2 v -1 h -1 v -1 h -2 v -1 h -2 v -1 h -1 v -1 h -2 v -1 h -2 v -1 h -2 v -1 h -1 v -1 h -2 v -1 h -2 v -1 h -2 v -1 h -2 v -1 h -1 v -1 h -2 v -1 h -2 v -1 h -2 v -1 h -2 v -1 h -1 v -1 h -2 v -1 h -2 v -1 h -2 v -1 h -2 v -1 h -2 v -1 h -2 v -1 h -1 v -1 h -2 v -1 h -2 v -1 h -2 v -1 h -2 v -1 h -2 v -1 h -2 v -1 h -2 v -1 h -2 v -1 h -2 v -1 h -2 v -1 h -2 v -1 h -2 v 1 h -3 v 1 h -3 v 1 h -3 v 1 h -3 v 1 h -3 v 1 h -3 v 1 h -2 v 1 h -3 v 1 h -3 v 1 h -4 v 1 h -2 v 1 h 1 v 1 h 2 v 1 h 2 v 1 h 2 v 1 h 2 v 1 h 2 v 1 h 2 v 1 h 2 v 1 h 2 v 1 h 2 v 1 h 2 v 1 h 2 v 1 h 2 v 1 h 2 v 1 h 2 v 1 h 2 v 1 h 2 v 1 h 2 v 1 h 2 v 1 h 2 v 1 h 1 v 1 h 2 v 1 h 2 v 1 h 2 v 1 h 2 v 1 h 2 v 1 h 2 v 1 h 1 v 1 h 2 v 1 h 2 v 1 h 2 v 1 h 2 v 1 h 1 v 1 h 2 v 1 h 2 v 1 h 1 v 1 h 2 v 1 h 2 v 1 h 2 v 1 h 1 v 1 h 2 v 1 h 2 v 1 h 2 v 1 h 1 v 1 h 2 v 1 h 2 v 1 h 1 v 1 h 2 v 1 h 1 v 1 h 2 v 1 h 2 v 1 h 1 v 1 h 2 v 1 h 1 v 1 h 2 v 1 h 2 v 1 h 1 v 1 h 2 v 1 h 1 v 1 h 2 v 1 h 1 v 1 h 2 v 1 h 1 v 1 h 2 v 1 h 1 v 1 h 2 v 1 h 1 v 1 h 2 v 1 h 1 v 1 h 2 v 1 h 1 v 1 h 1 v 1 h 2 v 1 h 1 v 1 h 2 v 1 h 1 v 1 h 2 v 1 h 1 v 1 h 1 v 1 h 2 v 1 h 1 v 1 h 1 v 1 h 2 v 1 h 1 v 1 h 1 v 1 h 2 v 1 h 1 v 1 h 1 v 1 h 2 v 1 h 1 v 1 h 1 v 1 h 2 v 1 h 1 v 1 h 1 v 1 h 1 v 1 h 1 v 1 h 2 v 1 h 1 v 1 h 1 v 1 h 1 v 1 h 1 v 1 h 2 v 1 h 1 v 1 h 1 v 1 h 1 v 1 h 1 v 1 h 1 v 1 h 2 v 1 h 1 v 1 h 1 v 1 h 1 v 1 h 1 v 1 h 1 v 1 h 1 v 1 h 1 v 1 h 1 v 1 h 1 v 1 h 1 v 1 h 1 v 1 h 1 v 1 h 2 v 1 h 1 v 1 h 1 v 1 h 1 v 1 h 1 v 1 h 1 v 2 h 1 v 1 h 1 v 1 h 1 v 1 h 1 v 1 h 1 v 1 h 1 v 1 h 1 v 1 h 1 v 1 h 1 v 1 h 1 v 1 h 1 v 1 h 1 v 1 h 1 v 2 h 1 v 1 h 1 v 1 h 1 v 1 h 1 v 1 h 1 v 2 h 1 v 1 h 1 v 1 h 1 v 1 h 1 v 2 h 1 v 1 h 1 v 1 h 1 v 1 h 1 v 2 h 1 v 1 h 1 v 2 h 1 v 1 h 1 v 2 h 1 v 1 h 1 v 1 h 1 v 2 h 1 v 1 h 1 v 2 h 1 v 1 h 1 v 2 h 1 v 2 h 1 v 1 h 1 v 2 h 1 v 2 h 1 v 2 h 1 v 2 h 1 v 1 h 1 v 2 h 1 v 2 h 1 v 2 h 1 v 2 h 1 v 3 h 1 v 2 h 1 v 2 h 1 v 3 h 1 v 2 h 1 v 2 h 1 v 4 h 1 v 3 h 1 v 3 h 1 v 4 h 1 v 3 h 1 v 5 h 1 v 5 h 1 v 6 h 1 v 10 h 1 v 19 h -1 v 11 h -1 v 5 h -1 v 4 h -1 v 5 h -1 v 5 h -1 v 3 h -1 v 3 h -1 v 3 h -1 v 3 h -1 v 3 h -1 v 3 h -1 v 2 h -1 v 3 h -1 v 2 h -1 v 2 h -1 v 2 h -1 v 2 h -1 v 2 h -1 v 2 h -1 v 2 h -1 v 2 h -1 v 2 h -1 v 2 h -1 v 2 h -1 v 1 h -1 v 2 h -1 v 1 h -1 v 2 h -1 v 2 h -1 v 1 h -1 v 2 h -1 v 1 h -1 v 2 h -1 v 1 h -1 v 2 h -1 v 1 h -1 v 2 h -1 v 1 h -1 v 1 h -1 v 2 h -1 v 1 h -1 v 1 h -1 v 1 h -1 v 2 h -1 v 1 h -1 v 1 h -1 v 1 h -1 v 2 h -1 v 1 h -1 v 1 h -1 v 2 h -1 v 1 h -1 v 1 h -1 v 1 h -1 v 1 h -1 v 1 h -1 v 1 h -1 v 1 h -1 v 1 h -1 v 1 h -1 v 1 h -1 v 2 h -1 v 1 h -1 v 1 h -1 v 1 h -1 v 1 h -1 v 1 h -1 v 1 h -1 v 1 h -1 v 1 h -1 v 1 h -1 v 1 h -1 v 1 h -1 v 1 h -1 v 1 h -1 v 1 h -1 v 1 h -1 v 1 h -2 v 1 h -1 v 1 h -1 v 1 h -1 v 1 h -1 v 1 h -1 v 1 h -1 v 1 h -1 v 1 h -1 v 1 h -1 v 1 h -1 v 1 h -1 v 1 h -2 v 1 h -1 v 1 h -1 v 1 h -1 v 1 h -1 v 1 h -2 v 1 h -1 v 1 h -1 v 1 h -1 v 1 h -2 v 1 h -1 v 1 h -1 v 1 h -1 v 1 h -1 v 1 h -2 v 1 h -1 v 1 h -1 v 1 h -1 v 1 h -2 v 1 h -1 v 1 h -1 v 1 h -2 v 1 h -1 v 1 h -1 v 1 h -2 v 1 h -1 v 1 h -1 v 1 h -2 v 1 h -1 v 1 h -2 v 1 h -1 v 1 h -1 v 1 h -2 v 1 h -1 v 1 h -1 v 1 h -2 v 1 h -1 v 1 h -2 v 1 h -1 v 1 h -1 v 1 h -2 v 1 h -1 v 1 h -2 v 1 h -1 v 1 h -2 v 1 h -2 v 1 h -1 v 1 h -2 v 1 h -1 v 1 h -2 v 1 h -1 v 1 h -2 v 1 h -1 v 1 h -2 v 1 h -1 v 1 h -2 v 1 h -1 v 1 h -2 v 1 h -1 v 1 h -2 v 1 h -2 v 1 h -1 v 1 h -2 v 1 h -2 v 1 h -1 v 1 h -2 v 1 h -2 v 1 h -1 v 1 h -2 v 1 h -2 v 1 h -1 v 1 h -2 v 1 h -2 v 1 h -1 v 1 h -2 v 1 h -2 v 1 h -1 v 1 h -2 v 1 h -2 v 1 h -2 v 1 h -2 v 1 h -1 v 1 h -2 v 1 h -2 v 1 h -2 v 1 h -2 v 1 h -2 v 1 h -1 v 1 h -2 v 1 h -2 v 1 h -2 v 1 h -2 v 1 h -1 v 1 h -2 v 1 h -2 v 1 h -2 v 1 h -2 v 1 h -2 v 1 h -2 v 1 h -2 v 1 h -2 v 1 h -2 v 1 h -2 v 1 h -2 v 1 h -2 v 1 h -2 v 1 h -2 v 1 h -1 v 1 h -2 v 1 h -2 v 1 h -2 v 1 h -2 v 1 h -2 v 1 h -2 v 1 h -2 v 1 h -2 v 1 h -2 v 1 h -3 v 1 h -2 v 1 h -2 v 1 h -2 v 1 h -2 v 1 h -2 v 1 h -2 v 1 h -2 v 1 h -2 v 1 h -3 v 1 h -2 v 1 h -2 v 1 h -2 v 1 h -2 v 1 h -2 v 1 h -2 v 1 h -2 v 1 h -3 v 1 h -2 v 1 h -2 v 1 h -2 v 1 h -3 v 1 h -2 v 1 h -2 v 1 h -3 v 1 h -2 v 1 h -2 v 1 h -2 v 1 h -3 v 1 h -2 v 1 h -2 v 1 h -2 v 1 h -3 v 1 h -2 v 1 h -2 v 1 h -3 v 1 h -2 v 1 h -2 v 1 h -3 v 1 h -2 v 1 h -3 v 1 h -2 v 1 h -2 v 1 h -3 v 1 h -2 v 1 h -3 v 1 h -2 v 1 h -2 v 1 h -3 v 1 h -2 v 1 h -3 v 1 h -2 v 1 h -3 v 1 h -2 v 1 h -3 v 1 h -2 v 1 h -3 v 1 h -2 v 1 h -3 v 1 h -2 v 1 h -3 v 1 h -2 v 1 h -3 v 1 h -3 v 1 h -2 v 1 h -3 v 1 h -2 v 1 h -3 v 1 h -2 v 1 h -3 v 1 h -2 v 1 h -3 v 1 h -3 v 1 h -2 v 1 h -3 v 1 h -3 v 1 h -3 v 1 h -2 v 1 h -3 v 1 h -3 v 1 h -2 v 1 h -3 v 1 h -3 v 1 h -2 v 1 h -3 v 1 h -3 v 1 h -3 v 1 h -2 v 1 h -3 v 1 h -3 v 1 h -3 v 1 h -2 v 1 h -3 v 1 h -3 v 1 h -3 v 1 h -3 v 1 h -3 v 1 h -2 v 1 h -3 v 1 h -3 v 1 h -3 v 1 h -3 v 1 h -3 v 1 h -3 v 1 h -2 v 1 h -3 v 1 h -3 v 1 h -3 v 1 h -3 v 1 h -3 v 1 h -3 v 1 h -3 v 1 h -3 v 1 h -3 v 1 h -3 v 1 h -3 v 1 h -3 v 1 h -3 v 1 h -3 v 1 h -3 v 1 h -3 v 1 h -3 v 1 h -3 v 1 h -3 v 1 h -3 v 1 h -3 v 1 h -3 v 1 h -3 v 1 h -3 v 1 h -3 v 1 h -3 v 1 h -4 v 1 h -3 v 1 h -3 v 1 h -3 v 1 h -3 v 1 h -3 v 1 h -3 v 1 h -3 v 1 h -4 v 1 h -3 v 1 h -3 v 1 h -3 v 1 h -3 v 1 h -4 v 1 h -3 v 1 h -3 v 1 h -3 v 1 h -4 v 1 h -3 v 1 h -3 v 1 h -3 v 1 h -4 v 1 h -3 v 1 h -3 v 1 h -3 v 1 h -4 v 1 h -3 v 1 h -3 v 1 h -3 v 1 h -4 v 1 h -3 v 1 h -4 v 1 h -3 v 1 h -3 v 1 h -4 v 1 h -3 v 1 h -4 v 1 h -3 v 1 h -3 v 1 h -4 v 1 h -3 v 1 h -4 v 1 h -3 v 1 h -3 v 1 h -4 v 1 h -3 v 1 h -4 v 1 h -3 v 1 h -4 v 1 h -3 v 1 h -4 v 1 h -3 v 1 h -4 v 1 h -3 v 1 h -4 v 1 h -3 v 1 h -4 v 1 h -4 v 1 h -3 v 1 h -4 v 1 h -3 v 1 h -4 v 1 h -3 v 1 h -4 v 1 h -3 v 1 h -4 v 1 h -4 v 1 h -3 v 1 h -4 v 1 h -4 v 1 h -3 v 1 h -4 v 1 h -4 v 1 h -3 v 1 h -4 v 1 h -4 v 1 h -3 v 1 h -4 v 1 h -4 v 1 h -3 v 1 h -4 v 1 h -4 v 1 h -4 v 1 h -3 v 1 h -4 v 1 h -4 v 1 h -4 v 1 h -4 v 1 h -3 v 1 h -4 v 1 h -4 v 1 h -4 v 1 h -4 v 1 h -3 v 1 h -4 v 1 h -4 v 1 h -4 v 1 h -4 v 1 h -3 v 1 h -4 v 1 h -4 v 1 h -4 v 1 h -4 v 1 h -4 v 1 h -4 v 1 h -4 v 1 h -4 v 1 h -4 v 1 h -4 v 1 h -4 v 1 h -3 v 1 h -4 v 1 h -4 v 1 h -4 v 1 h -4 v 1 h -4 v 1 h -4 v 1 h -4 v 1 h -4 v 1 h -4 v 1 h -4 v 1 h -4 v 1 h -4 v 1 h -4 v 1 h -5 v 1 h -4 v 1 h -4 v 1 h -4 v 1 h -4 v 1 h -4 v 1 h -4 v 1 h -4 v 1 h -4 v 1 h -4 v 1 h -4 v 1 h -4 v 1 h -5 v 1 h -4 v 1 h -4 v 1 h -4 v 1 h -4 v 1 h -4 v 1 h -5 v 1 h -4 v 1 h -4 v 1 h -4 v 1 h -4 v 1 h -4 v 1 h -5 v 1 h -4 v 1 h -4 v 1 h -4 v 1 h -5 v 1 h -4 v 1 h -4 v 1 h -5 v 1 h -4 v 1 h -4 v 1 h -4 v 1 h -5 v 1 h -4 v 1 h -4 v 1 h -5 v 1 h -4 v 1 h -4 v 1 h -4 v 1 h -5 v 1 h -4 v 1 h -4 v 1 h -5 v 1 h -4 v 1 h -5 v 1 h -4 v 1 h -4 v 1 h -5 v 1 h -4 v 1 h -4 v 1 h -5 v 1 h -4 v 1 h -5 v 1 h -4 v 1 h -5 v 1 h -4 v 1 h -4 v 1 h -5 v 1 h -4 v 1 h -5 v 1 h -4 v 1 h -5 v 1 h -5 v 1 h -4 v 1 h -5 v 1 h -4 v 1 h -5 v 1 h -4 v 1 h -5 v 1 h -5 v 1 h -4 v 1 h -5 v 1 h -5 v 1 h -4 v 1 h -5 v 1 h -5 v 1 h -5 v 1 h -5 v 1 h -4 v 1 h -5 v 1 h -5 v 1 h -5 v 1 h -5 v 1 h -5 v 1 h -5 v 1 h -4 v 1 h -5 v 1 h -5 v 1 h -5 v 1 h -5 v 1 h -5 v 1 h -5 v 1 h -6 v 1 h -5 v 1 h -5 v 1 h -5 v 1 h -5 v 1 h -5 v 1 h -5 v 1 h -6 v 1 h -5 v 1 h -5 v 1 h -5 v 1 h -6 v 1 h -5 v 1 h -5 v 1 h -5 v 1 h -6 v 1 h -5 v 1 h -5 v 1 h -6 v 1 h -5 v 1 h -6 v 1 h -5 v 1 h -5 v 1 h -6 v 1 h -5 v 1 h -6 v 1 h -5 v 1 h -5 v 1 h -6 v 1 h -5 v 1 h -6 v 1 h -5 v 1 h -5 v 1 h -6 v 1 h -5 v 1 h -6 v 1 h -5 v 1 h -5 v 1 h -6 v 1 h -5 v 1 h -5 v 1 h -6 v 1 h -5 v 1 h -5 v 1 h -6 v 1 h -5 v 1 h -5 v 1 h -5 v 1 h -6 v 1 h -5 v 1 h -5 v 1 h -5 v 1 h -5 v 1 h -5 v 1 h -6 v 1 h -5 v 1 h -5 v 1 h -5 v 1 h -5 v 1 h -5 v 1 h -5 v 1 h -5 v 1 h -5 v 1 h -5 v 1 h -5 v 1 h -5 v 1 h -5 v 1 h -5 v 1 h -5 v 1 h -5 v 1 h -5 v 1 h -5 v 1 h -4 v 1 h -5 v 1 h -5 v 1 h -5 v 1 h -5 v 1 h -4 v 1 h -5 v 1 h -5 v 1 h -4 v 1 h -5 v 1 h -5 v 1 h -5 v 1 h -5 v 1 h -5 v 1 h -5 v 1 h -5 v 1 h -6 v 1 h -5 v 1 h -6 v 1 h -5 v 1 h -6 v 1 h -6 v 1 h -6 v 1 h -6 v 1 h -6 v 1 h -7 v 1 h -6 v 1 h -7 v 1 h -6 v 1 h -7 v 1 h -7 v 1 h -7 v 1 h -7 v 1 h -7 v 1 h 107 v -1 h 31 v -1 h 31 v -1 h 33 v -1 h 41 v -1 h 42 v -1 h 50 v -1 h 51 v -1 h 54 v -1 h 50 v -1 h 47 v -1 h 42 v -1 h 38 v -1 h 34 v -1 h 33 v -1 h 27 v -1 h 27 v -1 h 26 v -1 h 23 v -1 h 20 v -1 h 21 v -1 h 21 v -1 h 19 v -1 h 16 v -1 h 17 v -1 h 16 v -1 h 16 v -1 h 17 v -1 h 14 v -1 h 13 v -1 h 13 v -1 h 13 v -1 h 14 v -1 h 13 v -1 h 13 v -1 h 11 v -1 h 11 v -1 h 11 v -1 h 11 v -1 h 11 v -1 h 11 v -1 h 11 v -1 h 11 v -1 h 10 v -1 h 9 v -1 h 9 v -1 h 9 v -1 h 9 v -1 h 9 v -1 h 9 v -1 h 10 v -1 h 9 v -1 h 9 v -1 h 8 v -1 h 8 v -1 h 8 v -1 h 8 v -1 h 8 v -1 h 7 v -1 h 8 v -1 h 8 v -1 h 8 v -1 h 7 v -1 h 8 v -1 h 8 v -1 h 7 v -1 h 7 v -1 h 7 v -1 h 6 v -1 h 7 v -1 h 7 v -1 h 6 v -1 h 7 v -1 h 7 v -1 h 6 v -1 h 7 v -1 h 7 v -1 h 6 v -1 h 7 v -1 h 7 v -1 h 6 v -1 h 6 v -1 h 6 v -1 h 5 v -1 h 6 v -1 h 6 v -1 h 6 v -1 h 6 v -1 h 6 v -1 h 6 v -1 h 6 v -1 h 6 v -1 h 5 v -1 h 6 v -1 h 5 v -1 h 6 v -1 h 5 v -1 h 5 v -1 h 6 v -1 h 5 v -1 h 6 v -1 h 5 v -1 h 5 v -1 h 5 v -1 h 5 v -1 h 5 v -1 h 5 v -1 h 5 v -1 h 6 v -1 h 5 v -1 h 5 v -1 h 5 v -1 h 5 v -1 h 5 v -1 h 4 v -1 h 5 v -1 h 5 v -1 h 5 v -1 h 5 v -1 h 4 v -1 h 5 v -1 h 5 v -1 h 5 v -1 h 5 v -1 h 4 v -1 h 5 v -1 h 5 v -1 h 5 v -1 h 4 v -1 h 5 v -1 h 4 v -1 h 5 v -1 h 4 v -1 h 4 v -1 h 5 v -1 h 4 v -1 h 5 v -1 h 4 v -1 h 5 v -1 h 4 v -1 h 5 v -1 h 4 v -1 h 4 v -1 h 5 v -1 h 4 v -1 h 4 v -1 h 5 v -1 h 4 v -1 h 4 v -1 h 4 v -1 h 4 v -1 h 4 v -1 h 4 v -1 h 4 v -1 h 5 v -1 h 4 v -1 h 4 v -1 h 4 v -1 h 4 v -1 h 4 v -1 h 4 v -1 h 5 v -1 h 3 v -1 h 4 v -1 h 4 v -1 h 4 v -1 h 4 v -1 h 4 v -1 h 3 v -1 h 4 v -1 h 4 v -1 h 4 v -1 h 4 v -1 h 4 v -1 h 3 v -1 h 4 v -1 h 4 v -1 h 4 v -1 h 4 v -1 h 4 v -1 h 3 v -1 h 4 v -1 h 3 v -1 h 4 v -1 h 4 v -1 h 3 v -1 h 4 v -1 h 3 v -1 h 4 v -1 h 4 v -1 h 3 v -1 h 4 v -1 h 3 v -1 h 4 v -1 h 3 v -1 h 4 v -1 h 4 v -1 h 3 v -1 h 4 v -1 h 3 v -1 h 3 v -1 h 4 v -1 h 3 v -1 h 3 v -1 h 4 v -1 h 3 v -1 h 3 v -1 h 4 v -1 h 3 v -1 h 3 v -1 h 4 v -1 h 3 v -1 h 3 v -1 h 4 v -1 h 3 v -1 h 3 v -1 h 4 v -1 h 3 v -1 h 3 v -1 h 3 v -1 h 3 v -1 h 4 v -1 h 3 v -1 h 3 v -1 h 3 v -1 h 3 v -1 h 3 v -1 h 3 v -1 h 3 v -1 h 3 v -1 h 4 v -1 h 3 v -1 h 3 v -1 h 3 v -1 h 3 v -1 h 3 v -1 h 3 v -1 h 3 v -1 h 3 v -1 h 3 v -1 h 3 v -1 h 3 v -1 h 3 v -1 h 3 v -1 h 3 v -1 h 3 v -1 h 2 v -1 h 3 v -1 h 3 v -1 h 3 v -1 h 3 v -1 h 3 v -1 h 3 v -1 h 3 v -1 h 3 v -1 h 3 v -1 h 3 v -1 h 2 v -1 h 3 v -1 h 3 v -1 h 3 v -1 h 2 v -1 h 3 v -1 h 3 v -1 h 3 v -1 h 2 v -1 h 3 v -1 h 3 v -1 h 2 v -1 h 3 v -1 h 3 v -1 h 3 v -1 h 2 v -1 h 3 v -1 h 3 v -1 h 2 v -1 h 3 v -1 h 3 v -1 h 2 v -1 h 3 v -1 h 3 v -1 h 2 v -1 h 3 v -1 h 2 v -1 h 3 v -1 h 2 v -1 h 3 v -1 h 2 v -1 h 3 v -1 h 2 v -1 h 3 v -1 h 3 v -1 h 2 v -1 h 3 v -1 h 2 v -1 h 3 v -1 h 2 v -1 h 3 v -1 h 2 v -1 h 3 v -1 h 2 v -1 h 3 v -1 h 2 v -1 h 2 v -1 h 3 v -1 h 2 v -1 h 3 v -1 h 2 v -1 h 2 v -1 h 3 v -1 h 2 v -1 h 2 v -1 h 3 v -1 h 2 v -1 h 2 v -1 h 3 v -1 h 2 v -1 h 2 v -1 h 3 v -1 h 2 v -1 h 3 v -1 h 2 v -1 h 2 v -1 h 3 v -1 h 2 v -1 h 2 v -1 h 2 v -1 h 2 v -1 h 3 v -1 h 2 v -1 h 2 v -1 h 2 v -1 h 2 v -1 h 3 v -1 h 2 v -1 h 2 v -1 h 2 v -1 h 2 v -1 h 3 v -1 h 2 v -1 h 2 v -1 h 2 v -1 h 2 v -1 h 3 v -1 h 2 v -1 h 2 v -1 h 2 v -1 h 2 v -1 h 2 v -1 h 2 v -1 h 2 v -1 h 2 v -1 h 2 v -1 h 2 v -1 h 2 v -1 h 3 v -1 h 2 v -1 h 2 v -1 h 2 v -1 h 2 v -1 h 2 v -1 h 2 v -1 h 2 v -1 h 2 v -1 h 2 v -1 h 2 v -1 h 2 v -1 h 2 v -1 h 2 v -1 h 2 v -1 h 2 v -1 h 2 v -1 h 2 v -1 h 2 v -1 h 2 v -1 h 2 v -1 h 1 v -1 h 2 v -1 h 2 v -1 h 2 v -1 h 2 v -1 h 2 v -1 h 2 v -1 h 2 v -1 h 2 v -1 h 2 v -1 h 1 v -1 h 2 v -1 h 2 v -1 h 2 v -1 h 2 v -1 h 2 v -1 h 2 v -1 h 2 v -1 h 1 v -1 h 2 v -1 h 2 v -1 h 2 v -1 h 1 v -1 h 2 v -1 h 2 v -1 h 2 v -1 h 2 v -1 h 1 v -1 h 2 v -1 h 2 v -1 h 2 v -1 h 1 v -1 h 2 v -1 h 2 v -1 h 2 v -1 h 1 v -1 h 2 v -1 h 2 v -1 h 2 v -1 h 1 v -1 h 2 v -1 h 2 v -1 h 2 v -1 h 1 v -1 h 2 v -1 h 1 v -1 h 2 v -1 h 2 v -1 h 1 v -1 h 2 v -1 h 2 v -1 h 1 v -1 h 2 v -1 h 2 v -1 h 1 v -1 h 2 v -1 h 1 v -1 h 2 v -1 h 2 v -1 h 1 v -1 h 2 v -1 h 2 v -1 h 1 v -1 h 2 v -1 h 1 v -1 h 2 v -1 h 2 v -1 h 1 v -1 h 2 v -1 h 1 v -1 h 2 v -1 h 1 v -1 h 2 v -1 h 1 v -1 h 2 v -1 h 1 v -1 h 2 v -1 h 1 v -1 h 2 v -1 h 1 v -1 h 2 v -1 h 1 v -1 h 2 v -1 h 1 v -1 h 2 v -1 h 1 v -1 h 2 v -1 h 1 v -1 h 2 v -1 h 1 v -1 h 2 v -1 h 1 v -1 h 2 v -1 h 1 v -1 h 1 v -1 h 2 v -1 h 1 v -1 h 1 v -1 h 2 v -1 h 1 v -1 h 2 v -1 h 1 v -1 h 1 v -1 h 2 v -1 h 1 v -1 h 2 v -1 h 1 v -1 h 1 v -1 h 2 v -1 h 1 v -1 h 1 v -1 h 2 v -1 h 1 v -1 h 2 v -1 h 1 v -1 h 1 v -1 h 2 v -1 h 1 v -1 h 1 v -1 h 2 v -1 h 1 v -1 h 1 v -1 h 1 v -1 h 2 v -1 h 1 v -1 h 1 v -1 h 1 v -1 h 2 v -1 h 1 v -1 h 1 v -1 h 1 v -1 h 2 v -1 h 1 v -1 h 1 v -1 h 2 v -1 h 1 v -1 h 1 v -1 h 1 v -1 h 2 v -1 h 1 v -1 h 1 v -1 h 1 v -1 h 2 v -1 h 1 v -1 h 1 v -1 h 1 v -1 h 1 v -1 h 1 v -1 h 1 v -1 h 2 v -1 h 1 v -1 h 1 v -1 h 1 v -1 h 1 v -1 h 1 v -1 h 2 v -1 h 1 v -1 h 1 v -1 h 1 v -1 h 1 v -1 h 1 v -1 h 1 v -1 h 2 v -1 h 1 v -1 h 1 v -1 h 1 v -1 h 1 v -1 h 1 v -1 h 1 v -1 h 2 v -1 h 1 v -1 h 1 v -1 h 1 v -1 h 1 v -1 h 1 v -1 h 1 v -1 h 1 v -1 h 1 v -1 h 1 v -1 h 1 v -1 h 1 v -1 h 1 v -1 h 1 v -1 h 1 v -1 h 1 v -1 h 1 v -1 h 1 v -1 h 1 v -1 h 1 v -1 h 1 v -1 h 1 v -1 h 1 v -1 h 1 v -1 h 2 v -1 h 1 v -1 h 1 v -2 h 1 v -1 h 1 v -1 h 1 v -1 h 1 v -1 h 1 v -1 h 1 v -1 h 1 v -1 h 1 v -1 h 1 v -1 h 1 v -1 h 1 v -1 h 1 v -1 h 1 v -1 h 1 v -2 h 1 v -1 h 1 v -1 h 1 v -1 h 1 v -1 h 1 v -1 h 1 v -1 h 1 v -1 h 1 v -1 h 1 v -1 h 1 v -1 h 1 v -2 h 1 v -1 h 1 v -1 h 1 v -1 h 1 v -1 h 1 v -2 h 1 v -1 h 1 v -1 h 1 v -1 h 1 v -1 h 1 v -2 h 1 v -1 h 1 v -1 h 1 v -1 h 1 v -1 h 1 v -2 h 1 v -1 h 1 v -1 h 1 v -1 h 1 v -1 h 1 v -2 h 1 v -1 h 1 v -1 h 1 v -2 h 1 v -1 h 1 v -1 h 1 v -2 h 1 v -1 h 1 v -2 h 1 v -1 h 1 v -1 h 1 v -2 h 1 v -1 h 1 v -1 h 1 v -2 h 1 v -1 h 1 v -1 h 1 v -2 h 1 v -1 h 1 v -2 h 1 v -1 h 1 v -2 h 1 v -1 h 1 v -2 h 1 v -1 h 1 v -2 h 1 v -1 h 1 v -2 h 1 v -2 h 1 v -1 h 1 v -2 h 1 v -1 h 1 v -2 h 1 v -2 h 1 v -1 h 1 v -2 h 1 v -1 h 1 v -2 h 1 v -2 h 1 v -2 h 1 v -1 h 1 v -2 h 1 v -2 h 1 v -2 h 1 v -2 h 1 v -2 h 1 v -2 h 1 v -2 h 1 v -2 h 1 v -1 h 1 v -2 h 1 v -2 h 1 v -2 h 1 v -2 h 1 v -3 h 1 v -2 h 1 v -2 h 1 v -2 h 1 v -3 h 1 v -2 h 1 v -2 h 1 v -3 h 1 v -2 h 1 v -2 h 1 v -3 h 1 v -2 h 1 v -3 h 1 v -3 h 1 v -3 h 1 v -3 h 1 v -3 h 1 v -3 h 1 v -3 h 1 v -3 h 1 v -3 h 1 v -4 h 1 v -4 h 1 v -4 h 1 v -5 h 1 v -4 h 1 v -4 h 1 v -5 h 1 v -6 h 1 v -7 h 1 v -7 h 1 v -7 h 1 v -14 h 1 v -35 h -1 v -15 h -1 v -13 h -1 v -6 h -1 v -6 h -1 v -6 h -1 v -5 h -1 v -6 h -1 v -6 h -1 v -6 h -1 v -6 h -1 v -3 h -1 v -3 h -1 v -4 h -1 v -3 h -1 v -4 h -1 v -3 h -1 v -4 h -1 v -3 h -1 v -4 h -1 v -3 h -1 v -4 h -1 v -3 h -1 v -3 h -1 v -3 h -1 v -3 h -1 v -2 h -1 v -2 h -1 v -3 h -1 v -2 h -1 v -3 h -1 v -2 h -1 v -3 h -1 v -2 h -1 v -2 h -1 v -3 h -1 v -2 h -1 v -3 h -1 v -2 h -1 v -3 h -1 v -2 h -1 v -2 h -1 v -3 h -1 v -2 h -1 v -2 h -1 v -2 h -1 v -2 h -1 v -1 h -1 v -2 h -1 v -2 h -1 v -2 h -1 v -2 h -1 v -2 h -1 v -2 h -1 v -1 h -1 v -2 h -1 v -2 h -1 v -2 h -1 v -2 h -1 v -2 h -1 v -2 h -1 v -1 h -1 v -2 h -1 v -2 h -1 v -2 h -1 v -2 h -1 v -2 h -1 v -2 h -1 v -1 h -1 v -2 h -1 v -1 h -1 v -2 h -1 v -1 h -1 v -2 h -1 v -1 h -1 v -2 h -1 v -1 h -1 v -2 h -1 v -1 h -1 v -2 h -1 v -1 h -1 v -2 h -1 v -1 h -1 v -2 h -1 v -1 h -1 v -2 h -1 v -1 h -1 v -2 h -1 v -1 h -1 v -2 h -1 v -1 h -1 v -2 h -1 v -1 h -1 v -2 h -1 v -1 h -1 v -2 h -1 v -1 h -1 v -2 h -1 v -1 h -1 v -2 h -1 v -1 h -1 v -1 h -1 v -2 h -1 v -1 h -1 v -1 h -1 v -1 h -1 v -2 h -1 v -1 h -1 v -1 h -1 v -1 h -1 v -2 h -1 v -1 h -1 v -1 h -1 v -1 h -1 v -2 h -1 v -1 h -1 v -1 h -1 v -1 h -1 v -2 h -1 v -1 h -1 v -1 h -1 v -2 h -1 v -1 h -1 v -1 h -1 v -1 h -1 v -2 h -1 v -1 h -1 v -1 h -1 v -1 h -1 v -2 h -1 v -1 h -1 v -1 h -1 v -1 h -1 v -2 h -1 v -1 h -1 v -1 h -1 v -1 h -1 v -1 h -1 v -2 h -1 v -1 h -1 v -1 h -1 v -1 h -1 v -1 h -1 v -1 h -1 v -1 h -1 v -1 h -1 v -1 h -1 v -1 h -1 v -2 h -1 v -1 h -1 v -1 h -1 v -1 h -1 v -1 h -1 v -1 h -1 v -1 h -1 v -1 h -1 v -1 h -1 v -2 h -1 v -1 h -1 v -1 h -1 v -1 h -1 v -1 h -1 v -1 h -1 v -1 h -1 v -1 h -1 v -1 h -1 v -2 h -1 v -1 h -1 v -1 h -1 v -1 h -1 v -1 h -1 v -1 h -1 v -1 h -1 v -1 h -1 v -1 h -1 v -1 h -1 v -1 h -1 v -1 h -1 v -1 h -1 v -1 h -1 v -1 h -1 v -1 h -1 v -1 h -1 v -1 h -1 v -1 h -1 v -1 h -1 v -1 h -1 v -1 h -1 v -1 h -1 v -1 h -1 v -1 h -1 v -1 h -2 v -1 h -1 v -1 h -1 v -1 h -1 v -1 h -1 v -1 h -1 v -1 h -1 v -1 h -1 v -1 h -1 v -1 h -1 v -1 h -1 v -1 h -1 v -1 h -1 v -1 h -1 v -1 h -1 v -1 h -1 v -1 h -1 v -1 h -2 v -1 h -1 v -1 h -1 v -1 h -1 v -1 h -1 v -1 h -1 v -1 h -1 v -1 h -1 v -1 h -1 v -1 h -2 v -1 h -1 v -1 h -1 v -1 h -1 v -1 h -1 v -1 h -1 v -1 h -1 v -1 h -2 v -1 h -1 v -1 h -1 v -1 h -1 v -1 h -1 v -1 h -1 v -1 h -1 v -1 h -2 v -1 h -1 v -1 h -1 v -1 h -1 v -1 h -1 v -1 h -1 v -1 h -2 v -1 h -1 v -1 h -1 v -1 h -1 v -1 h -1 v -1 h -1 v -1 h -1 v -1 h -2 v -1 h -1 v -1 h -1 v -1 h -1 v -1 h -1 v -1 h -1 v -1 h -2 v -1 h -1 v -1 h -1 v -1 h -2 v -1 h -1 v -1 h -1 v -1 h -1 v -1 h -2 v -1 h -1 v -1 h -1 v -1 h -1 v -1 h -2 v -1 h -1 v -1 h -1 v -1 h -1 v -1 h -2 v -1 h -1 v -1 h -1 v -1 h -1 v -1 h -2 v -1 h -1 v -1 h -1 v -1 h -1 v -1 h -2 v -1 h -1 v -1 h -1 v -1 h -1 v -1 h -2 v -1 h -1 v -1 h -1 v -1 h -2 v -1 h -1 v -1 h -1 v -1 h -1 v -1 h -2 v -1 h -1 v -1 h -1 v -1 h -2 v -1 h -1 v -1 h -2 v -1 h -1 v -1 h -1 v -1 h -2 v -1 h -1 v -1 h -1 v -1 h -2 v -1 h -1 v -1 h -2 v -1 h -1 v -1 h -1 v -1 h -2 v -1 h -1 v -1 h -1 v -1 h -2 v -1 h -1 v -1 h -2 v -1 h -1 v -1 h -1 v -1 h -2 v -1 h -1 v -1 h -1 v -1 h -2 v -1 h -1 v -1 h -2 v -1 h -1 v -1 h -1 v -1 h -2 v -1 h -1 v -1 h -2 v -1 h -1 v -1 h -1 v -1 h -2 v -1 h -1 v -1 h -2 v -1 h -1 v -1 h -2 v -1 h -1 v -1 h -2 v -1 h -1 v -1 h -2 v -1 h -1 v -1 h -2 v -1 h -1 v -1 h -2 v -1 h -1 v -1 h -2 v -1 h -1 v -1 h -2 v -1 h -1 v -1 h -2 v -1 h -1 v -1 h -2 v -1 h -1 v -1 h -2 v -1 h -1 v -1 h -2 v -1 h -1 v -1 h -2 v -1 h -1 v -1 h -1 v -1 h -2 v -1 h -1 v -1 h -2 v -1 h -2 v -1 h -1 v -1 h -2 v -1 h -1 v -1 h -2 v -1 h -2 v -1 h -1 v -1 h -2 v -1 h -1 v -1 h -2 v -1 h -2 v -1 h -1 v -1 h -2 v -1 h -1 v -1 h -2 v -1 h -2 v -1 h -1 v -1 h -2 v -1 h -1 v -1 h -2 v -1 h -2 v -1 h -1 v -1 h -2 v -1 h -1 v -1 h -2 v -1 h -2 v -1 h -1 v -1 h -2 v -1 h -1 v -1 h -2 v -1 h -2 v -1 h -1 v -1 h -2 v -1 h -2 v -1 h -1 v -1 h -2 v -1 h -2 v -1 h -2 v -1 h -1 v -1 h -2 v -1 h -2 v -1 h -1 v -1 h -2 v -1 h -2 v -1 h -2 v -1 h -1 v -1 h -2 v -1 h -2 v -1 h -1 v -1 h -2 v -1 h -2 v -1 h -2 v -1 h -1 v -1 h -2 v -1 h -2 v -1 h -1 v -1 h -2 v -1 h -2 v -1 h -2 v -1 h -1 v -1 h -2 v -1 h -2 v -1 h -1 v -1 h -2 v -1 h -2 v -1 h -2 v -1 h -2 v -1 h -1 v -1 h -2 v -1 h -2 v -1 h -2 v -1 h -2 v -1 h -2 v -1 h -1 v -1 h -2 v -1 h -2 v -1 h -2 v -1 h -2 v -1 h -2 v -1 h -1 v -1 h -2 v -1 h -2 v -1 h -2 v -1 h -2 v -1 h -2 v -1 h -1 v -1 h -2 v -1 h -2 v -1 h -2 v -1 h -2 v -1 h -2 v -1 h -2 v -1 h -1 v -1 h -2 v -1 h -2 v -1 h -2 v -1 h -2 v -1 h -2 v -1 h -2 v -1 h -2 v -1 h -2 v -1 h -2 v -1 h -2 v -1 h -1 v -1 h -2 v -1 h -2 v -1 h -2 v -1 h -2 v -1 h -2 v -1 h -2 v -1 h -2 v -1 h -2 v -1 h -2 v -1 h -2 v -1 h -2 v -1 h -2 v -1 h -2 v -1 h -2 v -1 h -2 v -1 h -2 v -1 h -2 v -1 h -2 v -1 h -2 v -1 h -2 v -1 h -2 v -1 h -2 v -1 h -2 v -1 h -2 v -1 h -2 v -1 h -2 v -1 h -2 v -1 h -2 v -1 h -2 v -1 h -2 v -1 h -2 v -1 h -2 v -1 h -2 v -1 h -2 v -1 h -2 v -1 h -3 v -1 h -2 v -1 h -2 v -1 h -2 v -1 h -2 v -1 h -2 v -1 h -2 v -1 h -2 v -1 h -2 v -1 h -2 v -1 h -2 v -1 h -3 v -1 h -2 v -1 h -2 v -1 h -2 v -1 h -2 v -1 h -2 v -1 h -2 v -1 h -2 v -1 h -2 v -1 h -3 v -1 h -2 v -1 h -2 v -1 h -2 v -1 h -2 v -1 h -3 v -1 h -2 v -1 h -2 v -1 h -2 v -1 h -3 v -1 h -2 v -1 h -2 v -1 h -2 v -1 h -2 v -1 h -3 v -1 h -2 v -1 h -2 v -1 h -2 v -1 h -2 v -1 h -3 v -1 h -2 v -1 h -2 v -1 h -2 v -1 h -3 v -1 h -2 v -1 h -2 v -1 h -2 v -1 h -2 v -1 h -3 v -1 h -2 v -1 h -2 v -1 h -3 v -1 h -2 v -1 h -2 v -1 h -3 v -1 h -2 v -1 h -2 v -1 h -3 v -1 h -2 v -1 h -3 v -1 h -2 v -1 h -2 v -1 h -3 v -1 h -2 v -1 h -2 v -1 h -3 v -1 h -2 v -1 h -2 v -1 h -3 v -1 h -2 v -1 h -2 v -1 h -3 v -1 h -2 v -1 h -3 v -1 h -2 v -1 h -2 v -1 h -3 v -1 h -2 v -1 h -2 v -1 h -3 v -1 h -2 v -1 h -3 v -1 h -2 v -1 h -3 v -1 h -2 v -1 h -3 v -1 h -2 v -1 h -3 v -1 h -2 v -1 h -3 v -1 h -2 v -1 h -3 v -1 h -2 v -1 h -3 v -1 h -2 v -1 h -3 v -1 h -2 v -1 h -3 v -1 h -2 v -1 h -3 v -1 h -2 v -1 h -3 v -1 h -2 v -1 h -3 v -1 h -2 v -1 h -3 v -1 h -2 v -1 h -3 v -1 h -3 v -1 h -2 v -1 h -3 v -1 h -3 v -1 h -2 v -1 h -3 v -1 h -3 v -1 h -2 v -1 h -3 v -1 h -2 v -1 h -3 v -1 h -3 v -1 h -2 v -1 h -3 v -1 h -3 v -1 h -2 v -1 h -3 v -1 h -3 v -1 h -2 v -1 h -3 v -1 h -3 v -1 h -2 v -1 h -3 v -1 h -3 v -1 h -2 v -1 h -3 v -1 h -3 v -1 h -2 v -1 h -3 v -1 h -3 v -1 h -3 v -1 h -3 v -1 h -2 v -1 h -3 v -1 h -3 v -1 h -3 v -1 h -3 v -1 h -2 v -1 h -3 v -1 h -3 v -1 h -3 v -1 h -3 v -1 h -3 v -1 h -2 v -1 h -3 v -1 h -3 v -1 h -3 v -1 h -3 v -1 h -2 v -1 h -3 v -1 h -3 v -1 h -3 v -1 h -3 v -1 h -2 v -1 h -3 v -1 h -3 v -1 h -3 v -1 h -3 v -1 h -3 v -1 h -3 v -1 h -3 v -1 h -3 v -1 h -3 v -1 h -3 v -1 h -3 v -1 h -3 v -1 h -3 v -1 h -3 v -1 h -3 v -1 h -3 v -1 h -3 v -1 h -3 v -1 h -2 v -1 h -3 v -1 h -3 v -1 h -4 v -1 h -3 v -1 h -3 v -1 h -3 v -1 h -3 v -1 h -3 v -1 h -3 v -1 h -3 v -1 h -3 v -1 h -3 v -1 h -3 v -1 h -3 v -1 h -4 v -1 h -3 v -1 h -3 v -1 h -3 v -1 h -3 v -1 h -3 v -1 h -3 v -1 h -4 v -1 h -3 v -1 h -3 v -1 h -3 v -1 h -3 v -1 h -3 v -1 h -4 v -1 h -3 v -1 h -3 v -1 h -3 v -1 h -3 v -1 h -4 v -1 h -3 v -1 h -3 v -1 h -3 v -1 h -4 v -1 h -3 v -1 h -3 v -1 h -3 v -1 h -4 v -1 h -3 v -1 h -3 v -1 h -3 v -1 h -4 v -1 h -3 v -1 h -3 v -1 h -4 v -1 h -3 v -1 h -3 v -1 h -4 v -1 h -3 v -1 h -3 v -1 h -3 v -1 h -4 v -1 h -3 v -1 h -3 v -1 h -4 v -1 h -3 v -1 h -4 v -1 h -3 v -1 h -3 v -1 h -4 v -1 h -3 v -1 h -4 v -1 h -3 v -1 h -3 v -1 h -4 v -1 h -3 v -1 h -4 v -1 h -3 v -1 h -4 v -1 h -3 v -1 h -4 v -1 h -3 v -1 h -3 v -1 h -4 v -1 h -3 v -1 h -4 v -1 h -3 v -1 h -4 v -1 h -3 v -1 h -4 v -1 h -3 v -1 h -4 v -1 h -4 v -1 h -3 v -1 h -4 v -1 h -3 v -1 h -4 v -1 h -3 v -1 h -4 v -1 h -3 v -1 h -4 v -1 h -4 v -1 h -3 v -1 h -4 v -1 h -4 v -1 h -3 v -1 h -4 v -1 h -4 v -1 h -3 v -1 h -4 v -1 h -4 v -1 h -3 v -1 h -4 v -1 h -3 v -1 h -4 v -1 h -4 v -1 h -4 v -1 h -4 v -1 h -3 v -1 h -4 v -1 h -4 v -1 h -4 v -1 h -3 v -1 h -4 v -1 h -4 v -1 h -4 v -1 h -4 v -1 h -3 v -1 h -4 v -1 h -4 v -1 h -4 v -1 h -4 v -1 h -4 v -1 h -4 v -1 h -4 v -1 h -3 v -1 h -4 v -1 h -4 v -1 h -4 v -1 h -4 v -1 h -4 v -1 h -4 v -1 h -4 v -1 h -4 v -1 h -4 v -1 h -4 v -1 h -4 v -1 h -4 v -1 h -5 v -1 h -4 v -1 h -4 v -1 h -4 v -1 h -4 v -1 h -5 v -1 h -4 v -1 h -4 v -1 h -4 v -1 h -4 v -1 h -5 v -1 h -4 v -1 h -4 v -1 h -5 v -1 h -4 v -1 h -4 v -1 h -5 v -1 h -4 v -1 h -5 v -1 h -4 v -1 h -5 v -1 h -4 v -1 h -5 v -1 h -5 v -1 h -4 v -1 h -5 v -1 h -4 v -1 h -5 v -1 h -5 v -1 h -5 v -1 h -5 v -1 h -5 v -1 h -5 v -1 h -5 v -1 h -5 v -1 h -5 v -1 h -5 v -1 h -5 v -1 h -5 v -1 h -6 v -1 h -5 v -1 h -6 v -1" /></g></g></g><g
         id="g320"><g
           clip-path="url(#clipPath326)"
           id="g322"><path
             id="path340"
             style="fill:url(#linearGradient338);fill-opacity:1;fill-rule:nonzero;stroke:none"
             d="m 0,1063.88 4.91406,-28.06 225.64494,39.52 -4.914,28.06 L 0,1063.88" /></g></g></g></g></svg>