<?xml version="1.0" encoding="UTF-8" standalone="no"?>
<svg
   xmlns:dc="http://purl.org/dc/elements/1.1/"
   xmlns:cc="http://creativecommons.org/ns#"
   xmlns:rdf="http://www.w3.org/1999/02/22-rdf-syntax-ns#"
   xmlns:svg="http://www.w3.org/2000/svg"
   xmlns="http://www.w3.org/2000/svg"
   viewBox="0 0 488 364.45334"
   height="364.45334"
   width="488"
   xml:space="preserve"
   id="svg2"
   version="1.1"><metadata
     id="metadata8"><rdf:RDF><cc:Work
         rdf:about=""><dc:format>image/svg+xml</dc:format><dc:type
           rdf:resource="http://purl.org/dc/dcmitype/StillImage" /></cc:Work></rdf:RDF></metadata><defs
     id="defs6"><clipPath
       id="clipPath34"
       clipPathUnits="userSpaceOnUse"><path
         id="path32"
         d="m 693.371,1018.77 c 0.082,0.5 0.145,0.89 0.145,0.89 -24.532,4.74 -49.157,8.99 -73.864,12.67 -74.027,11.67 -148.527,20.57 -223.281,25.98 l -0.367,-3.78 c 23.531,-15.69 47.484,-25.18 71.59,-32.96 73.336,-21.23 149.289,-29 224,-6.03 C 643.43,929.309 534.309,876.641 444.613,931.59 377.609,973.691 333.23,1117.7 319.48,1194.03 c -32.554,180.47 7.77,375.75 118.208,523.25 29.39,42.16 83.57,41.58 129.527,52.93 67.062,12.74 135.121,20.1 203.414,22.8 28.219,-0.72 54.644,12.86 74.547,32.37 -0.356,-0.52 -0.738,-1.02 -1.098,-1.55 178.442,187.56 434.612,286.63 691.692,266.62 74.89,-2.7 157.3,-6.12 231.19,-16.68 70,-8.87 139.95,-18.68 208.04,-38 -32.64,-23.25 -57.71,-56.97 -69.13,-95 10.43,20.57 24.44,38.81 40.8,54.06 21.89,20.92 49.32,33.99 77.06,44.36 0,0 -22.61,8.94 -22.62,8.94 -73.15,29.55 -150.99,45.28 -228.08,61.62 -74.38,16.95 -158.61,23.09 -235.04,27.32 -260.81,24.25 -535.6,-88.84 -687.388,-304.03 -21.844,-19.79 -50.168,-33.13 -79.914,-29.75 -34.508,1.81 -69.133,1.67 -103.75,0.38 -51.918,-2.38 -103.895,-7.78 -155.098,-17.06 -25.473,-4.29 -57.102,-10.51 -78.524,-29.07 -139.675,-145.22 -187.64,-375.75 -149.003,-570.19 18.148,-86.03 67.917,-232.678 147.828,-277.12 101.586,-54.902 218.636,5.59 260.25,105.54 0.172,0.06 0.343,0.1 0.519,0.15 0,0 0.145,0.9 0.293,1.81 0.402,1 0.848,1.98 1.238,2.98 -0.343,-0.65 -0.718,-1.29 -1.07,-1.94 z" /></clipPath><linearGradient
       id="linearGradient54"
       spreadMethod="pad"
       gradientTransform="matrix(1999.49,-925.69,-925.69,-1999.49,546.349,1790.07)"
       gradientUnits="userSpaceOnUse"
       y2="0"
       x2="1"
       y1="0"
       x1="0"><stop
         id="stop36"
         offset="0"
         style="stop-opacity:1;stop-color:#6b6969" /><stop
         id="stop38"
         offset="0.2133835"
         style="stop-opacity:1;stop-color:#cac9c9" /><stop
         id="stop40"
         offset="0.306551"
         style="stop-opacity:1;stop-color:#cac9c9" /><stop
         id="stop42"
         offset="0.3454335"
         style="stop-opacity:1;stop-color:#cac9c9" /><stop
         id="stop44"
         offset="0.46952"
         style="stop-opacity:1;stop-color:#e9e9e9" /><stop
         id="stop46"
         offset="0.47986264"
         style="stop-opacity:1;stop-color:#e9e9e9" /><stop
         id="stop48"
         offset="0.614235"
         style="stop-opacity:1;stop-color:#afaeae" /><stop
         id="stop50"
         offset="0.63363756"
         style="stop-opacity:1;stop-color:#afaeae" /><stop
         id="stop52"
         offset="1"
         style="stop-opacity:1;stop-color:#6b6969" /></linearGradient><clipPath
       id="clipPath64"
       clipPathUnits="userSpaceOnUse"><path
         id="path62"
         d="m 1184.6,1596.9 c 210.53,99.26 437.82,129.09 668.7,124.83 -223.68,58.61 -485.61,21.61 -668.7,-124.83 z" /></clipPath><linearGradient
       id="linearGradient84"
       spreadMethod="pad"
       gradientTransform="matrix(1999.49,-925.69,-925.69,-1999.49,668.169,2053.2)"
       gradientUnits="userSpaceOnUse"
       y2="0"
       x2="1"
       y1="0"
       x1="0"><stop
         id="stop66"
         offset="0"
         style="stop-opacity:1;stop-color:#6b6969" /><stop
         id="stop68"
         offset="0.2133835"
         style="stop-opacity:1;stop-color:#cac9c9" /><stop
         id="stop70"
         offset="0.306551"
         style="stop-opacity:1;stop-color:#cac9c9" /><stop
         id="stop72"
         offset="0.3454335"
         style="stop-opacity:1;stop-color:#cac9c9" /><stop
         id="stop74"
         offset="0.46952"
         style="stop-opacity:1;stop-color:#e9e9e9" /><stop
         id="stop76"
         offset="0.47986264"
         style="stop-opacity:1;stop-color:#e9e9e9" /><stop
         id="stop78"
         offset="0.614235"
         style="stop-opacity:1;stop-color:#afaeae" /><stop
         id="stop80"
         offset="0.63363756"
         style="stop-opacity:1;stop-color:#afaeae" /><stop
         id="stop82"
         offset="1"
         style="stop-opacity:1;stop-color:#6b6969" /></linearGradient><clipPath
       id="clipPath94"
       clipPathUnits="userSpaceOnUse"><path
         id="path92"
         d="m 2378.41,1998.83 c -94.16,71.93 -238.45,74.01 -329.94,-3.88 -30.12,-24.99 -55.14,-53.87 -77.93,-83.29 -46.1,-58.7 -87.21,-121.82 -117.24,-189.93 65.36,87.44 133.62,176.24 217.15,245.23 83.01,65.23 203.62,63.26 291.27,7.32 59.49,-37.37 107.3,-95.85 129.98,-166.69 -6.89,74.54 -50.73,145.57 -113.29,191.24 z" /></clipPath><linearGradient
       id="linearGradient114"
       spreadMethod="pad"
       gradientTransform="matrix(1999.49,-925.69,-925.69,-1999.49,851.402,2448.98)"
       gradientUnits="userSpaceOnUse"
       y2="0"
       x2="1"
       y1="0"
       x1="0"><stop
         id="stop96"
         offset="0"
         style="stop-opacity:1;stop-color:#6b6969" /><stop
         id="stop98"
         offset="0.2133835"
         style="stop-opacity:1;stop-color:#cac9c9" /><stop
         id="stop100"
         offset="0.306551"
         style="stop-opacity:1;stop-color:#cac9c9" /><stop
         id="stop102"
         offset="0.3454335"
         style="stop-opacity:1;stop-color:#cac9c9" /><stop
         id="stop104"
         offset="0.46952"
         style="stop-opacity:1;stop-color:#e9e9e9" /><stop
         id="stop106"
         offset="0.47986264"
         style="stop-opacity:1;stop-color:#e9e9e9" /><stop
         id="stop108"
         offset="0.614235"
         style="stop-opacity:1;stop-color:#afaeae" /><stop
         id="stop110"
         offset="0.63363756"
         style="stop-opacity:1;stop-color:#afaeae" /><stop
         id="stop112"
         offset="1"
         style="stop-opacity:1;stop-color:#6b6969" /></linearGradient><clipPath
       id="clipPath124"
       clipPathUnits="userSpaceOnUse"><path
         id="path122"
         d="m 2149.62,1781.15 c -20.58,-4.24 -43.86,-8.04 -64.35,-14.9 -21.23,-6.94 -41.85,-15.54 -60.9,-26.82 21.43,5.44 42.64,10.25 64.07,13.23 40.88,8.45 125.08,-4.66 116.75,61.06 -20.07,78.94 -130.61,80.57 -188.28,44.58 -39.65,-23.46 -67.24,-63.33 -80.29,-106.4 34.19,55.06 84.44,98.64 149.26,101.56 35.45,2.74 94.83,-11.31 93.2,-54.66 -3.96,-11.24 -16.61,-13.98 -29.46,-17.65 z" /></clipPath><linearGradient
       id="linearGradient144"
       spreadMethod="pad"
       gradientTransform="matrix(1999.49,-925.69,-925.69,-1999.49,819.13,2379.28)"
       gradientUnits="userSpaceOnUse"
       y2="0"
       x2="1"
       y1="0"
       x1="0"><stop
         id="stop126"
         offset="0"
         style="stop-opacity:1;stop-color:#6b6969" /><stop
         id="stop128"
         offset="0.2133835"
         style="stop-opacity:1;stop-color:#cac9c9" /><stop
         id="stop130"
         offset="0.306551"
         style="stop-opacity:1;stop-color:#cac9c9" /><stop
         id="stop132"
         offset="0.3454335"
         style="stop-opacity:1;stop-color:#cac9c9" /><stop
         id="stop134"
         offset="0.46952"
         style="stop-opacity:1;stop-color:#e9e9e9" /><stop
         id="stop136"
         offset="0.47986264"
         style="stop-opacity:1;stop-color:#e9e9e9" /><stop
         id="stop138"
         offset="0.614235"
         style="stop-opacity:1;stop-color:#afaeae" /><stop
         id="stop140"
         offset="0.63363756"
         style="stop-opacity:1;stop-color:#afaeae" /><stop
         id="stop142"
         offset="1"
         style="stop-opacity:1;stop-color:#6b6969" /></linearGradient><clipPath
       id="clipPath154"
       clipPathUnits="userSpaceOnUse"><path
         id="path152"
         d="m 2491.7,1807.59 c -34.32,-24.07 -70.55,-43 -108.4,-57.32 -114.69,-42.54 -241.41,-45.43 -358.93,-10.84 140,-86.46 360.77,-60.52 467.33,68.16 z" /></clipPath><linearGradient
       id="linearGradient174"
       spreadMethod="pad"
       gradientTransform="matrix(1999.49,-925.69,-925.69,-1999.49,841.7,2428.03)"
       gradientUnits="userSpaceOnUse"
       y2="0"
       x2="1"
       y1="0"
       x1="0"><stop
         id="stop156"
         offset="0"
         style="stop-opacity:1;stop-color:#6b6969" /><stop
         id="stop158"
         offset="0.2133835"
         style="stop-opacity:1;stop-color:#cac9c9" /><stop
         id="stop160"
         offset="0.306551"
         style="stop-opacity:1;stop-color:#cac9c9" /><stop
         id="stop162"
         offset="0.3454335"
         style="stop-opacity:1;stop-color:#cac9c9" /><stop
         id="stop164"
         offset="0.46952"
         style="stop-opacity:1;stop-color:#e9e9e9" /><stop
         id="stop166"
         offset="0.47986264"
         style="stop-opacity:1;stop-color:#e9e9e9" /><stop
         id="stop168"
         offset="0.614235"
         style="stop-opacity:1;stop-color:#afaeae" /><stop
         id="stop170"
         offset="0.63363756"
         style="stop-opacity:1;stop-color:#afaeae" /><stop
         id="stop172"
         offset="1"
         style="stop-opacity:1;stop-color:#6b6969" /></linearGradient><clipPath
       id="clipPath184"
       clipPathUnits="userSpaceOnUse"><path
         id="path182"
         d="m 1782.97,1491.01 c 100.33,105.3 191.01,-0.62 244.41,-93.09 -27.94,67.73 -72.95,150.4 -154.53,159.13 -84.15,4.47 -141.15,-75.76 -175.76,-141.75 -65.88,-136.29 -86.59,-296.89 -48.57,-443.249 -17.88,165.289 20.69,393.419 134.45,518.959 z" /></clipPath><linearGradient
       id="linearGradient204"
       spreadMethod="pad"
       gradientTransform="matrix(1999.49,-925.69,-925.69,-1999.49,561.746,1823.32)"
       gradientUnits="userSpaceOnUse"
       y2="0"
       x2="1"
       y1="0"
       x1="0"><stop
         id="stop186"
         offset="0"
         style="stop-opacity:1;stop-color:#6b6969" /><stop
         id="stop188"
         offset="0.2133835"
         style="stop-opacity:1;stop-color:#cac9c9" /><stop
         id="stop190"
         offset="0.306551"
         style="stop-opacity:1;stop-color:#cac9c9" /><stop
         id="stop192"
         offset="0.3454335"
         style="stop-opacity:1;stop-color:#cac9c9" /><stop
         id="stop194"
         offset="0.46952"
         style="stop-opacity:1;stop-color:#e9e9e9" /><stop
         id="stop196"
         offset="0.47986264"
         style="stop-opacity:1;stop-color:#e9e9e9" /><stop
         id="stop198"
         offset="0.614235"
         style="stop-opacity:1;stop-color:#afaeae" /><stop
         id="stop200"
         offset="0.63363756"
         style="stop-opacity:1;stop-color:#afaeae" /><stop
         id="stop202"
         offset="1"
         style="stop-opacity:1;stop-color:#6b6969" /></linearGradient><clipPath
       id="clipPath214"
       clipPathUnits="userSpaceOnUse"><path
         id="path212"
         d="m 1884.58,1357.2 c 25.93,2.42 57.01,-7.09 72.35,-28.54 12.85,-17.31 32.13,-36.31 46.54,-68.73 -4.61,10.38 -10.72,38 -13.48,48.81 -6.11,23.07 -10.77,43.01 -20.74,66.48 -18.78,44.18 -60.5,88.87 -117.09,54.04 -81.97,-50.44 -102.68,-169.33 -117.09,-348.57 l 5.68,4.48 c 20.85,83.31 22.16,162.95 72.68,230.6 14.96,18.98 46.17,37.97 71.15,41.43 z" /></clipPath><linearGradient
       id="linearGradient234"
       spreadMethod="pad"
       gradientTransform="matrix(1999.49,-925.69,-925.69,-1999.49,569.522,1840.12)"
       gradientUnits="userSpaceOnUse"
       y2="0"
       x2="1"
       y1="0"
       x1="0"><stop
         id="stop216"
         offset="0"
         style="stop-opacity:1;stop-color:#6b6969" /><stop
         id="stop218"
         offset="0.2133835"
         style="stop-opacity:1;stop-color:#cac9c9" /><stop
         id="stop220"
         offset="0.306551"
         style="stop-opacity:1;stop-color:#cac9c9" /><stop
         id="stop222"
         offset="0.3454335"
         style="stop-opacity:1;stop-color:#cac9c9" /><stop
         id="stop224"
         offset="0.46952"
         style="stop-opacity:1;stop-color:#e9e9e9" /><stop
         id="stop226"
         offset="0.47986264"
         style="stop-opacity:1;stop-color:#e9e9e9" /><stop
         id="stop228"
         offset="0.614235"
         style="stop-opacity:1;stop-color:#afaeae" /><stop
         id="stop230"
         offset="0.63363756"
         style="stop-opacity:1;stop-color:#afaeae" /><stop
         id="stop232"
         offset="1"
         style="stop-opacity:1;stop-color:#6b6969" /></linearGradient><clipPath
       id="clipPath244"
       clipPathUnits="userSpaceOnUse"><path
         id="path242"
         d="m 545.078,1306.45 c -25.078,0.27 -50.586,0.17 -75.715,0.13 l -8.086,-0.05 c -3.441,-0.18 -8.855,-0.4 -15.25,-3.65 -6.48,-3.37 -10.484,-8.67 -12.687,-12.53 -23.707,-52.49 -33.645,-109.6 -35.031,-167.02 l 19.339,-0.11 c 280.856,-2.12 561.45,-24.08 840.192,-58.37 -268.77,60.74 -544.305,90.21 -819.699,95.34 3.937,37.23 12.914,74.51 26.613,109.24 2.059,0.03 4.93,0.07 4.93,0.07 105.382,1.11 210.785,0.47 316.14,-2.32 160.934,-3.79 321.336,-13.36 482.026,-24.3 -238.52,41.55 -480.748,60.74 -722.772,63.57 z" /></clipPath><linearGradient
       id="linearGradient264"
       spreadMethod="pad"
       gradientTransform="matrix(1999.49,-925.69,-925.69,-1999.49,365.555,1399.55)"
       gradientUnits="userSpaceOnUse"
       y2="0"
       x2="1"
       y1="0"
       x1="0"><stop
         id="stop246"
         offset="0"
         style="stop-opacity:1;stop-color:#6b6969" /><stop
         id="stop248"
         offset="0.2133835"
         style="stop-opacity:1;stop-color:#cac9c9" /><stop
         id="stop250"
         offset="0.306551"
         style="stop-opacity:1;stop-color:#cac9c9" /><stop
         id="stop252"
         offset="0.3454335"
         style="stop-opacity:1;stop-color:#cac9c9" /><stop
         id="stop254"
         offset="0.46952"
         style="stop-opacity:1;stop-color:#e9e9e9" /><stop
         id="stop256"
         offset="0.47986264"
         style="stop-opacity:1;stop-color:#e9e9e9" /><stop
         id="stop258"
         offset="0.614235"
         style="stop-opacity:1;stop-color:#afaeae" /><stop
         id="stop260"
         offset="0.63363756"
         style="stop-opacity:1;stop-color:#afaeae" /><stop
         id="stop262"
         offset="1"
         style="stop-opacity:1;stop-color:#6b6969" /></linearGradient><clipPath
       id="clipPath274"
       clipPathUnits="userSpaceOnUse"><path
         id="path272"
         d="m 589.129,1212.97 0.023,-1.9 c 95.036,-9.27 189.653,-11.12 284.868,-13.99 94.972,-4.27 189.82,-11.64 284.35,-22.1 l 0.26,1.88 c -93.97,15.8 -188.634,27.6 -283.653,35.35 -95.032,9.17 -190.774,12.21 -285.848,0.76 z" /></clipPath><linearGradient
       id="linearGradient294"
       spreadMethod="pad"
       gradientTransform="matrix(1999.49,-925.69,-925.69,-1999.49,376.898,1424.05)"
       gradientUnits="userSpaceOnUse"
       y2="0"
       x2="1"
       y1="0"
       x1="0"><stop
         id="stop276"
         offset="0"
         style="stop-opacity:1;stop-color:#6b6969" /><stop
         id="stop278"
         offset="0.2133835"
         style="stop-opacity:1;stop-color:#cac9c9" /><stop
         id="stop280"
         offset="0.306551"
         style="stop-opacity:1;stop-color:#cac9c9" /><stop
         id="stop282"
         offset="0.3454335"
         style="stop-opacity:1;stop-color:#cac9c9" /><stop
         id="stop284"
         offset="0.46952"
         style="stop-opacity:1;stop-color:#e9e9e9" /><stop
         id="stop286"
         offset="0.47986264"
         style="stop-opacity:1;stop-color:#e9e9e9" /><stop
         id="stop288"
         offset="0.614235"
         style="stop-opacity:1;stop-color:#afaeae" /><stop
         id="stop290"
         offset="0.63363756"
         style="stop-opacity:1;stop-color:#afaeae" /><stop
         id="stop292"
         offset="1"
         style="stop-opacity:1;stop-color:#6b6969" /></linearGradient><clipPath
       id="clipPath304"
       clipPathUnits="userSpaceOnUse"><path
         id="path302"
         d="m 665.406,1587.22 c 123.207,-51.06 263.676,-63.71 393.984,-35.17 -132.683,-2.13 -263.796,9.47 -393.984,35.17 z" /></clipPath><linearGradient
       id="linearGradient324"
       spreadMethod="pad"
       gradientTransform="matrix(1999.49,-925.69,-925.69,-1999.49,518.092,1729.03)"
       gradientUnits="userSpaceOnUse"
       y2="0"
       x2="1"
       y1="0"
       x1="0"><stop
         id="stop306"
         offset="0"
         style="stop-opacity:1;stop-color:#6b6969" /><stop
         id="stop308"
         offset="0.2133835"
         style="stop-opacity:1;stop-color:#cac9c9" /><stop
         id="stop310"
         offset="0.306551"
         style="stop-opacity:1;stop-color:#cac9c9" /><stop
         id="stop312"
         offset="0.3454335"
         style="stop-opacity:1;stop-color:#cac9c9" /><stop
         id="stop314"
         offset="0.46952"
         style="stop-opacity:1;stop-color:#e9e9e9" /><stop
         id="stop316"
         offset="0.47986264"
         style="stop-opacity:1;stop-color:#e9e9e9" /><stop
         id="stop318"
         offset="0.614235"
         style="stop-opacity:1;stop-color:#afaeae" /><stop
         id="stop320"
         offset="0.63363756"
         style="stop-opacity:1;stop-color:#afaeae" /><stop
         id="stop322"
         offset="1"
         style="stop-opacity:1;stop-color:#6b6969" /></linearGradient><clipPath
       id="clipPath334"
       clipPathUnits="userSpaceOnUse"><path
         id="path332"
         d="m 1060.67,1489.38 c -141.119,-13.21 -282.424,1.88 -417.49,44.87 125.636,-67.94 280.289,-84.66 417.49,-44.87 z" /></clipPath><linearGradient
       id="linearGradient354"
       spreadMethod="pad"
       gradientTransform="matrix(1999.49,-925.69,-925.69,-1999.49,493.988,1676.97)"
       gradientUnits="userSpaceOnUse"
       y2="0"
       x2="1"
       y1="0"
       x1="0"><stop
         id="stop336"
         offset="0"
         style="stop-opacity:1;stop-color:#6b6969" /><stop
         id="stop338"
         offset="0.2133835"
         style="stop-opacity:1;stop-color:#cac9c9" /><stop
         id="stop340"
         offset="0.306551"
         style="stop-opacity:1;stop-color:#cac9c9" /><stop
         id="stop342"
         offset="0.3454335"
         style="stop-opacity:1;stop-color:#cac9c9" /><stop
         id="stop344"
         offset="0.46952"
         style="stop-opacity:1;stop-color:#e9e9e9" /><stop
         id="stop346"
         offset="0.47986264"
         style="stop-opacity:1;stop-color:#e9e9e9" /><stop
         id="stop348"
         offset="0.614235"
         style="stop-opacity:1;stop-color:#afaeae" /><stop
         id="stop350"
         offset="0.63363756"
         style="stop-opacity:1;stop-color:#afaeae" /><stop
         id="stop352"
         offset="1"
         style="stop-opacity:1;stop-color:#6b6969" /></linearGradient><clipPath
       id="clipPath364"
       clipPathUnits="userSpaceOnUse"><path
         id="path362"
         d="m 373.426,1554.38 c 47.586,-52.58 126.605,-56.58 192.398,-53.39 0.922,13.37 0.278,29.94 -6.379,41 -27.406,46.72 -79.804,78.81 -132.605,85.05 38.027,-20.15 72.062,-46.75 97.664,-81.09 4.418,-5.86 8.082,-11.82 10.457,-17.49 -55.625,-1.21 -110.781,0.47 -161.535,25.92 z" /></clipPath><linearGradient
       id="linearGradient384"
       spreadMethod="pad"
       gradientTransform="matrix(1999.49,-925.69,-925.69,-1999.49,444.033,1569.07)"
       gradientUnits="userSpaceOnUse"
       y2="0"
       x2="1"
       y1="0"
       x1="0"><stop
         id="stop366"
         offset="0"
         style="stop-opacity:1;stop-color:#6b6969" /><stop
         id="stop368"
         offset="0.2133835"
         style="stop-opacity:1;stop-color:#cac9c9" /><stop
         id="stop370"
         offset="0.306551"
         style="stop-opacity:1;stop-color:#cac9c9" /><stop
         id="stop372"
         offset="0.3454335"
         style="stop-opacity:1;stop-color:#cac9c9" /><stop
         id="stop374"
         offset="0.46952"
         style="stop-opacity:1;stop-color:#e9e9e9" /><stop
         id="stop376"
         offset="0.47986264"
         style="stop-opacity:1;stop-color:#e9e9e9" /><stop
         id="stop378"
         offset="0.614235"
         style="stop-opacity:1;stop-color:#afaeae" /><stop
         id="stop380"
         offset="0.63363756"
         style="stop-opacity:1;stop-color:#afaeae" /><stop
         id="stop382"
         offset="1"
         style="stop-opacity:1;stop-color:#6b6969" /></linearGradient><clipPath
       id="clipPath394"
       clipPathUnits="userSpaceOnUse"><path
         id="path392"
         d="M 0,0 H 3660 V 2733 H 0 Z" /></clipPath><clipPath
       id="clipPath400"
       clipPathUnits="userSpaceOnUse"><path
         id="path398"
         d="m 2345.85,2636.23 c -521.18,96.48 -991.22,81.04 -1380.694,95.02 -43.804,1.57 -93.597,2.57 -132.683,2.05 104.914,-14.4 144.879,-24.51 185.657,-32.91 218.89,-45.09 328.63,-58.97 549.24,-108.51 801.14,-179.91 1309.77,-365.64 1309.77,-592.72 0,-95.3 -92.35,-181.16 -252.96,-259.05 12.88,-3.47 25.32,-9.25 32.42,-10.66 165.2,82.26 237.59,163.82 237.59,269.47 0,129.26 -105.17,220.07 -380.56,333.77 -270.83,111.81 -564.88,188.42 -935,271.53 -170.08,38.2 -443.83,81.14 -615.532,117.77 369.392,-18.56 940.932,-7.81 1379.002,-105.32 438.33,-97.56 765.19,-194.82 1009.28,-352.38 137.82,-88.97 273.59,-210.34 281.73,-380.62 v 0 c 1.22,-118.23 -56.83,-237.44 -172.53,-354.34 -185.47,-187.39 -523.98,-362.51 -942.32,-498.78 -252.65,-82.288 -525.62,-139.171 -751.35,-190.28 33.03,-1.29 22.08,-1.411 55.15,-1.661 24.37,-0.179 21.54,-0.5 45.9,-0.14 188.74,33.601 465.89,111.652 660.71,175.111 422.56,137.64 757.16,311.07 945.75,501.61 121.24,122.48 179.1,246.3 177.81,372.4 -3.16,302.54 -456.46,591.32 -1306.38,748.64 z" /></clipPath><linearGradient
       id="linearGradient420"
       spreadMethod="pad"
       gradientTransform="matrix(1999.49,-925.69,-925.69,-1999.49,819.446,2379.96)"
       gradientUnits="userSpaceOnUse"
       y2="0"
       x2="1"
       y1="0"
       x1="0"><stop
         id="stop402"
         offset="0"
         style="stop-opacity:1;stop-color:#6b6969" /><stop
         id="stop404"
         offset="0.2133835"
         style="stop-opacity:1;stop-color:#cac9c9" /><stop
         id="stop406"
         offset="0.306551"
         style="stop-opacity:1;stop-color:#cac9c9" /><stop
         id="stop408"
         offset="0.3454335"
         style="stop-opacity:1;stop-color:#cac9c9" /><stop
         id="stop410"
         offset="0.46952"
         style="stop-opacity:1;stop-color:#e9e9e9" /><stop
         id="stop412"
         offset="0.47986264"
         style="stop-opacity:1;stop-color:#e9e9e9" /><stop
         id="stop414"
         offset="0.614235"
         style="stop-opacity:1;stop-color:#afaeae" /><stop
         id="stop416"
         offset="0.63363756"
         style="stop-opacity:1;stop-color:#afaeae" /><stop
         id="stop418"
         offset="1"
         style="stop-opacity:1;stop-color:#6b6969" /></linearGradient><clipPath
       id="clipPath430"
       clipPathUnits="userSpaceOnUse"><path
         id="path428"
         d="m 0,1061.18 4.90234,-27.99 225.07066,39.41 -4.903,27.99 z" /></clipPath><linearGradient
       id="linearGradient450"
       spreadMethod="pad"
       gradientTransform="matrix(1999.49,-925.69,-925.69,-1999.49,194.502,1030.08)"
       gradientUnits="userSpaceOnUse"
       y2="0"
       x2="1"
       y1="0"
       x1="0"><stop
         id="stop432"
         offset="0"
         style="stop-opacity:1;stop-color:#6b6969" /><stop
         id="stop434"
         offset="0.2133835"
         style="stop-opacity:1;stop-color:#cac9c9" /><stop
         id="stop436"
         offset="0.306551"
         style="stop-opacity:1;stop-color:#cac9c9" /><stop
         id="stop438"
         offset="0.3454335"
         style="stop-opacity:1;stop-color:#cac9c9" /><stop
         id="stop440"
         offset="0.46952"
         style="stop-opacity:1;stop-color:#e9e9e9" /><stop
         id="stop442"
         offset="0.47986264"
         style="stop-opacity:1;stop-color:#e9e9e9" /><stop
         id="stop444"
         offset="0.614235"
         style="stop-opacity:1;stop-color:#afaeae" /><stop
         id="stop446"
         offset="0.63363756"
         style="stop-opacity:1;stop-color:#afaeae" /><stop
         id="stop448"
         offset="1"
         style="stop-opacity:1;stop-color:#6b6969" /></linearGradient><clipPath
       id="clipPath460"
       clipPathUnits="userSpaceOnUse"><path
         id="path458"
         d="M 171.805,353.129 29.2148,638.32 H 4.32813 V 0 H 34.957 V 558.879 L 171.805,285.18 308.656,558.879 V 0 h 29.668 v 638.32 h -23.929 z" /></clipPath><linearGradient
       id="linearGradient480"
       spreadMethod="pad"
       gradientTransform="matrix(3897.15,9.2569,9.2569,-3897.15,-137.34,318.42)"
       gradientUnits="userSpaceOnUse"
       y2="0"
       x2="1"
       y1="0"
       x1="0"><stop
         id="stop462"
         offset="0"
         style="stop-opacity:1;stop-color:#6b6969" /><stop
         id="stop464"
         offset="0.2133835"
         style="stop-opacity:1;stop-color:#cac9c9" /><stop
         id="stop466"
         offset="0.306551"
         style="stop-opacity:1;stop-color:#cac9c9" /><stop
         id="stop468"
         offset="0.3454335"
         style="stop-opacity:1;stop-color:#cac9c9" /><stop
         id="stop470"
         offset="0.46952"
         style="stop-opacity:1;stop-color:#e9e9e9" /><stop
         id="stop472"
         offset="0.47986264"
         style="stop-opacity:1;stop-color:#e9e9e9" /><stop
         id="stop474"
         offset="0.614235"
         style="stop-opacity:1;stop-color:#afaeae" /><stop
         id="stop476"
         offset="0.63363756"
         style="stop-opacity:1;stop-color:#afaeae" /><stop
         id="stop478"
         offset="1"
         style="stop-opacity:1;stop-color:#6b6969" /></linearGradient><clipPath
       id="clipPath490"
       clipPathUnits="userSpaceOnUse"><path
         id="path488"
         d="M 478.895,0 H 712.691 V 21.4297 H 500.332 V 212.352 h 212.359 v 21.437 H 500.332 v 191.59 H 712.691 V 446.82 H 478.895 Z" /></clipPath><linearGradient
       id="linearGradient510"
       spreadMethod="pad"
       gradientTransform="matrix(3897.15,9.2569,9.2569,-3897.15,-137.111,221.67)"
       gradientUnits="userSpaceOnUse"
       y2="0"
       x2="1"
       y1="0"
       x1="0"><stop
         id="stop492"
         offset="0"
         style="stop-opacity:1;stop-color:#6b6969" /><stop
         id="stop494"
         offset="0.2133835"
         style="stop-opacity:1;stop-color:#cac9c9" /><stop
         id="stop496"
         offset="0.306551"
         style="stop-opacity:1;stop-color:#cac9c9" /><stop
         id="stop498"
         offset="0.3454335"
         style="stop-opacity:1;stop-color:#cac9c9" /><stop
         id="stop500"
         offset="0.46952"
         style="stop-opacity:1;stop-color:#e9e9e9" /><stop
         id="stop502"
         offset="0.47986264"
         style="stop-opacity:1;stop-color:#e9e9e9" /><stop
         id="stop504"
         offset="0.614235"
         style="stop-opacity:1;stop-color:#afaeae" /><stop
         id="stop506"
         offset="0.63363756"
         style="stop-opacity:1;stop-color:#afaeae" /><stop
         id="stop508"
         offset="1"
         style="stop-opacity:1;stop-color:#6b6969" /></linearGradient><clipPath
       id="clipPath520"
       clipPathUnits="userSpaceOnUse"><path
         id="path518"
         d="m 878.148,397.25 c 18.758,18.75 41.305,28.129 67.661,28.129 26.343,0 48.902,-9.379 67.661,-28.129 18.76,-18.762 28.14,-41.32 28.14,-67.672 h 20.76 c 0,32.16 -11.39,59.852 -34.16,83.082 -22.78,22.77 -50.245,34.16 -82.401,34.16 -32.157,0 -59.621,-11.39 -82.403,-34.16 -23.222,-23.23 -34.828,-50.922 -34.828,-83.082 V 117.23 c 0,-32.148 11.606,-59.6206 34.828,-82.398 C 886.188,11.6016 913.652,0 945.809,0 c 32.156,0 59.621,11.6016 82.401,34.832 22.77,22.7774 34.16,50.25 34.16,82.398 h -20.76 c 0,-26.3589 -9.38,-48.9097 -28.14,-67.6597 -18.759,-18.7617 -41.318,-28.1406 -67.661,-28.1406 -26.356,0 -48.903,9.3789 -67.661,28.1406 -18.753,18.75 -28.132,41.3008 -28.132,67.6597 v 212.348 c 0,26.352 9.379,48.91 28.132,67.672 z" /></clipPath><linearGradient
       id="linearGradient540"
       spreadMethod="pad"
       gradientTransform="matrix(3897.15,9.2569,9.2569,-3897.15,-137.109,220.84)"
       gradientUnits="userSpaceOnUse"
       y2="0"
       x2="1"
       y1="0"
       x1="0"><stop
         id="stop522"
         offset="0"
         style="stop-opacity:1;stop-color:#6b6969" /><stop
         id="stop524"
         offset="0.2133835"
         style="stop-opacity:1;stop-color:#cac9c9" /><stop
         id="stop526"
         offset="0.306551"
         style="stop-opacity:1;stop-color:#cac9c9" /><stop
         id="stop528"
         offset="0.3454335"
         style="stop-opacity:1;stop-color:#cac9c9" /><stop
         id="stop530"
         offset="0.46952"
         style="stop-opacity:1;stop-color:#e9e9e9" /><stop
         id="stop532"
         offset="0.47986264"
         style="stop-opacity:1;stop-color:#e9e9e9" /><stop
         id="stop534"
         offset="0.614235"
         style="stop-opacity:1;stop-color:#afaeae" /><stop
         id="stop536"
         offset="0.63363756"
         style="stop-opacity:1;stop-color:#afaeae" /><stop
         id="stop538"
         offset="1"
         style="stop-opacity:1;stop-color:#6b6969" /></linearGradient><clipPath
       id="clipPath550"
       clipPathUnits="userSpaceOnUse"><path
         id="path548"
         d="M 1390.62,233.789 H 1199.7 v 95.789 c 0,26.352 9.38,48.91 28.13,67.672 18.76,18.75 41.31,28.129 67.66,28.129 26.34,0 48.9,-9.379 67.66,-28.129 18.31,-18.762 27.47,-41.32 27.47,-67.672 z m -95.13,213.031 c -32.61,0 -60.29,-11.39 -83.07,-34.16 -22.77,-22.781 -34.16,-50.48 -34.16,-83.082 V 0 h 21.44 v 213.031 h 190.92 V 0 h 22.1 v 329.578 c 0,32.602 -11.39,60.301 -34.16,83.082 -22.78,22.77 -50.47,34.16 -83.07,34.16 z" /></clipPath><linearGradient
       id="linearGradient570"
       spreadMethod="pad"
       gradientTransform="matrix(3897.15,9.2569,9.2569,-3897.15,-137.106,219.87)"
       gradientUnits="userSpaceOnUse"
       y2="0"
       x2="1"
       y1="0"
       x1="0"><stop
         id="stop552"
         offset="0"
         style="stop-opacity:1;stop-color:#6b6969" /><stop
         id="stop554"
         offset="0.2133835"
         style="stop-opacity:1;stop-color:#cac9c9" /><stop
         id="stop556"
         offset="0.306551"
         style="stop-opacity:1;stop-color:#cac9c9" /><stop
         id="stop558"
         offset="0.3454335"
         style="stop-opacity:1;stop-color:#cac9c9" /><stop
         id="stop560"
         offset="0.46952"
         style="stop-opacity:1;stop-color:#e9e9e9" /><stop
         id="stop562"
         offset="0.47986264"
         style="stop-opacity:1;stop-color:#e9e9e9" /><stop
         id="stop564"
         offset="0.614235"
         style="stop-opacity:1;stop-color:#afaeae" /><stop
         id="stop566"
         offset="0.63363756"
         style="stop-opacity:1;stop-color:#afaeae" /><stop
         id="stop568"
         offset="1"
         style="stop-opacity:1;stop-color:#6b6969" /></linearGradient><clipPath
       id="clipPath580"
       clipPathUnits="userSpaceOnUse"><path
         id="path578"
         d="M 1720.39,353.129 1577.8,638.32 h -24.88 V 0 h 30.62 V 558.879 L 1720.39,285.18 1857.24,558.879 V 0 h 29.67 v 638.32 h -23.93 z" /></clipPath><linearGradient
       id="linearGradient600"
       spreadMethod="pad"
       gradientTransform="matrix(3897.15,9.2569,9.2569,-3897.15,-137.332,314.74)"
       gradientUnits="userSpaceOnUse"
       y2="0"
       x2="1"
       y1="0"
       x1="0"><stop
         id="stop582"
         offset="0"
         style="stop-opacity:1;stop-color:#6b6969" /><stop
         id="stop584"
         offset="0.2133835"
         style="stop-opacity:1;stop-color:#cac9c9" /><stop
         id="stop586"
         offset="0.306551"
         style="stop-opacity:1;stop-color:#cac9c9" /><stop
         id="stop588"
         offset="0.3454335"
         style="stop-opacity:1;stop-color:#cac9c9" /><stop
         id="stop590"
         offset="0.46952"
         style="stop-opacity:1;stop-color:#e9e9e9" /><stop
         id="stop592"
         offset="0.47986264"
         style="stop-opacity:1;stop-color:#e9e9e9" /><stop
         id="stop594"
         offset="0.614235"
         style="stop-opacity:1;stop-color:#afaeae" /><stop
         id="stop596"
         offset="0.63363756"
         style="stop-opacity:1;stop-color:#afaeae" /><stop
         id="stop598"
         offset="1"
         style="stop-opacity:1;stop-color:#6b6969" /></linearGradient><clipPath
       id="clipPath610"
       clipPathUnits="userSpaceOnUse"><path
         id="path608"
         d="m 2240.51,117.23 c 0,-26.3589 -9.38,-48.9097 -28.14,-67.6597 -18.75,-18.7617 -41.31,-28.1406 -67.65,-28.1406 -26.36,0 -48.9,9.3789 -67.66,28.1406 -18.76,18.75 -28.14,41.3008 -28.14,67.6597 v 212.348 c 0,26.352 9.38,48.91 28.14,67.672 18.76,18.75 41.3,28.129 67.66,28.129 26.34,0 48.9,-9.379 67.65,-28.129 18.76,-18.762 28.14,-41.32 28.14,-67.672 z m -95.79,329.59 c -32.16,0 -59.62,-11.39 -82.41,-34.16 -23.22,-23.23 -34.83,-50.922 -34.83,-83.082 V 117.23 c 0,-32.148 11.61,-59.6206 34.83,-82.398 C 2085.1,11.6016 2112.56,0 2144.72,0 c 32.15,0 59.61,11.6016 82.39,34.832 22.78,22.7774 34.16,50.25 34.16,82.398 v 212.348 c 0,32.16 -11.38,59.852 -34.16,83.082 -22.78,22.77 -50.24,34.16 -82.39,34.16 z" /></clipPath><linearGradient
       id="linearGradient630"
       spreadMethod="pad"
       gradientTransform="matrix(3897.15,9.2569,9.2569,-3897.15,-137.102,217.99)"
       gradientUnits="userSpaceOnUse"
       y2="0"
       x2="1"
       y1="0"
       x1="0"><stop
         id="stop612"
         offset="0"
         style="stop-opacity:1;stop-color:#6b6969" /><stop
         id="stop614"
         offset="0.2133835"
         style="stop-opacity:1;stop-color:#cac9c9" /><stop
         id="stop616"
         offset="0.306551"
         style="stop-opacity:1;stop-color:#cac9c9" /><stop
         id="stop618"
         offset="0.3454335"
         style="stop-opacity:1;stop-color:#cac9c9" /><stop
         id="stop620"
         offset="0.46952"
         style="stop-opacity:1;stop-color:#e9e9e9" /><stop
         id="stop622"
         offset="0.47986264"
         style="stop-opacity:1;stop-color:#e9e9e9" /><stop
         id="stop624"
         offset="0.614235"
         style="stop-opacity:1;stop-color:#afaeae" /><stop
         id="stop626"
         offset="0.63363756"
         style="stop-opacity:1;stop-color:#afaeae" /><stop
         id="stop628"
         offset="1"
         style="stop-opacity:1;stop-color:#6b6969" /></linearGradient><clipPath
       id="clipPath640"
       clipPathUnits="userSpaceOnUse"><path
         id="path638"
         d="m 2494.4,233.789 h -95.8 v 191.59 h 95.8 c 26.34,0 48.9,-9.379 67.65,-28.129 18.76,-18.762 28.14,-41.32 28.14,-67.672 0,-26.348 -9.38,-48.898 -28.14,-67.648 -18.75,-18.758 -41.31,-28.141 -67.65,-28.141 z m 67.65,-48.898 c 18.76,-18.762 28.14,-41.309 28.14,-67.661 0,-26.3589 -9.38,-48.9097 -28.14,-67.6597 -18.75,-18.7617 -41.31,-28.1406 -67.65,-28.1406 h -95.8 V 213.031 h 95.8 c 26.34,0 48.9,-9.383 67.65,-28.14 z m 30.16,80.39 c 12.49,19.649 18.74,41.078 18.74,64.297 0,32.16 -11.38,59.852 -34.15,83.082 -22.79,22.77 -50.25,34.16 -82.4,34.16 H 2377.16 V 0 h 117.24 c 32.15,0 59.61,11.6016 82.4,34.832 22.77,22.7774 34.15,50.25 34.15,82.398 0,23.211 -6.25,44.649 -18.74,64.309 -12.52,18.313 -29.04,32.152 -49.58,41.531 20.54,9.379 37.06,23.45 49.58,42.211 z" /></clipPath><linearGradient
       id="linearGradient660"
       spreadMethod="pad"
       gradientTransform="matrix(3897.15,9.2569,9.2569,-3897.15,-137.1,217.3)"
       gradientUnits="userSpaceOnUse"
       y2="0"
       x2="1"
       y1="0"
       x1="0"><stop
         id="stop642"
         offset="0"
         style="stop-opacity:1;stop-color:#6b6969" /><stop
         id="stop644"
         offset="0.2133835"
         style="stop-opacity:1;stop-color:#cac9c9" /><stop
         id="stop646"
         offset="0.306551"
         style="stop-opacity:1;stop-color:#cac9c9" /><stop
         id="stop648"
         offset="0.3454335"
         style="stop-opacity:1;stop-color:#cac9c9" /><stop
         id="stop650"
         offset="0.46952"
         style="stop-opacity:1;stop-color:#e9e9e9" /><stop
         id="stop652"
         offset="0.47986264"
         style="stop-opacity:1;stop-color:#e9e9e9" /><stop
         id="stop654"
         offset="0.614235"
         style="stop-opacity:1;stop-color:#afaeae" /><stop
         id="stop656"
         offset="0.63363756"
         style="stop-opacity:1;stop-color:#afaeae" /><stop
         id="stop658"
         offset="1"
         style="stop-opacity:1;stop-color:#6b6969" /></linearGradient><clipPath
       id="clipPath670"
       clipPathUnits="userSpaceOnUse"><path
         id="path668"
         d="m 2726.84,425.379 h 106.52 V 21.4297 H 2726.84 V 0 h 233.8 V 21.4297 H 2854.79 V 425.379 h 105.85 v 21.441 h -233.8 z" /></clipPath><linearGradient
       id="linearGradient690"
       spreadMethod="pad"
       gradientTransform="matrix(3897.15,9.2569,9.2569,-3897.15,-137.098,216.33)"
       gradientUnits="userSpaceOnUse"
       y2="0"
       x2="1"
       y1="0"
       x1="0"><stop
         id="stop672"
         offset="0"
         style="stop-opacity:1;stop-color:#6b6969" /><stop
         id="stop674"
         offset="0.2133835"
         style="stop-opacity:1;stop-color:#cac9c9" /><stop
         id="stop676"
         offset="0.306551"
         style="stop-opacity:1;stop-color:#cac9c9" /><stop
         id="stop678"
         offset="0.3454335"
         style="stop-opacity:1;stop-color:#cac9c9" /><stop
         id="stop680"
         offset="0.46952"
         style="stop-opacity:1;stop-color:#e9e9e9" /><stop
         id="stop682"
         offset="0.47986264"
         style="stop-opacity:1;stop-color:#e9e9e9" /><stop
         id="stop684"
         offset="0.614235"
         style="stop-opacity:1;stop-color:#afaeae" /><stop
         id="stop686"
         offset="0.63363756"
         style="stop-opacity:1;stop-color:#afaeae" /><stop
         id="stop688"
         offset="1"
         style="stop-opacity:1;stop-color:#6b6969" /></linearGradient><clipPath
       id="clipPath700"
       clipPathUnits="userSpaceOnUse"><path
         id="path698"
         d="m 3097.96,446.82 h -21.44 V 0 h 233.8 v 21.4297 h -212.36 z" /></clipPath><linearGradient
       id="linearGradient720"
       spreadMethod="pad"
       gradientTransform="matrix(3897.15,9.2569,9.2569,-3897.15,-137.096,215.5)"
       gradientUnits="userSpaceOnUse"
       y2="0"
       x2="1"
       y1="0"
       x1="0"><stop
         id="stop702"
         offset="0"
         style="stop-opacity:1;stop-color:#6b6969" /><stop
         id="stop704"
         offset="0.2133835"
         style="stop-opacity:1;stop-color:#cac9c9" /><stop
         id="stop706"
         offset="0.306551"
         style="stop-opacity:1;stop-color:#cac9c9" /><stop
         id="stop708"
         offset="0.3454335"
         style="stop-opacity:1;stop-color:#cac9c9" /><stop
         id="stop710"
         offset="0.46952"
         style="stop-opacity:1;stop-color:#e9e9e9" /><stop
         id="stop712"
         offset="0.47986264"
         style="stop-opacity:1;stop-color:#e9e9e9" /><stop
         id="stop714"
         offset="0.614235"
         style="stop-opacity:1;stop-color:#afaeae" /><stop
         id="stop716"
         offset="0.63363756"
         style="stop-opacity:1;stop-color:#afaeae" /><stop
         id="stop718"
         offset="1"
         style="stop-opacity:1;stop-color:#6b6969" /></linearGradient><clipPath
       id="clipPath730"
       clipPathUnits="userSpaceOnUse"><path
         id="path728"
         d="M 3660,425.379 V 446.82 H 3426.2 V 0 H 3660 V 21.4297 H 3447.64 V 212.352 H 3660 v 21.437 h -212.36 v 191.59 z" /></clipPath><linearGradient
       id="linearGradient750"
       spreadMethod="pad"
       gradientTransform="matrix(3897.15,9.2569,9.2569,-3897.15,-137.094,214.67)"
       gradientUnits="userSpaceOnUse"
       y2="0"
       x2="1"
       y1="0"
       x1="0"><stop
         id="stop732"
         offset="0"
         style="stop-opacity:1;stop-color:#6b6969" /><stop
         id="stop734"
         offset="0.2133835"
         style="stop-opacity:1;stop-color:#cac9c9" /><stop
         id="stop736"
         offset="0.306551"
         style="stop-opacity:1;stop-color:#cac9c9" /><stop
         id="stop738"
         offset="0.3454335"
         style="stop-opacity:1;stop-color:#cac9c9" /><stop
         id="stop740"
         offset="0.46952"
         style="stop-opacity:1;stop-color:#e9e9e9" /><stop
         id="stop742"
         offset="0.47986264"
         style="stop-opacity:1;stop-color:#e9e9e9" /><stop
         id="stop744"
         offset="0.614235"
         style="stop-opacity:1;stop-color:#afaeae" /><stop
         id="stop746"
         offset="0.63363756"
         style="stop-opacity:1;stop-color:#afaeae" /><stop
         id="stop748"
         offset="1"
         style="stop-opacity:1;stop-color:#6b6969" /></linearGradient></defs><g
     transform="matrix(1.3333333,0,0,-1.3333333,0,364.45333)"
     id="g10"><g
       transform="scale(0.1)"
       id="g12"><path
         id="path14"
         style="fill:#90191e;fill-opacity:1;fill-rule:nonzero;stroke:none"
         d="m 789.379,2418.18 -122.641,-47.1 c -16.105,-6.19 -34.34,1.93 -40.523,18.03 l -17.852,46.49 c -6.183,16.11 1.93,34.34 18.035,40.53 l 122.637,47.09 c 16.106,6.19 34.34,-1.93 40.524,-18.03 l 17.851,-46.49 c 6.184,-16.1 -1.93,-34.34 -18.031,-40.52" /><path
         id="path16"
         style="fill:#90191e;fill-opacity:1;fill-rule:nonzero;stroke:none"
         d="M 526.273,2251.93 454.492,2141.9 c -9.426,-14.45 -28.957,-18.56 -43.402,-9.13 l -41.707,27.21 c -14.449,9.42 -18.559,28.95 -9.133,43.4 l 71.781,110.03 c 9.43,14.45 28.961,18.55 43.407,9.13 l 41.707,-27.21 c 14.449,-9.43 18.554,-28.96 9.128,-43.4" /><path
         id="path18"
         style="fill:#90191e;fill-opacity:1;fill-rule:nonzero;stroke:none"
         d="m 435.77,1970.36 25.187,-132.31 c 3.055,-16.05 0.219,-20.8 -19.586,-30.32 l -56.219,-14.35 c -16.047,-3.06 -31.679,7.58 -34.734,23.63 l -25.188,132.31 c -3.054,16.05 7.579,31.68 23.625,34.73 l 52.18,9.94 c 16.047,3.05 31.68,-7.58 34.735,-23.63" /><path
         id="path20"
         style="fill:#90191e;fill-opacity:1;fill-rule:nonzero;stroke:none"
         d="m 1339.07,2348.84 73.48,-112.89 c 8.91,-13.69 5,-32.18 -8.69,-41.1 l -44.52,-28.97 c -18.31,-6.25 -32.18,-5 -41.1,8.69 l -73.47,112.88 c -8.92,13.69 -5,32.19 8.69,41.1 l 44.51,28.98 c 13.7,8.91 32.19,5 41.1,-8.69" /><path
         id="path22"
         style="fill:#90191e;fill-opacity:1;fill-rule:nonzero;stroke:none"
         d="m 1013.7,2532.64 125.42,-39.11 c 16.47,-5.14 25.74,-22.81 20.6,-39.28 l -14.82,-47.54 c -5.14,-16.47 -22.81,-25.74 -39.28,-20.6 l -125.417,39.1 c -16.469,5.14 -25.738,22.82 -20.601,39.28 l 14.824,47.54 c 5.133,16.47 22.808,25.74 39.274,20.61" /><path
         id="path24"
         style="fill:#90191e;fill-opacity:1;fill-rule:nonzero;stroke:none"
         d="m 503.707,1827.62 c 0.918,0.35 1.738,0.92 2.606,1.38 -10.657,36.64 -20.504,82.86 -20.504,122.89 0,228.07 185.543,413.61 413.605,413.61 158.006,0 298.886,-93.82 368.516,-224.37 30.99,6.48 58.75,14.34 91.41,24.75 -79.86,173.22 -257,290.12 -459.926,290.12 -277.969,0 -504.113,-226.14 -504.113,-504.11 0,-55.65 3.894,-101.43 20.625,-151.52 1.328,0.71 24.047,7 25.445,7.36 28.402,7.36 36.949,10.07 62.336,19.89" /><path
         id="path26"
         style="fill:#90191e;fill-opacity:1;fill-rule:nonzero;stroke:none"
         d="m 569.238,1971.13 c 0,179.56 146.082,325.64 325.645,325.64 124.107,0 232.187,-69.81 287.127,-172.2 10.33,2.77 20.68,5.44 31.05,8.01 -59.04,115.88 -179.45,195.49 -318.177,195.49 -196.82,0 -356.942,-160.12 -356.942,-356.94 0,-40.04 6.727,-78.52 18.942,-114.49 9.277,5.12 18.555,10.23 27.859,15.28 -10.035,31.3 -15.504,64.62 -15.504,99.21" /><g
         id="g28"><g
           clip-path="url(#clipPath34)"
           id="g30"><path
             id="path56"
             style="fill:url(#linearGradient54);fill-opacity:1;fill-rule:nonzero;stroke:none"
             d="m 693.371,1018.77 c 0.082,0.5 0.145,0.89 0.145,0.89 -24.532,4.74 -49.157,8.99 -73.864,12.67 -74.027,11.67 -148.527,20.57 -223.281,25.98 l -0.367,-3.78 c 23.531,-15.69 47.484,-25.18 71.59,-32.96 73.336,-21.23 149.289,-29 224,-6.03 C 643.43,929.309 534.309,876.641 444.613,931.59 377.609,973.691 333.23,1117.7 319.48,1194.03 c -32.554,180.47 7.77,375.75 118.208,523.25 29.39,42.16 83.57,41.58 129.527,52.93 67.062,12.74 135.121,20.1 203.414,22.8 28.219,-0.72 54.644,12.86 74.547,32.37 -0.356,-0.52 -0.738,-1.02 -1.098,-1.55 178.442,187.56 434.612,286.63 691.692,266.62 74.89,-2.7 157.3,-6.12 231.19,-16.68 70,-8.87 139.95,-18.68 208.04,-38 -32.64,-23.25 -57.71,-56.97 -69.13,-95 10.43,20.57 24.44,38.81 40.8,54.06 21.89,20.92 49.32,33.99 77.06,44.36 0,0 -22.61,8.94 -22.62,8.94 -73.15,29.55 -150.99,45.28 -228.08,61.62 -74.38,16.95 -158.61,23.09 -235.04,27.32 -260.81,24.25 -535.6,-88.84 -687.388,-304.03 -21.844,-19.79 -50.168,-33.13 -79.914,-29.75 -34.508,1.81 -69.133,1.67 -103.75,0.38 -51.918,-2.38 -103.895,-7.78 -155.098,-17.06 -25.473,-4.29 -57.102,-10.51 -78.524,-29.07 -139.675,-145.22 -187.64,-375.75 -149.003,-570.19 18.148,-86.03 67.917,-232.678 147.828,-277.12 101.586,-54.902 218.636,5.59 260.25,105.54 0.172,0.06 0.343,0.1 0.519,0.15 0,0 0.145,0.9 0.293,1.81 0.402,1 0.848,1.98 1.238,2.98 -0.343,-0.65 -0.718,-1.29 -1.07,-1.94" /></g></g><g
         id="g58"><g
           clip-path="url(#clipPath64)"
           id="g60"><path
             id="path86"
             style="fill:url(#linearGradient84);fill-opacity:1;fill-rule:nonzero;stroke:none"
             d="m 1184.6,1596.9 c 210.53,99.26 437.82,129.09 668.7,124.83 -223.68,58.61 -485.61,21.61 -668.7,-124.83" /></g></g><g
         id="g88"><g
           clip-path="url(#clipPath94)"
           id="g90"><path
             id="path116"
             style="fill:url(#linearGradient114);fill-opacity:1;fill-rule:nonzero;stroke:none"
             d="m 2378.41,1998.83 c -94.16,71.93 -238.45,74.01 -329.94,-3.88 -30.12,-24.99 -55.14,-53.87 -77.93,-83.29 -46.1,-58.7 -87.21,-121.82 -117.24,-189.93 65.36,87.44 133.62,176.24 217.15,245.23 83.01,65.23 203.62,63.26 291.27,7.32 59.49,-37.37 107.3,-95.85 129.98,-166.69 -6.89,74.54 -50.73,145.57 -113.29,191.24" /></g></g><g
         id="g118"><g
           clip-path="url(#clipPath124)"
           id="g120"><path
             id="path146"
             style="fill:url(#linearGradient144);fill-opacity:1;fill-rule:nonzero;stroke:none"
             d="m 2149.62,1781.15 c -20.58,-4.24 -43.86,-8.04 -64.35,-14.9 -21.23,-6.94 -41.85,-15.54 -60.9,-26.82 21.43,5.44 42.64,10.25 64.07,13.23 40.88,8.45 125.08,-4.66 116.75,61.06 -20.07,78.94 -130.61,80.57 -188.28,44.58 -39.65,-23.46 -67.24,-63.33 -80.29,-106.4 34.19,55.06 84.44,98.64 149.26,101.56 35.45,2.74 94.83,-11.31 93.2,-54.66 -3.96,-11.24 -16.61,-13.98 -29.46,-17.65" /></g></g><g
         id="g148"><g
           clip-path="url(#clipPath154)"
           id="g150"><path
             id="path176"
             style="fill:url(#linearGradient174);fill-opacity:1;fill-rule:nonzero;stroke:none"
             d="m 2491.7,1807.59 c -34.32,-24.07 -70.55,-43 -108.4,-57.32 -114.69,-42.54 -241.41,-45.43 -358.93,-10.84 140,-86.46 360.77,-60.52 467.33,68.16" /></g></g><g
         id="g178"><g
           clip-path="url(#clipPath184)"
           id="g180"><path
             id="path206"
             style="fill:url(#linearGradient204);fill-opacity:1;fill-rule:nonzero;stroke:none"
             d="m 1782.97,1491.01 c 100.33,105.3 191.01,-0.62 244.41,-93.09 -27.94,67.73 -72.95,150.4 -154.53,159.13 -84.15,4.47 -141.15,-75.76 -175.76,-141.75 -65.88,-136.29 -86.59,-296.89 -48.57,-443.249 -17.88,165.289 20.69,393.419 134.45,518.959" /></g></g><g
         id="g208"><g
           clip-path="url(#clipPath214)"
           id="g210"><path
             id="path236"
             style="fill:url(#linearGradient234);fill-opacity:1;fill-rule:nonzero;stroke:none"
             d="m 1884.58,1357.2 c 25.93,2.42 57.01,-7.09 72.35,-28.54 12.85,-17.31 32.13,-36.31 46.54,-68.73 -4.61,10.38 -10.72,38 -13.48,48.81 -6.11,23.07 -10.77,43.01 -20.74,66.48 -18.78,44.18 -60.5,88.87 -117.09,54.04 -81.97,-50.44 -102.68,-169.33 -117.09,-348.57 l 5.68,4.48 c 20.85,83.31 22.16,162.95 72.68,230.6 14.96,18.98 46.17,37.97 71.15,41.43" /></g></g><g
         id="g238"><g
           clip-path="url(#clipPath244)"
           id="g240"><path
             id="path266"
             style="fill:url(#linearGradient264);fill-opacity:1;fill-rule:nonzero;stroke:none"
             d="m 545.078,1306.45 c -25.078,0.27 -50.586,0.17 -75.715,0.13 l -8.086,-0.05 c -3.441,-0.18 -8.855,-0.4 -15.25,-3.65 -6.48,-3.37 -10.484,-8.67 -12.687,-12.53 -23.707,-52.49 -33.645,-109.6 -35.031,-167.02 l 19.339,-0.11 c 280.856,-2.12 561.45,-24.08 840.192,-58.37 -268.77,60.74 -544.305,90.21 -819.699,95.34 3.937,37.23 12.914,74.51 26.613,109.24 2.059,0.03 4.93,0.07 4.93,0.07 105.382,1.11 210.785,0.47 316.14,-2.32 160.934,-3.79 321.336,-13.36 482.026,-24.3 -238.52,41.55 -480.748,60.74 -722.772,63.57" /></g></g><g
         id="g268"><g
           clip-path="url(#clipPath274)"
           id="g270"><path
             id="path296"
             style="fill:url(#linearGradient294);fill-opacity:1;fill-rule:nonzero;stroke:none"
             d="m 589.129,1212.97 0.023,-1.9 c 95.036,-9.27 189.653,-11.12 284.868,-13.99 94.972,-4.27 189.82,-11.64 284.35,-22.1 l 0.26,1.88 c -93.97,15.8 -188.634,27.6 -283.653,35.35 -95.032,9.17 -190.774,12.21 -285.848,0.76" /></g></g><g
         id="g298"><g
           clip-path="url(#clipPath304)"
           id="g300"><path
             id="path326"
             style="fill:url(#linearGradient324);fill-opacity:1;fill-rule:nonzero;stroke:none"
             d="m 665.406,1587.22 c 123.207,-51.06 263.676,-63.71 393.984,-35.17 -132.683,-2.13 -263.796,9.47 -393.984,35.17" /></g></g><g
         id="g328"><g
           clip-path="url(#clipPath334)"
           id="g330"><path
             id="path356"
             style="fill:url(#linearGradient354);fill-opacity:1;fill-rule:nonzero;stroke:none"
             d="m 1060.67,1489.38 c -141.119,-13.21 -282.424,1.88 -417.49,44.87 125.636,-67.94 280.289,-84.66 417.49,-44.87" /></g></g><g
         id="g358"><g
           clip-path="url(#clipPath364)"
           id="g360"><path
             id="path386"
             style="fill:url(#linearGradient384);fill-opacity:1;fill-rule:nonzero;stroke:none"
             d="m 373.426,1554.38 c 47.586,-52.58 126.605,-56.58 192.398,-53.39 0.922,13.37 0.278,29.94 -6.379,41 -27.406,46.72 -79.804,78.81 -132.605,85.05 38.027,-20.15 72.062,-46.75 97.664,-81.09 4.418,-5.86 8.082,-11.82 10.457,-17.49 -55.625,-1.21 -110.781,0.47 -161.535,25.92" /></g></g><g
         id="g388"><g
           clip-path="url(#clipPath394)"
           id="g390"><g
             clip-path="url(#clipPath400)"
             id="g396"><path
               id="path422"
               style="fill:url(#linearGradient420);fill-opacity:1;fill-rule:nonzero;stroke:none"
               d="m 1795,838 v 1 h -22 v 1 h -7 v 1 h 4 v 1 h 4 v 1 h 4 v 1 h 5 v 1 h 4 v 1 h 5 v 1 h 4 v 1 h 5 v 1 h 4 v 1 h 5 v 1 h 4 v 1 h 5 v 1 h 4 v 1 h 4 v 1 h 5 v 1 h 4 v 1 h 5 v 1 h 4 v 1 h 5 v 1 h 4 v 1 h 5 v 1 h 4 v 1 h 5 v 1 h 4 v 1 h 5 v 1 h 4 v 1 h 5 v 1 h 4 v 1 h 4 v 1 h 5 v 1 h 4 v 1 h 5 v 1 h 4 v 1 h 5 v 1 h 4 v 1 h 5 v 1 h 4 v 1 h 5 v 1 h 4 v 1 h 5 v 1 h 4 v 1 h 4 v 1 h 5 v 1 h 4 v 1 h 4 v 1 h 5 v 1 h 4 v 1 h 5 v 1 h 4 v 1 h 4 v 1 h 5 v 1 h 4 v 1 h 5 v 1 h 4 v 1 h 4 v 1 h 5 v 1 h 4 v 1 h 5 v 1 h 4 v 1 h 4 v 1 h 5 v 1 h 4 v 1 h 4 v 1 h 4 v 1 h 5 v 1 h 4 v 1 h 4 v 1 h 4 v 1 h 5 v 1 h 4 v 1 h 4 v 1 h 4 v 1 h 5 v 1 h 4 v 1 h 4 v 1 h 4 v 1 h 5 v 1 h 4 v 1 h 4 v 1 h 4 v 1 h 4 v 1 h 5 v 1 h 4 v 1 h 4 v 1 h 4 v 1 h 4 v 1 h 4 v 1 h 4 v 1 h 4 v 1 h 4 v 1 h 4 v 1 h 4 v 1 h 4 v 1 h 4 v 1 h 4 v 1 h 5 v 1 h 4 v 1 h 4 v 1 h 4 v 1 h 4 v 1 h 4 v 1 h 4 v 1 h 4 v 1 h 4 v 1 h 4 v 1 h 4 v 1 h 4 v 1 h 4 v 1 h 4 v 1 h 3 v 1 h 4 v 1 h 4 v 1 h 4 v 1 h 4 v 1 h 3 v 1 h 4 v 1 h 4 v 1 h 4 v 1 h 3 v 1 h 4 v 1 h 4 v 1 h 4 v 1 h 4 v 1 h 3 v 1 h 4 v 1 h 4 v 1 h 4 v 1 h 4 v 1 h 3 v 1 h 4 v 1 h 4 v 1 h 4 v 1 h 3 v 1 h 4 v 1 h 4 v 1 h 3 v 1 h 4 v 1 h 3 v 1 h 4 v 1 h 3 v 1 h 4 v 1 h 3 v 1 h 4 v 1 h 3 v 1 h 4 v 1 h 3 v 1 h 4 v 1 h 3 v 1 h 4 v 1 h 3 v 1 h 4 v 1 h 3 v 1 h 4 v 1 h 3 v 1 h 4 v 1 h 3 v 1 h 4 v 1 h 3 v 1 h 4 v 1 h 3 v 1 h 4 v 1 h 3 v 1 h 3 v 1 h 4 v 1 h 3 v 1 h 3 v 1 h 3 v 1 h 4 v 1 h 3 v 1 h 3 v 1 h 3 v 1 h 4 v 1 h 3 v 1 h 3 v 1 h 3 v 1 h 4 v 1 h 3 v 1 h 3 v 1 h 4 v 1 h 3 v 1 h 3 v 1 h 3 v 1 h 4 v 1 h 3 v 1 h 3 v 1 h 3 v 1 h 3 v 1 h 3 v 1 h 3 v 1 h 3 v 1 h 3 v 1 h 3 v 1 h 3 v 1 h 3 v 1 h 3 v 1 h 4 v 1 h 3 v 1 h 3 v 1 h 2 v 1 h 3 v 1 h 3 v 1 h 3 v 1 h 3 v 1 h 3 v 1 h 3 v 1 h 3 v 1 h 3 v 1 h 3 v 1 h 3 v 1 h 3 v 1 h 3 v 1 h 3 v 1 h 3 v 1 h 3 v 1 h 3 v 1 h 3 v 1 h 3 v 1 h 2 v 1 h 3 v 1 h 3 v 1 h 3 v 1 h 3 v 1 h 2 v 1 h 3 v 1 h 3 v 1 h 3 v 1 h 3 v 1 h 2 v 1 h 3 v 1 h 3 v 1 h 3 v 1 h 3 v 1 h 2 v 1 h 3 v 1 h 3 v 1 h 3 v 1 h 3 v 1 h 3 v 1 h 2 v 1 h 3 v 1 h 3 v 1 h 3 v 1 h 3 v 1 h 2 v 1 h 3 v 1 h 3 v 1 h 2 v 1 h 3 v 1 h 3 v 1 h 2 v 1 h 3 v 1 h 3 v 1 h 2 v 1 h 3 v 1 h 2 v 1 h 3 v 1 h 3 v 1 h 2 v 1 h 3 v 1 h 3 v 1 h 2 v 1 h 3 v 1 h 3 v 1 h 2 v 1 h 3 v 1 h 3 v 1 h 2 v 1 h 3 v 1 h 3 v 1 h 2 v 1 h 3 v 1 h 2 v 1 h 3 v 1 h 2 v 1 h 3 v 1 h 2 v 1 h 3 v 1 h 2 v 1 h 3 v 1 h 2 v 1 h 3 v 1 h 2 v 1 h 3 v 1 h 2 v 1 h 3 v 1 h 2 v 1 h 3 v 1 h 2 v 1 h 3 v 1 h 2 v 1 h 3 v 1 h 2 v 1 h 3 v 1 h 2 v 1 h 3 v 1 h 2 v 1 h 3 v 1 h 2 v 1 h 3 v 1 h 2 v 1 h 3 v 1 h 2 v 1 h 2 v 1 h 3 v 1 h 2 v 1 h 2 v 1 h 3 v 1 h 2 v 1 h 3 v 1 h 2 v 1 h 2 v 1 h 3 v 1 h 2 v 1 h 2 v 1 h 3 v 1 h 2 v 1 h 2 v 1 h 3 v 1 h 2 v 1 h 2 v 1 h 3 v 1 h 2 v 1 h 2 v 1 h 3 v 1 h 2 v 1 h 3 v 1 h 2 v 1 h 2 v 1 h 3 v 1 h 2 v 1 h 2 v 1 h 2 v 1 h 2 v 1 h 3 v 1 h 2 v 1 h 2 v 1 h 2 v 1 h 3 v 1 h 2 v 1 h 2 v 1 h 2 v 1 h 2 v 1 h 3 v 1 h 2 v 1 h 2 v 1 h 2 v 1 h 3 v 1 h 2 v 1 h 2 v 1 h 2 v 1 h 2 v 1 h 3 v 1 h 2 v 1 h 2 v 1 h 2 v 1 h 3 v 1 h 2 v 1 h 2 v 1 h 2 v 1 h 2 v 1 h 2 v 1 h 2 v 1 h 3 v 1 h 2 v 1 h 2 v 1 h 2 v 1 h 2 v 1 h 2 v 1 h 2 v 1 h 2 v 1 h 2 v 1 h 2 v 1 h 2 v 1 h 3 v 1 h 2 v 1 h 2 v 1 h 2 v 1 h 2 v 1 h 2 v 1 h 2 v 1 h 2 v 1 h 2 v 1 h 2 v 1 h 2 v 1 h 2 v 1 h 3 v 1 h 2 v 1 h 2 v 1 h 2 v 1 h 2 v 1 h 2 v 1 h 2 v 1 h 2 v 1 h 2 v 1 h 2 v 1 h 2 v 1 h 2 v 1 h 2 v 1 h 2 v 1 h 1 v 1 h 2 v 1 h 2 v 1 h 2 v 1 h 2 v 1 h 2 v 1 h 2 v 1 h 2 v 1 h 2 v 1 h 2 v 1 h 2 v 1 h 2 v 1 h 2 v 1 h 2 v 1 h 2 v 1 h 2 v 1 h 2 v 1 h 2 v 1 h 2 v 1 h 2 v 1 h 2 v 1 h 2 v 1 h 2 v 1 h 1 v 1 h 2 v 1 h 2 v 1 h 2 v 1 h 2 v 1 h 2 v 1 h 1 v 1 h 2 v 1 h 2 v 1 h 2 v 1 h 2 v 1 h 2 v 1 h 1 v 1 h 2 v 1 h 2 v 1 h 2 v 1 h 2 v 1 h 2 v 1 h 1 v 1 h 2 v 1 h 2 v 1 h 2 v 1 h 2 v 1 h 2 v 1 h 2 v 1 h 1 v 1 h 2 v 1 h 2 v 1 h 2 v 1 h 2 v 1 h 2 v 1 h 1 v 1 h 2 v 1 h 2 v 1 h 1 v 1 h 2 v 1 h 2 v 1 h 2 v 1 h 1 v 1 h 2 v 1 h 2 v 1 h 1 v 1 h 2 v 1 h 2 v 1 h 2 v 1 h 1 v 1 h 2 v 1 h 2 v 1 h 1 v 1 h 2 v 1 h 2 v 1 h 2 v 1 h 1 v 1 h 2 v 1 h 2 v 1 h 2 v 1 h 1 v 1 h 2 v 1 h 2 v 1 h 1 v 1 h 2 v 1 h 2 v 1 h 2 v 1 h 1 v 1 h 2 v 1 h 1 v 1 h 2 v 1 h 2 v 1 h 1 v 1 h 2 v 1 h 1 v 1 h 2 v 1 h 2 v 1 h 1 v 1 h 2 v 1 h 1 v 1 h 2 v 1 h 2 v 1 h 1 v 1 h 2 v 1 h 1 v 1 h 2 v 1 h 2 v 1 h 1 v 1 h 2 v 1 h 1 v 1 h 2 v 1 h 2 v 1 h 1 v 1 h 2 v 1 h 1 v 1 h 2 v 1 h 2 v 1 h 1 v 1 h 2 v 1 h 2 v 1 h 1 v 1 h 1 v 1 h 2 v 1 h 1 v 1 h 2 v 1 h 1 v 1 h 2 v 1 h 1 v 1 h 2 v 1 h 1 v 1 h 2 v 1 h 1 v 1 h 2 v 1 h 1 v 1 h 2 v 1 h 1 v 1 h 2 v 1 h 1 v 1 h 2 v 1 h 1 v 1 h 2 v 1 h 1 v 1 h 2 v 1 h 1 v 1 h 2 v 1 h 1 v 1 h 2 v 1 h 1 v 1 h 2 v 1 h 1 v 1 h 2 v 1 h 1 v 1 h 2 v 1 h 1 v 1 h 1 v 1 h 2 v 1 h 1 v 1 h 2 v 1 h 1 v 1 h 1 v 1 h 2 v 1 h 1 v 1 h 2 v 1 h 1 v 1 h 1 v 1 h 2 v 1 h 1 v 1 h 1 v 1 h 2 v 1 h 1 v 1 h 2 v 1 h 1 v 1 h 1 v 1 h 2 v 1 h 1 v 1 h 1 v 1 h 2 v 1 h 1 v 1 h 2 v 1 h 1 v 1 h 1 v 1 h 2 v 1 h 1 v 1 h 1 v 1 h 2 v 1 h 1 v 1 h 2 v 1 h 1 v 1 h 1 v 1 h 1 v 1 h 2 v 1 h 1 v 1 h 1 v 1 h 1 v 1 h 2 v 1 h 1 v 1 h 1 v 1 h 2 v 1 h 1 v 1 h 1 v 1 h 1 v 1 h 2 v 1 h 1 v 1 h 1 v 1 h 1 v 1 h 2 v 1 h 1 v 1 h 1 v 1 h 1 v 1 h 2 v 1 h 1 v 1 h 1 v 1 h 2 v 1 h 1 v 1 h 1 v 1 h 1 v 1 h 2 v 1 h 1 v 1 h 1 v 1 h 1 v 1 h 2 v 1 h 1 v 1 h 1 v 1 h 1 v 1 h 1 v 1 h 1 v 1 h 2 v 1 h 1 v 1 h 1 v 1 h 1 v 1 h 1 v 1 h 1 v 1 h 2 v 1 h 1 v 1 h 1 v 1 h 1 v 1 h 1 v 1 h 1 v 1 h 2 v 1 h 1 v 1 h 1 v 1 h 1 v 1 h 1 v 1 h 1 v 1 h 1 v 1 h 2 v 1 h 1 v 1 h 1 v 1 h 1 v 1 h 1 v 1 h 1 v 1 h 2 v 1 h 1 v 1 h 1 v 1 h 1 v 1 h 1 v 1 h 1 v 1 h 1 v 1 h 1 v 1 h 1 v 1 h 1 v 1 h 2 v 1 h 1 v 1 h 1 v 1 h 1 v 1 h 1 v 1 h 1 v 1 h 1 v 1 h 1 v 1 h 1 v 1 h 1 v 1 h 1 v 1 h 1 v 1 h 1 v 1 h 1 v 1 h 1 v 1 h 2 v 1 h 1 v 1 h 1 v 1 h 1 v 1 h 1 v 1 h 1 v 1 h 1 v 1 h 1 v 1 h 1 v 1 h 1 v 1 h 1 v 1 h 1 v 1 h 1 v 1 h 1 v 1 h 1 v 1 h 1 v 1 h 1 v 1 h 1 v 1 h 1 v 1 h 1 v 1 h 1 v 1 h 1 v 1 h 1 v 1 h 1 v 1 h 1 v 1 h 1 v 1 h 1 v 2 h 1 v 1 h 1 v 1 h 1 v 1 h 1 v 1 h 1 v 1 h 1 v 1 h 1 v 1 h 1 v 1 h 1 v 1 h 1 v 2 h 1 v 1 h 1 v 1 h 1 v 1 h 1 v 1 h 1 v 1 h 1 v 1 h 1 v 1 h 1 v 1 h 1 v 2 h 1 v 1 h 1 v 1 h 1 v 1 h 1 v 1 h 1 v 1 h 1 v 1 h 1 v 1 h 1 v 1 h 1 v 1 h 1 v 2 h 1 v 1 h 1 v 1 h 1 v 1 h 1 v 2 h 1 v 1 h 1 v 1 h 1 v 1 h 1 v 2 h 1 v 1 h 1 v 1 h 1 v 1 h 1 v 2 h 1 v 1 h 1 v 1 h 1 v 1 h 1 v 2 h 1 v 1 h 1 v 1 h 1 v 1 h 1 v 2 h 1 v 1 h 1 v 1 h 1 v 1 h 1 v 2 h 1 v 1 h 1 v 1 h 1 v 1 h 1 v 2 h 1 v 1 h 1 v 1 h 1 v 1 h 1 v 2 h 1 v 1 h 1 v 1 h 1 v 2 h 1 v 1 h 1 v 2 h 1 v 1 h 1 v 2 h 1 v 1 h 1 v 1 h 1 v 2 h 1 v 1 h 1 v 2 h 1 v 1 h 1 v 2 h 1 v 1 h 1 v 2 h 1 v 1 h 1 v 2 h 1 v 1 h 1 v 2 h 1 v 1 h 1 v 2 h 1 v 1 h 1 v 2 h 1 v 1 h 1 v 2 h 1 v 1 h 1 v 2 h 1 v 1 h 1 v 2 h 1 v 1 h 1 v 2 h 1 v 1 h 1 v 2 h 1 v 2 h 1 v 2 h 1 v 2 h 1 v 1 h 1 v 2 h 1 v 2 h 1 v 2 h 1 v 2 h 1 v 2 h 1 v 1 h 1 v 2 h 1 v 2 h 1 v 2 h 1 v 2 h 1 v 1 h 1 v 2 h 1 v 2 h 1 v 2 h 1 v 2 h 1 v 2 h 1 v 1 h 1 v 2 h 1 v 2 h 1 v 3 h 1 v 2 h 1 v 2 h 1 v 3 h 1 v 2 h 1 v 2 h 1 v 3 h 1 v 2 h 1 v 2 h 1 v 3 h 1 v 2 h 1 v 2 h 1 v 3 h 1 v 2 h 1 v 3 h 1 v 2 h 1 v 2 h 1 v 3 h 1 v 2 h 1 v 4 h 1 v 3 h 1 v 3 h 1 v 4 h 1 v 3 h 1 v 3 h 1 v 4 h 1 v 3 h 1 v 3 h 1 v 4 h 1 v 3 h 1 v 3 h 1 v 4 h 1 v 5 h 1 v 6 h 1 v 6 h 1 v 5 h 1 v 6 h 1 v 6 h 1 v 5 h 1 v 8 h 1 v 13 h 1 v 14 h 1 v 16 h -1 v 12 h -1 v 9 h -1 v 8 h -1 v 5 h -1 v 6 h -1 v 5 h -1 v 5 h -1 v 5 h -1 v 5 h -1 v 3 h -1 v 4 h -1 v 3 h -1 v 4 h -1 v 3 h -1 v 4 h -1 v 3 h -1 v 4 h -1 v 2 h -1 v 3 h -1 v 2 h -1 v 3 h -1 v 3 h -1 v 2 h -1 v 3 h -1 v 2 h -1 v 3 h -1 v 2 h -1 v 3 h -1 v 2 h -1 v 2 h -1 v 2 h -1 v 2 h -1 v 2 h -1 v 2 h -1 v 2 h -1 v 3 h -1 v 2 h -1 v 2 h -1 v 2 h -1 v 2 h -1 v 2 h -1 v 2 h -1 v 1 h -1 v 2 h -1 v 2 h -1 v 1 h -1 v 2 h -1 v 2 h -1 v 2 h -1 v 1 h -1 v 2 h -1 v 2 h -1 v 1 h -1 v 2 h -1 v 2 h -1 v 2 h -1 v 1 h -1 v 2 h -1 v 1 h -1 v 1 h -1 v 2 h -1 v 1 h -1 v 2 h -1 v 1 h -1 v 2 h -1 v 1 h -1 v 2 h -1 v 1 h -1 v 2 h -1 v 1 h -1 v 2 h -1 v 1 h -1 v 1 h -1 v 2 h -1 v 1 h -1 v 1 h -1 v 2 h -1 v 1 h -1 v 1 h -1 v 1 h -1 v 2 h -1 v 1 h -1 v 1 h -1 v 2 h -1 v 1 h -1 v 1 h -1 v 1 h -1 v 2 h -1 v 1 h -1 v 1 h -1 v 2 h -1 v 1 h -1 v 1 h -1 v 1 h -1 v 1 h -1 v 1 h -1 v 2 h -1 v 1 h -1 v 1 h -1 v 1 h -1 v 1 h -1 v 1 h -1 v 1 h -1 v 1 h -1 v 2 h -1 v 1 h -1 v 1 h -1 v 1 h -1 v 1 h -1 v 1 h -1 v 1 h -1 v 2 h -1 v 1 h -1 v 1 h -1 v 1 h -1 v 1 h -1 v 1 h -1 v 1 h -1 v 1 h -1 v 1 h -1 v 1 h -1 v 1 h -1 v 1 h -1 v 1 h -1 v 1 h -1 v 1 h -1 v 1 h -1 v 1 h -1 v 1 h -1 v 1 h -1 v 1 h -1 v 1 h -1 v 1 h -1 v 1 h -1 v 1 h -1 v 1 h -1 v 1 h -1 v 1 h -1 v 1 h -1 v 1 h -1 v 1 h -1 v 1 h -2 v 1 h -1 v 1 h -1 v 1 h -1 v 1 h -1 v 1 h -1 v 1 h -1 v 1 h -1 v 1 h -1 v 1 h -1 v 1 h -1 v 1 h -1 v 1 h -1 v 1 h -1 v 1 h -2 v 1 h -1 v 1 h -1 v 1 h -1 v 1 h -1 v 1 h -1 v 1 h -2 v 1 h -1 v 1 h -1 v 1 h -1 v 1 h -1 v 1 h -1 v 1 h -2 v 1 h -1 v 1 h -1 v 1 h -1 v 1 h -1 v 1 h -1 v 1 h -2 v 1 h -1 v 1 h -1 v 1 h -1 v 1 h -2 v 1 h -1 v 1 h -1 v 1 h -1 v 1 h -2 v 1 h -1 v 1 h -1 v 1 h -1 v 1 h -2 v 1 h -1 v 1 h -1 v 1 h -1 v 1 h -2 v 1 h -1 v 1 h -1 v 1 h -1 v 1 h -2 v 1 h -1 v 1 h -1 v 1 h -2 v 1 h -1 v 1 h -1 v 1 h -2 v 1 h -1 v 1 h -1 v 1 h -2 v 1 h -1 v 1 h -1 v 1 h -2 v 1 h -1 v 1 h -2 v 1 h -1 v 1 h -1 v 1 h -2 v 1 h -1 v 1 h -1 v 1 h -2 v 1 h -1 v 1 h -2 v 1 h -1 v 1 h -1 v 1 h -2 v 1 h -1 v 1 h -2 v 1 h -1 v 1 h -2 v 1 h -1 v 1 h -1 v 1 h -2 v 1 h -1 v 1 h -2 v 1 h -1 v 1 h -2 v 1 h -1 v 1 h -1 v 1 h -2 v 1 h -1 v 1 h -2 v 1 h -1 v 1 h -2 v 1 h -1 v 1 h -2 v 1 h -1 v 1 h -2 v 1 h -1 v 1 h -2 v 1 h -1 v 1 h -2 v 1 h -2 v 1 h -1 v 1 h -2 v 1 h -1 v 1 h -2 v 1 h -1 v 1 h -2 v 1 h -1 v 1 h -2 v 1 h -2 v 1 h -1 v 1 h -2 v 1 h -1 v 1 h -2 v 1 h -2 v 1 h -1 v 1 h -2 v 1 h -2 v 1 h -1 v 1 h -2 v 1 h -2 v 1 h -1 v 1 h -2 v 1 h -1 v 1 h -2 v 1 h -2 v 1 h -1 v 1 h -2 v 1 h -2 v 1 h -1 v 1 h -2 v 1 h -2 v 1 h -1 v 1 h -2 v 1 h -2 v 1 h -2 v 1 h -1 v 1 h -2 v 1 h -2 v 1 h -2 v 1 h -2 v 1 h -1 v 1 h -2 v 1 h -2 v 1 h -2 v 1 h -1 v 1 h -2 v 1 h -2 v 1 h -2 v 1 h -1 v 1 h -2 v 1 h -2 v 1 h -2 v 1 h -2 v 1 h -1 v 1 h -2 v 1 h -2 v 1 h -2 v 1 h -1 v 1 h -2 v 1 h -2 v 1 h -2 v 1 h -2 v 1 h -2 v 1 h -2 v 1 h -2 v 1 h -2 v 1 h -2 v 1 h -2 v 1 h -2 v 1 h -1 v 1 h -2 v 1 h -2 v 1 h -2 v 1 h -2 v 1 h -2 v 1 h -2 v 1 h -2 v 1 h -2 v 1 h -2 v 1 h -2 v 1 h -2 v 1 h -2 v 1 h -2 v 1 h -2 v 1 h -1 v 1 h -3 v 1 h -2 v 1 h -2 v 1 h -2 v 1 h -2 v 1 h -2 v 1 h -2 v 1 h -2 v 1 h -2 v 1 h -2 v 1 h -3 v 1 h -2 v 1 h -2 v 1 h -2 v 1 h -2 v 1 h -2 v 1 h -2 v 1 h -2 v 1 h -2 v 1 h -2 v 1 h -3 v 1 h -2 v 1 h -2 v 1 h -2 v 1 h -2 v 1 h -2 v 1 h -2 v 1 h -3 v 1 h -2 v 1 h -2 v 1 h -3 v 1 h -2 v 1 h -2 v 1 h -2 v 1 h -3 v 1 h -2 v 1 h -2 v 1 h -3 v 1 h -2 v 1 h -2 v 1 h -2 v 1 h -3 v 1 h -2 v 1 h -2 v 1 h -3 v 1 h -2 v 1 h -2 v 1 h -2 v 1 h -3 v 1 h -2 v 1 h -3 v 1 h -2 v 1 h -2 v 1 h -3 v 1 h -2 v 1 h -3 v 1 h -2 v 1 h -3 v 1 h -2 v 1 h -3 v 1 h -2 v 1 h -3 v 1 h -2 v 1 h -3 v 1 h -2 v 1 h -3 v 1 h -2 v 1 h -3 v 1 h -2 v 1 h -2 v 1 h -3 v 1 h -2 v 1 h -3 v 1 h -3 v 1 h -2 v 1 h -3 v 1 h -3 v 1 h -2 v 1 h -3 v 1 h -3 v 1 h -2 v 1 h -3 v 1 h -3 v 1 h -2 v 1 h -3 v 1 h -3 v 1 h -2 v 1 h -3 v 1 h -3 v 1 h -2 v 1 h -3 v 1 h -3 v 1 h -2 v 1 h -3 v 1 h -3 v 1 h -3 v 1 h -2 v 1 h -3 v 1 h -3 v 1 h -3 v 1 h -3 v 1 h -3 v 1 h -3 v 1 h -3 v 1 h -2 v 1 h -3 v 1 h -3 v 1 h -3 v 1 h -3 v 1 h -3 v 1 h -3 v 1 h -3 v 1 h -2 v 1 h -3 v 1 h -3 v 1 h -3 v 1 h -3 v 1 h -3 v 1 h -3 v 1 h -3 v 1 h -3 v 1 h -3 v 1 h -3 v 1 h -4 v 1 h -3 v 1 h -3 v 1 h -3 v 1 h -3 v 1 h -3 v 1 h -3 v 1 h -3 v 1 h -3 v 1 h -3 v 1 h -3 v 1 h -3 v 1 h -3 v 1 h -4 v 1 h -3 v 1 h -3 v 1 h -3 v 1 h -4 v 1 h -3 v 1 h -3 v 1 h -4 v 1 h -3 v 1 h -3 v 1 h -3 v 1 h -4 v 1 h -3 v 1 h -3 v 1 h -4 v 1 h -3 v 1 h -3 v 1 h -3 v 1 h -4 v 1 h -3 v 1 h -3 v 1 h -4 v 1 h -3 v 1 h -4 v 1 h -3 v 1 h -4 v 1 h -3 v 1 h -4 v 1 h -3 v 1 h -4 v 1 h -3 v 1 h -4 v 1 h -3 v 1 h -4 v 1 h -3 v 1 h -4 v 1 h -3 v 1 h -4 v 1 h -3 v 1 h -4 v 1 h -3 v 1 h -4 v 1 h -4 v 1 h -3 v 1 h -4 v 1 h -4 v 1 h -3 v 1 h -4 v 1 h -4 v 1 h -4 v 1 h -3 v 1 h -4 v 1 h -4 v 1 h -3 v 1 h -4 v 1 h -4 v 1 h -3 v 1 h -4 v 1 h -4 v 1 h -4 v 1 h -4 v 1 h -3 v 1 h -4 v 1 h -4 v 1 h -4 v 1 h -4 v 1 h -4 v 1 h -4 v 1 h -4 v 1 h -4 v 1 h -3 v 1 h -4 v 1 h -4 v 1 h -4 v 1 h -4 v 1 h -4 v 1 h -4 v 1 h -4 v 1 h -4 v 1 h -4 v 1 h -4 v 1 h -4 v 1 h -4 v 1 h -4 v 1 h -4 v 1 h -4 v 1 h -4 v 1 h -4 v 1 h -5 v 1 h -4 v 1 h -4 v 1 h -4 v 1 h -4 v 1 h -4 v 1 h -4 v 1 h -4 v 1 h -4 v 1 h -5 v 1 h -4 v 1 h -4 v 1 h -4 v 1 h -5 v 1 h -4 v 1 h -4 v 1 h -4 v 1 h -5 v 1 h -4 v 1 h -4 v 1 h -4 v 1 h -5 v 1 h -4 v 1 h -4 v 1 h -4 v 1 h -5 v 1 h -4 v 1 h -4 v 1 h -5 v 1 h -4 v 1 h -4 v 1 h -5 v 1 h -4 v 1 h -5 v 1 h -4 v 1 h -4 v 1 h -5 v 1 h -4 v 1 h -5 v 1 h -4 v 1 h -4 v 1 h -5 v 1 h -4 v 1 h -5 v 1 h -4 v 1 h -5 v 1 h -4 v 1 h -5 v 1 h -4 v 1 h -5 v 1 h -5 v 1 h -5 v 1 h -5 v 1 h -5 v 1 h -5 v 1 h -5 v 1 h -5 v 1 h -5 v 1 h -5 v 1 h -5 v 1 h -5 v 1 h -5 v 1 h -6 v 1 h -6 v 1 h -5 v 1 h -6 v 1 h -6 v 1 h -6 v 1 h -6 v 1 h -6 v 1 h -6 v 1 h -5 v 1 h -6 v 1 h -6 v 1 h -6 v 1 h -6 v 1 h -6 v 1 h -6 v 1 h -7 v 1 h -7 v 1 h -7 v 1 h -7 v 1 h -7 v 1 h -7 v 1 h -7 v 1 h -8 v 1 h -7 v 1 h -7 v 1 h -7 v 1 h -7 v 1 h -8 v 1 h -8 v 1 h -9 v 1 h -8 v 1 h -9 v 1 h -8 v 1 h -9 v 1 h -8 v 1 h -9 v 1 h -8 v 1 h -9 v 1 h -11 v 1 h -10 v 1 h -10 v 1 h -10 v 1 h -10 v 1 h -11 v 1 h -10 v 1 h -10 v 1 h -11 v 1 h -13 v 1 h -12 v 1 h -13 v 1 h -12 v 1 h -13 v 1 h -12 v 1 h -13 v 1 h -15 v 1 h -15 v 1 h -15 v 1 h -15 v 1 h -16 v 1 h -15 v 1 h -18 v 1 h -19 v 1 h -19 v 1 h -18 v 1 h -19 v 1 h -23 v 1 h -23 v 1 h -22 v 1 h -23 v 1 h -28 v 1 h -27 v 1 h -27 v 1 h -31 v 1 h -32 v 1 h -32 v 1 h -35 v 1 h -35 v 1 h -36 v 1 h -35 v 1 h -35 v 1 h -34 v 1 h -33 v 1 h -29 v 1 h -28 v 1 h -27 v 1 h -24 v 1 h -23 v 1 h -10 v -1 h 5 v -1 h 5 v -1 h 4 v -1 h 5 v -1 h 5 v -1 h 5 v -1 h 5 v -1 h 5 v -1 h 5 v -1 h 5 v -1 h 5 v -1 h 5 v -1 h 5 v -1 h 6 v -1 h 5 v -1 h 5 v -1 h 5 v -1 h 5 v -1 h 5 v -1 h 6 v -1 h 5 v -1 h 5 v -1 h 6 v -1 h 5 v -1 h 5 v -1 h 6 v -1 h 5 v -1 h 5 v -1 h 6 v -1 h 5 v -1 h 6 v -1 h 5 v -1 h 6 v -1 h 5 v -1 h 5 v -1 h 6 v -1 h 5 v -1 h 6 v -1 h 5 v -1 h 6 v -1 h 5 v -1 h 6 v -1 h 5 v -1 h 6 v -1 h 5 v -1 h 6 v -1 h 5 v -1 h 6 v -1 h 5 v -1 h 6 v -1 h 6 v -1 h 5 v -1 h 6 v -1 h 5 v -1 h 6 v -1 h 5 v -1 h 6 v -1 h 5 v -1 h 6 v -1 h 5 v -1 h 6 v -1 h 5 v -1 h 6 v -1 h 5 v -1 h 6 v -1 h 5 v -1 h 6 v -1 h 5 v -1 h 6 v -1 h 5 v -1 h 6 v -1 h 5 v -1 h 6 v -1 h 5 v -1 h 5 v -1 h 6 v -1 h 5 v -1 h 6 v -1 h 5 v -1 h 5 v -1 h 6 v -1 h 5 v -1 h 5 v -1 h 6 v -1 h 5 v -1 h 5 v -1 h 5 v -1 h 6 v -1 h 5 v -1 h 5 v -1 h 5 v -1 h 5 v -1 h 5 v -1 h 6 v -1 h 5 v -1 h 5 v -1 h 5 v -1 h 5 v -1 h 5 v -1 h 5 v -1 h 5 v -1 h 4 v -1 h 5 v -1 h 5 v -1 h 5 v -1 h 5 v -1 h 5 v -1 h 4 v -1 h 5 v -1 h 5 v -1 h 4 v -1 h 5 v -1 h 5 v -1 h 4 v -1 h 5 v -1 h 4 v -1 h 5 v -1 h 4 v -1 h 4 v -1 h 5 v -1 h 4 v -1 h 5 v -1 h 4 v -1 h 5 v -1 h 4 v -1 h 4 v -1 h 5 v -1 h 4 v -1 h 5 v -1 h 4 v -1 h 4 v -1 h 5 v -1 h 4 v -1 h 4 v -1 h 5 v -1 h 4 v -1 h 4 v -1 h 5 v -1 h 4 v -1 h 4 v -1 h 5 v -1 h 4 v -1 h 4 v -1 h 5 v -1 h 4 v -1 h 4 v -1 h 5 v -1 h 4 v -1 h 4 v -1 h 4 v -1 h 5 v -1 h 4 v -1 h 4 v -1 h 4 v -1 h 4 v -1 h 5 v -1 h 4 v -1 h 4 v -1 h 4 v -1 h 5 v -1 h 4 v -1 h 4 v -1 h 4 v -1 h 4 v -1 h 5 v -1 h 4 v -1 h 4 v -1 h 4 v -1 h 4 v -1 h 4 v -1 h 4 v -1 h 4 v -1 h 5 v -1 h 4 v -1 h 4 v -1 h 4 v -1 h 4 v -1 h 4 v -1 h 4 v -1 h 4 v -1 h 4 v -1 h 4 v -1 h 4 v -1 h 4 v -1 h 4 v -1 h 4 v -1 h 4 v -1 h 4 v -1 h 4 v -1 h 4 v -1 h 4 v -1 h 4 v -1 h 4 v -1 h 4 v -1 h 4 v -1 h 4 v -1 h 4 v -1 h 4 v -1 h 3 v -1 h 4 v -1 h 4 v -1 h 4 v -1 h 4 v -1 h 4 v -1 h 4 v -1 h 4 v -1 h 3 v -1 h 4 v -1 h 4 v -1 h 4 v -1 h 4 v -1 h 3 v -1 h 4 v -1 h 4 v -1 h 4 v -1 h 3 v -1 h 4 v -1 h 4 v -1 h 4 v -1 h 3 v -1 h 4 v -1 h 4 v -1 h 4 v -1 h 3 v -1 h 4 v -1 h 4 v -1 h 3 v -1 h 4 v -1 h 3 v -1 h 4 v -1 h 4 v -1 h 3 v -1 h 4 v -1 h 3 v -1 h 4 v -1 h 4 v -1 h 3 v -1 h 4 v -1 h 3 v -1 h 4 v -1 h 4 v -1 h 3 v -1 h 4 v -1 h 3 v -1 h 3 v -1 h 4 v -1 h 3 v -1 h 4 v -1 h 3 v -1 h 4 v -1 h 3 v -1 h 4 v -1 h 3 v -1 h 4 v -1 h 3 v -1 h 3 v -1 h 4 v -1 h 3 v -1 h 4 v -1 h 3 v -1 h 3 v -1 h 4 v -1 h 3 v -1 h 3 v -1 h 3 v -1 h 4 v -1 h 3 v -1 h 3 v -1 h 4 v -1 h 3 v -1 h 3 v -1 h 4 v -1 h 3 v -1 h 3 v -1 h 3 v -1 h 4 v -1 h 3 v -1 h 3 v -1 h 3 v -1 h 3 v -1 h 3 v -1 h 4 v -1 h 3 v -1 h 3 v -1 h 3 v -1 h 3 v -1 h 3 v -1 h 4 v -1 h 3 v -1 h 3 v -1 h 3 v -1 h 3 v -1 h 3 v -1 h 3 v -1 h 3 v -1 h 3 v -1 h 3 v -1 h 3 v -1 h 3 v -1 h 3 v -1 h 3 v -1 h 3 v -1 h 3 v -1 h 3 v -1 h 4 v -1 h 3 v -1 h 3 v -1 h 3 v -1 h 3 v -1 h 3 v -1 h 2 v -1 h 3 v -1 h 3 v -1 h 3 v -1 h 3 v -1 h 3 v -1 h 3 v -1 h 3 v -1 h 2 v -1 h 3 v -1 h 3 v -1 h 3 v -1 h 3 v -1 h 3 v -1 h 3 v -1 h 3 v -1 h 3 v -1 h 2 v -1 h 3 v -1 h 3 v -1 h 3 v -1 h 2 v -1 h 3 v -1 h 3 v -1 h 3 v -1 h 2 v -1 h 3 v -1 h 3 v -1 h 3 v -1 h 2 v -1 h 3 v -1 h 3 v -1 h 3 v -1 h 2 v -1 h 3 v -1 h 3 v -1 h 2 v -1 h 3 v -1 h 3 v -1 h 2 v -1 h 3 v -1 h 3 v -1 h 2 v -1 h 3 v -1 h 2 v -1 h 3 v -1 h 3 v -1 h 2 v -1 h 3 v -1 h 2 v -1 h 3 v -1 h 3 v -1 h 2 v -1 h 3 v -1 h 2 v -1 h 3 v -1 h 3 v -1 h 2 v -1 h 3 v -1 h 2 v -1 h 3 v -1 h 2 v -1 h 3 v -1 h 2 v -1 h 3 v -1 h 2 v -1 h 3 v -1 h 2 v -1 h 3 v -1 h 2 v -1 h 3 v -1 h 2 v -1 h 3 v -1 h 2 v -1 h 3 v -1 h 2 v -1 h 2 v -1 h 3 v -1 h 2 v -1 h 3 v -1 h 2 v -1 h 2 v -1 h 3 v -1 h 2 v -1 h 3 v -1 h 2 v -1 h 2 v -1 h 3 v -1 h 2 v -1 h 2 v -1 h 3 v -1 h 2 v -1 h 2 v -1 h 3 v -1 h 2 v -1 h 2 v -1 h 3 v -1 h 2 v -1 h 2 v -1 h 2 v -1 h 3 v -1 h 2 v -1 h 2 v -1 h 2 v -1 h 2 v -1 h 3 v -1 h 2 v -1 h 2 v -1 h 2 v -1 h 3 v -1 h 2 v -1 h 2 v -1 h 2 v -1 h 2 v -1 h 3 v -1 h 2 v -1 h 2 v -1 h 2 v -1 h 3 v -1 h 2 v -1 h 2 v -1 h 2 v -1 h 2 v -1 h 2 v -1 h 2 v -1 h 2 v -1 h 2 v -1 h 2 v -1 h 2 v -1 h 2 v -1 h 2 v -1 h 2 v -1 h 3 v -1 h 2 v -1 h 2 v -1 h 2 v -1 h 2 v -1 h 2 v -1 h 2 v -1 h 2 v -1 h 2 v -1 h 2 v -1 h 2 v -1 h 2 v -1 h 1 v -1 h 2 v -1 h 2 v -1 h 2 v -1 h 2 v -1 h 2 v -1 h 2 v -1 h 2 v -1 h 2 v -1 h 2 v -1 h 2 v -1 h 2 v -1 h 1 v -1 h 2 v -1 h 2 v -1 h 2 v -1 h 2 v -1 h 2 v -1 h 1 v -1 h 2 v -1 h 2 v -1 h 2 v -1 h 1 v -1 h 2 v -1 h 2 v -1 h 2 v -1 h 1 v -1 h 2 v -1 h 2 v -1 h 2 v -1 h 1 v -1 h 2 v -1 h 2 v -1 h 2 v -1 h 1 v -1 h 2 v -1 h 1 v -1 h 2 v -1 h 2 v -1 h 1 v -1 h 2 v -1 h 1 v -1 h 2 v -1 h 2 v -1 h 1 v -1 h 2 v -1 h 1 v -1 h 2 v -1 h 1 v -1 h 2 v -1 h 2 v -1 h 1 v -1 h 2 v -1 h 1 v -1 h 2 v -1 h 1 v -1 h 2 v -1 h 1 v -1 h 1 v -1 h 2 v -1 h 1 v -1 h 2 v -1 h 1 v -1 h 1 v -1 h 2 v -1 h 1 v -1 h 2 v -1 h 1 v -1 h 2 v -1 h 1 v -1 h 1 v -1 h 2 v -1 h 1 v -1 h 2 v -1 h 1 v -1 h 1 v -1 h 1 v -1 h 2 v -1 h 1 v -1 h 1 v -1 h 1 v -1 h 1 v -1 h 2 v -1 h 1 v -1 h 1 v -1 h 1 v -1 h 2 v -1 h 1 v -1 h 1 v -1 h 1 v -1 h 2 v -1 h 1 v -1 h 1 v -1 h 1 v -1 h 1 v -1 h 1 v -1 h 1 v -1 h 2 v -1 h 1 v -1 h 1 v -1 h 1 v -1 h 1 v -1 h 1 v -1 h 1 v -1 h 1 v -1 h 1 v -1 h 1 v -1 h 1 v -1 h 1 v -1 h 1 v -1 h 1 v -1 h 1 v -1 h 1 v -1 h 1 v -1 h 1 v -1 h 1 v -1 h 1 v -1 h 1 v -1 h 1 v -1 h 1 v -1 h 1 v -1 h 1 v -1 h 1 v -2 h 1 v -1 h 1 v -1 h 1 v -1 h 1 v -1 h 1 v -1 h 1 v -1 h 1 v -1 h 1 v -2 h 1 v -1 h 1 v -1 h 1 v -1 h 1 v -2 h 1 v -1 h 1 v -1 h 1 v -2 h 1 v -1 h 1 v -2 h 1 v -1 h 1 v -1 h 1 v -2 h 1 v -1 h 1 v -2 h 1 v -1 h 1 v -1 h 1 v -2 h 1 v -2 h 1 v -1 h 1 v -2 h 1 v -2 h 1 v -2 h 1 v -1 h 1 v -2 h 1 v -2 h 1 v -2 h 1 v -1 h 1 v -2 h 1 v -2 h 1 v -3 h 1 v -2 h 1 v -2 h 1 v -3 h 1 v -2 h 1 v -2 h 1 v -3 h 1 v -2 h 1 v -3 h 1 v -3 h 1 v -4 h 1 v -3 h 1 v -3 h 1 v -4 h 1 v -3 h 1 v -6 h 1 v -6 h 1 v -6 h 1 v -7 h 1 v -14 h 1 v -18 h -1 v -14 h -1 v -7 h -1 v -7 h -1 v -5 h -1 v -5 h -1 v -4 h -1 v -4 h -1 v -4 h -1 v -3 h -1 v -3 h -1 v -3 h -1 v -3 h -1 v -3 h -1 v -2 h -1 v -3 h -1 v -2 h -1 v -2 h -1 v -2 h -1 v -2 h -1 v -3 h -1 v -2 h -1 v -2 h -1 v -2 h -1 v -1 h -1 v -2 h -1 v -2 h -1 v -2 h -1 v -2 h -1 v -1 h -1 v -2 h -1 v -2 h -1 v -1 h -1 v -2 h -1 v -1 h -1 v -2 h -1 v -1 h -1 v -2 h -1 v -1 h -1 v -2 h -1 v -1 h -1 v -1 h -1 v -2 h -1 v -1 h -1 v -2 h -1 v -1 h -1 v -1 h -1 v -1 h -1 v -1 h -1 v -2 h -1 v -1 h -1 v -1 h -1 v -1 h -1 v -2 h -1 v -1 h -1 v -1 h -1 v -1 h -1 v -1 h -1 v -1 h -1 v -2 h -1 v -1 h -1 v -1 h -1 v -1 h -1 v -1 h -1 v -1 h -1 v -1 h -1 v -1 h -1 v -1 h -1 v -1 h -1 v -1 h -1 v -1 h -1 v -1 h -1 v -1 h -1 v -1 h -1 v -1 h -1 v -1 h -1 v -1 h -1 v -1 h -1 v -1 h -1 v -1 h -1 v -1 h -1 v -1 h -2 v -1 h -1 v -1 h -1 v -1 h -1 v -1 h -1 v -1 h -1 v -1 h -1 v -1 h -1 v -1 h -1 v -1 h -2 v -1 h -1 v -1 h -1 v -1 h -1 v -1 h -1 v -1 h -2 v -1 h -1 v -1 h -1 v -1 h -1 v -1 h -2 v -1 h -1 v -1 h -1 v -1 h -1 v -1 h -2 v -1 h -1 v -1 h -1 v -1 h -1 v -1 h -2 v -1 h -1 v -1 h -2 v -1 h -1 v -1 h -1 v -1 h -2 v -1 h -1 v -1 h -1 v -1 h -2 v -1 h -1 v -1 h -2 v -1 h -1 v -1 h -1 v -1 h -2 v -1 h -1 v -1 h -2 v -1 h -1 v -1 h -2 v -1 h -1 v -1 h -2 v -1 h -1 v -1 h -2 v -1 h -1 v -1 h -2 v -1 h -1 v -1 h -2 v -1 h -1 v -1 h -2 v -1 h -1 v -1 h -2 v -1 h -2 v -1 h -1 v -1 h -2 v -1 h -2 v -1 h -1 v -1 h -2 v -1 h -2 v -1 h -1 v -1 h -2 v -1 h -2 v -1 h -1 v -1 h -2 v -1 h -1 v -1 h -2 v -1 h -2 v -1 h -2 v -1 h -1 v -1 h -2 v -1 h -2 v -1 h -2 v -1 h -2 v -1 h -1 v -1 h -2 v -1 h -2 v -1 h -2 v -1 h -2 v -1 h -1 v -1 h -2 v -1 h -2 v -1 h -2 v -1 h -2 v -1 h -2 v -1 h -2 v -1 h -1 v -1 h -2 v -1 h -2 v -1 h -2 v -1 h -2 v -1 h -2 v -1 h -2 v -1 h -2 v -1 h -2 v -1 h -2 v -1 h -2 v -1 h -2 v -1 h -4 v 1 h -3 v 1 h -3 v 1 h -3 v 1 h -3 v 1 h -3 v 1 h -3 v 1 h -2 v 1 h -3 v 1 h -3 v 1 h -4 v 2 h 2 v 1 h 2 v 1 h 2 v 1 h 2 v 1 h 2 v 1 h 2 v 1 h 2 v 1 h 2 v 1 h 2 v 1 h 2 v 1 h 1 v 1 h 2 v 1 h 2 v 1 h 2 v 1 h 2 v 1 h 2 v 1 h 2 v 1 h 2 v 1 h 2 v 1 h 2 v 1 h 2 v 1 h 1 v 1 h 2 v 1 h 2 v 1 h 2 v 1 h 2 v 1 h 2 v 1 h 2 v 1 h 1 v 1 h 2 v 1 h 2 v 1 h 2 v 1 h 1 v 1 h 2 v 1 h 2 v 1 h 2 v 1 h 1 v 1 h 2 v 1 h 2 v 1 h 1 v 1 h 2 v 1 h 2 v 1 h 2 v 1 h 1 v 1 h 2 v 1 h 2 v 1 h 1 v 1 h 2 v 1 h 1 v 1 h 2 v 1 h 2 v 1 h 1 v 1 h 2 v 1 h 1 v 1 h 2 v 1 h 2 v 1 h 1 v 1 h 2 v 1 h 1 v 1 h 2 v 1 h 1 v 1 h 2 v 1 h 1 v 1 h 2 v 1 h 1 v 1 h 2 v 1 h 1 v 1 h 2 v 1 h 1 v 1 h 1 v 1 h 2 v 1 h 1 v 1 h 2 v 1 h 1 v 1 h 2 v 1 h 1 v 1 h 1 v 1 h 2 v 1 h 1 v 1 h 1 v 1 h 2 v 1 h 1 v 1 h 1 v 1 h 2 v 1 h 1 v 1 h 1 v 1 h 2 v 1 h 1 v 1 h 1 v 1 h 2 v 1 h 1 v 1 h 1 v 1 h 1 v 1 h 2 v 1 h 1 v 1 h 1 v 1 h 1 v 1 h 1 v 1 h 2 v 1 h 1 v 1 h 1 v 1 h 1 v 1 h 1 v 1 h 2 v 1 h 1 v 1 h 1 v 1 h 1 v 1 h 1 v 1 h 1 v 1 h 1 v 1 h 1 v 1 h 2 v 1 h 1 v 1 h 1 v 1 h 1 v 1 h 1 v 1 h 1 v 1 h 1 v 1 h 1 v 1 h 1 v 1 h 1 v 1 h 1 v 1 h 1 v 1 h 1 v 1 h 1 v 1 h 1 v 1 h 1 v 1 h 1 v 1 h 1 v 1 h 1 v 1 h 1 v 1 h 1 v 1 h 1 v 1 h 1 v 1 h 1 v 2 h 1 v 1 h 1 v 1 h 1 v 1 h 1 v 1 h 1 v 1 h 1 v 1 h 1 v 2 h 1 v 1 h 1 v 1 h 1 v 1 h 1 v 2 h 1 v 1 h 1 v 1 h 1 v 1 h 1 v 2 h 1 v 1 h 1 v 1 h 1 v 2 h 1 v 1 h 1 v 2 h 1 v 1 h 1 v 1 h 1 v 2 h 1 v 1 h 1 v 2 h 1 v 1 h 1 v 2 h 1 v 1 h 1 v 2 h 1 v 2 h 1 v 2 h 1 v 2 h 1 v 1 h 1 v 2 h 1 v 2 h 1 v 2 h 1 v 2 h 1 v 2 h 1 v 2 h 1 v 2 h 1 v 3 h 1 v 2 h 1 v 2 h 1 v 3 h 1 v 2 h 1 v 4 h 1 v 3 h 1 v 3 h 1 v 4 h 1 v 3 h 1 v 6 h 1 v 5 h 1 v 6 h 1 v 11 h 1 v 12 h -1 v 11 h -1 v 7 h -1 v 5 h -1 v 4 h -1 v 5 h -1 v 4 h -1 v 3 h -1 v 3 h -1 v 3 h -1 v 3 h -1 v 3 h -1 v 2 h -1 v 3 h -1 v 2 h -1 v 2 h -1 v 2 h -1 v 2 h -1 v 2 h -1 v 2 h -1 v 2 h -1 v 2 h -1 v 2 h -1 v 2 h -1 v 2 h -1 v 2 h -1 v 1 h -1 v 2 h -1 v 1 h -1 v 2 h -1 v 1 h -1 v 2 h -1 v 2 h -1 v 1 h -1 v 2 h -1 v 1 h -1 v 2 h -1 v 1 h -1 v 1 h -1 v 2 h -1 v 1 h -1 v 1 h -1 v 1 h -1 v 2 h -1 v 1 h -1 v 1 h -1 v 2 h -1 v 1 h -1 v 1 h -1 v 1 h -1 v 2 h -1 v 1 h -1 v 1 h -1 v 1 h -1 v 1 h -1 v 1 h -1 v 1 h -1 v 2 h -1 v 1 h -1 v 1 h -1 v 1 h -1 v 1 h -1 v 1 h -1 v 1 h -1 v 1 h -1 v 1 h -1 v 1 h -1 v 1 h -1 v 1 h -1 v 1 h -1 v 1 h -1 v 1 h -1 v 1 h -1 v 1 h -1 v 1 h -1 v 1 h -1 v 1 h -1 v 1 h -1 v 1 h -1 v 1 h -1 v 1 h -1 v 1 h -1 v 1 h -1 v 1 h -1 v 1 h -2 v 1 h -1 v 1 h -1 v 1 h -1 v 1 h -1 v 1 h -1 v 1 h -1 v 1 h -1 v 1 h -1 v 1 h -2 v 1 h -1 v 1 h -1 v 1 h -1 v 1 h -2 v 1 h -1 v 1 h -1 v 1 h -1 v 1 h -2 v 1 h -1 v 1 h -1 v 1 h -1 v 1 h -1 v 1 h -2 v 1 h -1 v 1 h -1 v 1 h -1 v 1 h -2 v 1 h -1 v 1 h -1 v 1 h -2 v 1 h -1 v 1 h -1 v 1 h -2 v 1 h -1 v 1 h -2 v 1 h -1 v 1 h -1 v 1 h -2 v 1 h -1 v 1 h -1 v 1 h -2 v 1 h -1 v 1 h -2 v 1 h -1 v 1 h -1 v 1 h -2 v 1 h -1 v 1 h -2 v 1 h -1 v 1 h -2 v 1 h -1 v 1 h -2 v 1 h -1 v 1 h -2 v 1 h -1 v 1 h -2 v 1 h -2 v 1 h -1 v 1 h -2 v 1 h -1 v 1 h -2 v 1 h -1 v 1 h -2 v 1 h -1 v 1 h -2 v 1 h -1 v 1 h -2 v 1 h -2 v 1 h -1 v 1 h -2 v 1 h -2 v 1 h -1 v 1 h -2 v 1 h -2 v 1 h -1 v 1 h -2 v 1 h -2 v 1 h -1 v 1 h -2 v 1 h -2 v 1 h -1 v 1 h -2 v 1 h -2 v 1 h -1 v 1 h -2 v 1 h -2 v 1 h -2 v 1 h -2 v 1 h -2 v 1 h -1 v 1 h -2 v 1 h -2 v 1 h -2 v 1 h -2 v 1 h -1 v 1 h -2 v 1 h -2 v 1 h -2 v 1 h -2 v 1 h -2 v 1 h -1 v 1 h -2 v 1 h -2 v 1 h -2 v 1 h -2 v 1 h -2 v 1 h -2 v 1 h -2 v 1 h -2 v 1 h -2 v 1 h -2 v 1 h -2 v 1 h -2 v 1 h -2 v 1 h -2 v 1 h -2 v 1 h -2 v 1 h -2 v 1 h -2 v 1 h -1 v 1 h -2 v 1 h -3 v 1 h -2 v 1 h -2 v 1 h -2 v 1 h -2 v 1 h -2 v 1 h -2 v 1 h -2 v 1 h -2 v 1 h -3 v 1 h -2 v 1 h -2 v 1 h -2 v 1 h -2 v 1 h -2 v 1 h -2 v 1 h -2 v 1 h -2 v 1 h -3 v 1 h -2 v 1 h -2 v 1 h -2 v 1 h -3 v 1 h -2 v 1 h -2 v 1 h -2 v 1 h -3 v 1 h -2 v 1 h -2 v 1 h -2 v 1 h -3 v 1 h -2 v 1 h -2 v 1 h -3 v 1 h -2 v 1 h -2 v 1 h -2 v 1 h -3 v 1 h -2 v 1 h -3 v 1 h -2 v 1 h -2 v 1 h -3 v 1 h -2 v 1 h -3 v 1 h -2 v 1 h -2 v 1 h -3 v 1 h -2 v 1 h -3 v 1 h -2 v 1 h -2 v 1 h -3 v 1 h -2 v 1 h -3 v 1 h -2 v 1 h -3 v 1 h -2 v 1 h -3 v 1 h -2 v 1 h -3 v 1 h -3 v 1 h -2 v 1 h -3 v 1 h -2 v 1 h -3 v 1 h -2 v 1 h -3 v 1 h -2 v 1 h -3 v 1 h -2 v 1 h -3 v 1 h -3 v 1 h -2 v 1 h -3 v 1 h -3 v 1 h -2 v 1 h -3 v 1 h -3 v 1 h -2 v 1 h -3 v 1 h -3 v 1 h -3 v 1 h -2 v 1 h -3 v 1 h -3 v 1 h -2 v 1 h -3 v 1 h -3 v 1 h -2 v 1 h -3 v 1 h -3 v 1 h -3 v 1 h -3 v 1 h -2 v 1 h -3 v 1 h -3 v 1 h -3 v 1 h -3 v 1 h -3 v 1 h -2 v 1 h -3 v 1 h -3 v 1 h -3 v 1 h -3 v 1 h -3 v 1 h -3 v 1 h -2 v 1 h -3 v 1 h -3 v 1 h -3 v 1 h -3 v 1 h -3 v 1 h -3 v 1 h -3 v 1 h -3 v 1 h -3 v 1 h -3 v 1 h -3 v 1 h -3 v 1 h -3 v 1 h -3 v 1 h -3 v 1 h -3 v 1 h -3 v 1 h -3 v 1 h -3 v 1 h -3 v 1 h -3 v 1 h -3 v 1 h -3 v 1 h -4 v 1 h -3 v 1 h -3 v 1 h -3 v 1 h -3 v 1 h -3 v 1 h -3 v 1 h -3 v 1 h -4 v 1 h -3 v 1 h -3 v 1 h -3 v 1 h -3 v 1 h -3 v 1 h -3 v 1 h -4 v 1 h -3 v 1 h -3 v 1 h -4 v 1 h -3 v 1 h -3 v 1 h -3 v 1 h -4 v 1 h -3 v 1 h -3 v 1 h -3 v 1 h -4 v 1 h -3 v 1 h -3 v 1 h -3 v 1 h -4 v 1 h -3 v 1 h -3 v 1 h -4 v 1 h -3 v 1 h -4 v 1 h -3 v 1 h -3 v 1 h -4 v 1 h -3 v 1 h -4 v 1 h -3 v 1 h -3 v 1 h -4 v 1 h -3 v 1 h -4 v 1 h -3 v 1 h -3 v 1 h -4 v 1 h -3 v 1 h -4 v 1 h -4 v 1 h -3 v 1 h -4 v 1 h -3 v 1 h -4 v 1 h -3 v 1 h -4 v 1 h -3 v 1 h -4 v 1 h -3 v 1 h -4 v 1 h -3 v 1 h -4 v 1 h -3 v 1 h -4 v 1 h -4 v 1 h -3 v 1 h -4 v 1 h -4 v 1 h -3 v 1 h -4 v 1 h -4 v 1 h -3 v 1 h -4 v 1 h -4 v 1 h -3 v 1 h -4 v 1 h -4 v 1 h -3 v 1 h -4 v 1 h -4 v 1 h -3 v 1 h -4 v 1 h -4 v 1 h -4 v 1 h -4 v 1 h -3 v 1 h -4 v 1 h -4 v 1 h -4 v 1 h -4 v 1 h -3 v 1 h -4 v 1 h -4 v 1 h -4 v 1 h -4 v 1 h -3 v 1 h -4 v 1 h -4 v 1 h -4 v 1 h -4 v 1 h -4 v 1 h -4 v 1 h -4 v 1 h -3 v 1 h -4 v 1 h -4 v 1 h -4 v 1 h -4 v 1 h -4 v 1 h -4 v 1 h -4 v 1 h -4 v 1 h -4 v 1 h -4 v 1 h -4 v 1 h -4 v 1 h -4 v 1 h -4 v 1 h -4 v 1 h -4 v 1 h -4 v 1 h -4 v 1 h -4 v 1 h -4 v 1 h -4 v 1 h -4 v 1 h -4 v 1 h -4 v 1 h -4 v 1 h -4 v 1 h -4 v 1 h -4 v 1 h -4 v 1 h -5 v 1 h -4 v 1 h -4 v 1 h -4 v 1 h -4 v 1 h -4 v 1 h -5 v 1 h -4 v 1 h -4 v 1 h -4 v 1 h -4 v 1 h -4 v 1 h -5 v 1 h -4 v 1 h -4 v 1 h -4 v 1 h -4 v 1 h -5 v 1 h -4 v 1 h -4 v 1 h -5 v 1 h -4 v 1 h -4 v 1 h -4 v 1 h -5 v 1 h -4 v 1 h -4 v 1 h -4 v 1 h -5 v 1 h -4 v 1 h -4 v 1 h -5 v 1 h -4 v 1 h -4 v 1 h -5 v 1 h -4 v 1 h -4 v 1 h -5 v 1 h -4 v 1 h -5 v 1 h -4 v 1 h -4 v 1 h -5 v 1 h -4 v 1 h -4 v 1 h -5 v 1 h -4 v 1 h -5 v 1 h -4 v 1 h -5 v 1 h -4 v 1 h -5 v 1 h -4 v 1 h -5 v 1 h -4 v 1 h -5 v 1 h -4 v 1 h -5 v 1 h -4 v 1 h -5 v 1 h -5 v 1 h -4 v 1 h -5 v 1 h -5 v 1 h -4 v 1 h -5 v 1 h -5 v 1 h -4 v 1 h -5 v 1 h -5 v 1 h -5 v 1 h -4 v 1 h -5 v 1 h -5 v 1 h -5 v 1 h -5 v 1 h -5 v 1 h -5 v 1 h -4 v 1 h -5 v 1 h -5 v 1 h -5 v 1 h -5 v 1 h -5 v 1 h -5 v 1 h -6 v 1 h -5 v 1 h -5 v 1 h -5 v 1 h -5 v 1 h -5 v 1 h -5 v 1 h -6 v 1 h -5 v 1 h -5 v 1 h -5 v 1 h -5 v 1 h -6 v 1 h -5 v 1 h -5 v 1 h -6 v 1 h -5 v 1 h -5 v 1 h -6 v 1 h -5 v 1 h -5 v 1 h -6 v 1 h -5 v 1 h -6 v 1 h -5 v 1 h -5 v 1 h -6 v 1 h -5 v 1 h -6 v 1 h -5 v 1 h -6 v 1 h -5 v 1 h -5 v 1 h -6 v 1 h -5 v 1 h -5 v 1 h -6 v 1 h -5 v 1 h -6 v 1 h -5 v 1 h -5 v 1 h -6 v 1 h -5 v 1 h -5 v 1 h -6 v 1 h -5 v 1 h -5 v 1 h -5 v 1 h -5 v 1 h -6 v 1 h -5 v 1 h -5 v 1 h -5 v 1 h -5 v 1 h -5 v 1 h -6 v 1 h -5 v 1 h -5 v 1 h -5 v 1 h -5 v 1 h -5 v 1 h -5 v 1 h -5 v 1 h -5 v 1 h -5 v 1 h -5 v 1 h -5 v 1 h -5 v 1 h -5 v 1 h -5 v 1 h -5 v 1 h -5 v 1 h -4 v 1 h -5 v 1 h -5 v 1 h -5 v 1 h -5 v 1 h -4 v 1 h -5 v 1 h -5 v 1 h -4 v 1 h -5 v 1 h -5 v 1 h -5 v 1 h -5 v 1 h -5 v 1 h -5 v 1 h -5 v 1 h -6 v 1 h -5 v 1 h -6 v 1 h -5 v 1 h -6 v 1 h -6 v 1 h -6 v 1 h -6 v 1 h -6 v 1 h -7 v 1 h -6 v 1 h -7 v 1 h -6 v 1 h -7 v 1 h -7 v 1 h -7 v 1 h -7 v 1 h -7 v 1 h 108 v -1 h 31 v -1 h 31 v -1 h 33 v -1 h 41 v -1 h 43 v -1 h 50 v -1 h 51 v -1 h 54 v -1 h 50 v -1 h 46 v -1 h 42 v -1 h 38 v -1 h 34 v -1 h 33 v -1 h 27 v -1 h 26 v -1 h 26 v -1 h 22 v -1 h 21 v -1 h 21 v -1 h 20 v -1 h 19 v -1 h 17 v -1 h 16 v -1 h 16 v -1 h 17 v -1 h 16 v -1 h 14 v -1 h 13 v -1 h 13 v -1 h 13 v -1 h 14 v -1 h 13 v -1 h 13 v -1 h 11 v -1 h 11 v -1 h 11 v -1 h 11 v -1 h 11 v -1 h 11 v -1 h 11 v -1 h 10 v -1 h 10 v -1 h 9 v -1 h 9 v -1 h 9 v -1 h 10 v -1 h 9 v -1 h 9 v -1 h 9 v -1 h 9 v -1 h 9 v -1 h 9 v -1 h 7 v -1 h 8 v -1 h 8 v -1 h 8 v -1 h 7 v -1 h 8 v -1 h 8 v -1 h 8 v -1 h 7 v -1 h 8 v -1 h 8 v -1 h 7 v -1 h 7 v -1 h 7 v -1 h 6 v -1 h 7 v -1 h 7 v -1 h 6 v -1 h 7 v -1 h 7 v -1 h 6 v -1 h 7 v -1 h 7 v -1 h 6 v -1 h 7 v -1 h 6 v -1 h 6 v -1 h 6 v -1 h 6 v -1 h 6 v -1 h 6 v -1 h 6 v -1 h 6 v -1 h 6 v -1 h 6 v -1 h 6 v -1 h 6 v -1 h 5 v -1 h 6 v -1 h 5 v -1 h 6 v -1 h 5 v -1 h 6 v -1 h 5 v -1 h 5 v -1 h 6 v -1 h 5 v -1 h 5 v -1 h 5 v -1 h 5 v -1 h 6 v -1 h 5 v -1 h 5 v -1 h 5 v -1 h 5 v -1 h 5 v -1 h 5 v -1 h 5 v -1 h 5 v -1 h 5 v -1 h 5 v -1 h 5 v -1 h 4 v -1 h 5 v -1 h 5 v -1 h 5 v -1 h 5 v -1 h 4 v -1 h 5 v -1 h 5 v -1 h 5 v -1 h 5 v -1 h 4 v -1 h 5 v -1 h 4 v -1 h 5 v -1 h 4 v -1 h 5 v -1 h 4 v -1 h 5 v -1 h 4 v -1 h 5 v -1 h 4 v -1 h 5 v -1 h 4 v -1 h 4 v -1 h 5 v -1 h 4 v -1 h 5 v -1 h 4 v -1 h 4 v -1 h 5 v -1 h 4 v -1 h 4 v -1 h 4 v -1 h 4 v -1 h 4 v -1 h 4 v -1 h 4 v -1 h 5 v -1 h 4 v -1 h 4 v -1 h 4 v -1 h 4 v -1 h 4 v -1 h 4 v -1 h 4 v -1 h 5 v -1 h 3 v -1 h 4 v -1 h 4 v -1 h 4 v -1 h 4 v -1 h 4 v -1 h 3 v -1 h 4 v -1 h 4 v -1 h 4 v -1 h 4 v -1 h 4 v -1 h 3 v -1 h 4 v -1 h 4 v -1 h 4 v -1 h 4 v -1 h 4 v -1 h 3 v -1 h 4 v -1 h 3 v -1 h 4 v -1 h 3 v -1 h 4 v -1 h 4 v -1 h 3 v -1 h 4 v -1 h 3 v -1 h 4 v -1 h 4 v -1 h 3 v -1 h 4 v -1 h 3 v -1 h 4 v -1 h 3 v -1 h 4 v -1 h 3 v -1 h 4 v -1 h 3 v -1 h 3 v -1 h 4 v -1 h 3 v -1 h 3 v -1 h 4 v -1 h 3 v -1 h 3 v -1 h 4 v -1 h 3 v -1 h 3 v -1 h 4 v -1 h 3 v -1 h 3 v -1 h 4 v -1 h 3 v -1 h 3 v -1 h 4 v -1 h 3 v -1 h 3 v -1 h 3 v -1 h 3 v -1 h 3 v -1 h 3 v -1 h 3 v -1 h 4 v -1 h 3 v -1 h 3 v -1 h 3 v -1 h 3 v -1 h 3 v -1 h 3 v -1 h 3 v -1 h 3 v -1 h 4 v -1 h 3 v -1 h 3 v -1 h 3 v -1 h 3 v -1 h 3 v -1 h 3 v -1 h 2 v -1 h 3 v -1 h 3 v -1 h 3 v -1 h 3 v -1 h 3 v -1 h 3 v -1 h 3 v -1 h 3 v -1 h 3 v -1 h 2 v -1 h 3 v -1 h 3 v -1 h 3 v -1 h 3 v -1 h 3 v -1 h 3 v -1 h 3 v -1 h 2 v -1 h 3 v -1 h 3 v -1 h 2 v -1 h 3 v -1 h 3 v -1 h 3 v -1 h 2 v -1 h 3 v -1 h 3 v -1 h 2 v -1 h 3 v -1 h 3 v -1 h 3 v -1 h 2 v -1 h 3 v -1 h 3 v -1 h 2 v -1 h 3 v -1 h 3 v -1 h 2 v -1 h 3 v -1 h 2 v -1 h 3 v -1 h 3 v -1 h 2 v -1 h 3 v -1 h 2 v -1 h 3 v -1 h 2 v -1 h 3 v -1 h 2 v -1 h 3 v -1 h 2 v -1 h 3 v -1 h 2 v -1 h 3 v -1 h 2 v -1 h 3 v -1 h 2 v -1 h 3 v -1 h 2 v -1 h 3 v -1 h 2 v -1 h 3 v -1 h 2 v -1 h 2 v -1 h 3 v -1 h 2 v -1 h 2 v -1 h 3 v -1 h 2 v -1 h 2 v -1 h 3 v -1 h 2 v -1 h 2 v -1 h 3 v -1 h 2 v -1 h 3 v -1 h 2 v -1 h 2 v -1 h 3 v -1 h 2 v -1 h 2 v -1 h 3 v -1 h 2 v -1 h 2 v -1 h 2 v -1 h 2 v -1 h 3 v -1 h 2 v -1 h 2 v -1 h 2 v -1 h 2 v -1 h 3 v -1 h 2 v -1 h 2 v -1 h 2 v -1 h 2 v -1 h 2 v -1 h 3 v -1 h 2 v -1 h 2 v -1 h 2 v -1 h 2 v -1 h 3 v -1 h 2 v -1 h 2 v -1 h 2 v -1 h 2 v -1 h 2 v -1 h 2 v -1 h 2 v -1 h 2 v -1 h 2 v -1 h 2 v -1 h 2 v -1 h 2 v -1 h 2 v -1 h 2 v -1 h 2 v -1 h 3 v -1 h 2 v -1 h 2 v -1 h 2 v -1 h 2 v -1 h 2 v -1 h 2 v -1 h 2 v -1 h 2 v -1 h 2 v -1 h 2 v -1 h 2 v -1 h 1 v -1 h 2 v -1 h 2 v -1 h 2 v -1 h 2 v -1 h 2 v -1 h 2 v -1 h 2 v -1 h 2 v -1 h 2 v -1 h 1 v -1 h 2 v -1 h 2 v -1 h 2 v -1 h 2 v -1 h 2 v -1 h 2 v -1 h 2 v -1 h 2 v -1 h 2 v -1 h 1 v -1 h 2 v -1 h 2 v -1 h 2 v -1 h 1 v -1 h 2 v -1 h 2 v -1 h 2 v -1 h 2 v -1 h 1 v -1 h 2 v -1 h 2 v -1 h 2 v -1 h 1 v -1 h 2 v -1 h 2 v -1 h 2 v -1 h 1 v -1 h 2 v -1 h 2 v -1 h 2 v -1 h 1 v -1 h 2 v -1 h 2 v -1 h 2 v -1 h 1 v -1 h 2 v -1 h 2 v -1 h 1 v -1 h 2 v -1 h 1 v -1 h 2 v -1 h 2 v -1 h 1 v -1 h 2 v -1 h 2 v -1 h 1 v -1 h 2 v -1 h 2 v -1 h 1 v -1 h 2 v -1 h 1 v -1 h 2 v -1 h 2 v -1 h 1 v -1 h 2 v -1 h 2 v -1 h 1 v -1 h 2 v -1 h 1 v -1 h 2 v -1 h 1 v -1 h 2 v -1 h 1 v -1 h 2 v -1 h 1 v -1 h 2 v -1 h 1 v -1 h 2 v -1 h 1 v -1 h 2 v -1 h 1 v -1 h 2 v -1 h 1 v -1 h 2 v -1 h 1 v -1 h 2 v -1 h 1 v -1 h 2 v -1 h 1 v -1 h 2 v -1 h 1 v -1 h 2 v -1 h 1 v -1 h 2 v -1 h 1 v -1 h 2 v -1 h 1 v -1 h 1 v -1 h 2 v -1 h 1 v -1 h 2 v -1 h 1 v -1 h 1 v -1 h 2 v -1 h 1 v -1 h 1 v -1 h 2 v -1 h 1 v -1 h 2 v -1 h 1 v -1 h 1 v -1 h 2 v -1 h 1 v -1 h 2 v -1 h 1 v -1 h 1 v -1 h 2 v -1 h 1 v -1 h 1 v -1 h 2 v -1 h 1 v -1 h 1 v -1 h 1 v -1 h 2 v -1 h 1 v -1 h 1 v -1 h 1 v -1 h 2 v -1 h 1 v -1 h 1 v -1 h 2 v -1 h 1 v -1 h 1 v -1 h 1 v -1 h 2 v -1 h 1 v -1 h 1 v -1 h 1 v -1 h 2 v -1 h 1 v -1 h 1 v -1 h 1 v -1 h 2 v -1 h 1 v -1 h 1 v -1 h 1 v -1 h 1 v -1 h 2 v -1 h 1 v -1 h 1 v -1 h 1 v -1 h 1 v -1 h 1 v -1 h 2 v -1 h 1 v -1 h 1 v -1 h 1 v -1 h 1 v -1 h 1 v -1 h 1 v -1 h 2 v -1 h 1 v -1 h 1 v -1 h 1 v -1 h 1 v -1 h 1 v -1 h 2 v -1 h 1 v -1 h 1 v -1 h 1 v -1 h 1 v -1 h 1 v -1 h 1 v -1 h 1 v -1 h 1 v -1 h 1 v -1 h 1 v -1 h 1 v -1 h 1 v -1 h 1 v -1 h 1 v -1 h 2 v -1 h 1 v -1 h 1 v -1 h 1 v -1 h 1 v -1 h 1 v -1 h 1 v -1 h 1 v -1 h 1 v -1 h 1 v -1 h 1 v -1 h 1 v -1 h 1 v -1 h 1 v -1 h 1 v -1 h 1 v -1 h 1 v -1 h 1 v -1 h 1 v -1 h 1 v -1 h 1 v -1 h 1 v -1 h 1 v -1 h 1 v -2 h 1 v -1 h 1 v -1 h 1 v -1 h 1 v -1 h 1 v -1 h 1 v -1 h 1 v -1 h 1 v -1 h 1 v -1 h 1 v -1 h 1 v -1 h 1 v -1 h 1 v -1 h 1 v -1 h 1 v -2 h 1 v -1 h 1 v -1 h 1 v -1 h 1 v -1 h 1 v -1 h 1 v -2 h 1 v -1 h 1 v -1 h 1 v -1 h 1 v -1 h 1 v -2 h 1 v -1 h 1 v -1 h 1 v -1 h 1 v -1 h 1 v -2 h 1 v -1 h 1 v -1 h 1 v -1 h 1 v -1 h 1 v -2 h 1 v -1 h 1 v -1 h 1 v -1 h 1 v -2 h 1 v -1 h 1 v -2 h 1 v -1 h 1 v -1 h 1 v -2 h 1 v -1 h 1 v -1 h 1 v -2 h 1 v -1 h 1 v -1 h 1 v -2 h 1 v -1 h 1 v -2 h 1 v -1 h 1 v -1 h 1 v -2 h 1 v -1 h 1 v -1 h 1 v -2 h 1 v -2 h 1 v -1 h 1 v -2 h 1 v -1 h 1 v -2 h 1 v -2 h 1 v -1 h 1 v -2 h 1 v -1 h 1 v -2 h 1 v -2 h 1 v -1 h 1 v -2 h 1 v -1 h 1 v -2 h 1 v -1 h 1 v -2 h 1 v -2 h 1 v -2 h 1 v -2 h 1 v -2 h 1 v -2 h 1 v -2 h 1 v -1 h 1 v -2 h 1 v -2 h 1 v -2 h 1 v -2 h 1 v -2 h 1 v -2 h 1 v -2 h 1 v -2 h 1 v -2 h 1 v -3 h 1 v -2 h 1 v -2 h 1 v -2 h 1 v -3 h 1 v -2 h 1 v -2 h 1 v -3 h 1 v -2 h 1 v -2 h 1 v -3 h 1 v -3 h 1 v -3 h 1 v -3 h 1 v -3 h 1 v -3 h 1 v -3 h 1 v -3 h 1 v -3 h 1 v -3 h 1 v -4 h 1 v -4 h 1 v -5 h 1 v -4 h 1 v -4 h 1 v -4 h 1 v -6 h 1 v -6 h 1 v -7 h 1 v -7 h 1 v -9 h 1 v -14 h 1 v -27 h -1 v -14 h -1 v -15 h -1 v -7 h -1 v -6 h -1 v -6 h -1 v -5 h -1 v -6 h -1 v -6 h -1 v -6 h -1 v -6 h -1 v -4 h -1 v -3 h -1 v -4 h -1 v -3 h -1 v -3 h -1 v -4 h -1 v -3 h -1 v -4 h -1 v -3 h -1 v -4 h -1 v -3 h -1 v -4 h -1 v -3 h -1 v -3 h -1 v -3 h -1 v -2 h -1 v -2 h -1 v -3 h -1 v -2 h -1 v -3 h -1 v -2 h -1 v -2 h -1 v -3 h -1 v -2 h -1 v -3 h -1 v -2 h -1 v -3 h -1 v -2 h -1 v -2 h -1 v -3 h -1 v -2 h -1 v -3 h -1 v -2 h -1 v -2 h -1 v -2 h -1 v -2 h -1 v -1 h -1 v -2 h -1 v -2 h -1 v -2 h -1 v -2 h -1 v -2 h -1 v -2 h -1 v -1 h -1 v -2 h -1 v -2 h -1 v -2 h -1 v -2 h -1 v -2 h -1 v -2 h -1 v -1 h -1 v -2 h -1 v -2 h -1 v -2 h -1 v -2 h -1 v -2 h -1 v -2 h -1 v -1 h -1 v -2 h -1 v -1 h -1 v -2 h -1 v -1 h -1 v -2 h -1 v -1 h -1 v -2 h -1 v -1 h -1 v -2 h -1 v -1 h -1 v -2 h -1 v -1 h -1 v -2 h -1 v -1 h -1 v -2 h -1 v -1 h -1 v -2 h -1 v -1 h -1 v -2 h -1 v -1 h -1 v -2 h -1 v -1 h -1 v -2 h -1 v -1 h -1 v -2 h -1 v -1 h -1 v -2 h -1 v -1 h -1 v -2 h -1 v -1 h -1 v -2 h -1 v -1 h -1 v -1 h -1 v -2 h -1 v -1 h -1 v -1 h -1 v -1 h -1 v -2 h -1 v -1 h -1 v -1 h -1 v -1 h -1 v -2 h -1 v -1 h -1 v -1 h -1 v -1 h -1 v -2 h -1 v -1 h -1 v -1 h -1 v -2 h -1 v -1 h -1 v -1 h -1 v -1 h -1 v -2 h -1 v -1 h -1 v -1 h -1 v -1 h -1 v -2 h -1 v -1 h -1 v -1 h -1 v -1 h -1 v -2 h -1 v -1 h -1 v -1 h -1 v -1 h -1 v -2 h -1 v -1 h -1 v -1 h -1 v -1 h -1 v -1 h -1 v -2 h -1 v -1 h -1 v -1 h -1 v -1 h -1 v -1 h -1 v -1 h -1 v -1 h -1 v -1 h -1 v -1 h -1 v -2 h -1 v -1 h -1 v -1 h -1 v -1 h -1 v -1 h -1 v -1 h -1 v -1 h -1 v -1 h -1 v -1 h -1 v -1 h -1 v -2 h -1 v -1 h -1 v -1 h -1 v -1 h -1 v -1 h -1 v -1 h -1 v -1 h -1 v -1 h -1 v -1 h -1 v -2 h -1 v -1 h -1 v -1 h -1 v -1 h -1 v -1 h -1 v -1 h -1 v -1 h -1 v -1 h -1 v -1 h -1 v -1 h -1 v -1 h -1 v -1 h -1 v -1 h -1 v -1 h -1 v -1 h -1 v -1 h -1 v -1 h -1 v -1 h -1 v -1 h -1 v -1 h -1 v -1 h -1 v -1 h -1 v -1 h -1 v -1 h -1 v -1 h -1 v -1 h -1 v -1 h -2 v -1 h -1 v -1 h -1 v -1 h -1 v -1 h -1 v -1 h -1 v -1 h -1 v -1 h -1 v -1 h -1 v -1 h -1 v -1 h -1 v -1 h -1 v -1 h -1 v -1 h -1 v -1 h -1 v -1 h -1 v -1 h -2 v -1 h -1 v -1 h -1 v -1 h -1 v -1 h -1 v -1 h -1 v -1 h -1 v -1 h -1 v -1 h -1 v -1 h -2 v -1 h -1 v -1 h -1 v -1 h -1 v -1 h -1 v -1 h -1 v -1 h -1 v -1 h -2 v -1 h -1 v -1 h -1 v -1 h -1 v -1 h -1 v -1 h -1 v -1 h -1 v -1 h -2 v -1 h -1 v -1 h -1 v -1 h -1 v -1 h -1 v -1 h -1 v -1 h -2 v -1 h -1 v -1 h -1 v -1 h -1 v -1 h -1 v -1 h -1 v -1 h -1 v -1 h -2 v -1 h -1 v -1 h -1 v -1 h -1 v -1 h -1 v -1 h -2 v -1 h -1 v -1 h -1 v -1 h -1 v -1 h -2 v -1 h -1 v -1 h -1 v -1 h -1 v -1 h -2 v -1 h -1 v -1 h -1 v -1 h -1 v -1 h -2 v -1 h -1 v -1 h -1 v -1 h -1 v -1 h -2 v -1 h -1 v -1 h -1 v -1 h -1 v -1 h -2 v -1 h -1 v -1 h -1 v -1 h -2 v -1 h -1 v -1 h -1 v -1 h -1 v -1 h -2 v -1 h -1 v -1 h -1 v -1 h -1 v -1 h -2 v -1 h -1 v -1 h -1 v -1 h -1 v -1 h -2 v -1 h -1 v -1 h -2 v -1 h -1 v -1 h -1 v -1 h -2 v -1 h -1 v -1 h -1 v -1 h -2 v -1 h -1 v -1 h -2 v -1 h -1 v -1 h -1 v -1 h -2 v -1 h -1 v -1 h -1 v -1 h -2 v -1 h -1 v -1 h -2 v -1 h -1 v -1 h -1 v -1 h -2 v -1 h -1 v -1 h -1 v -1 h -2 v -1 h -1 v -1 h -1 v -1 h -2 v -1 h -1 v -1 h -2 v -1 h -1 v -1 h -1 v -1 h -2 v -1 h -1 v -1 h -2 v -1 h -1 v -1 h -2 v -1 h -1 v -1 h -2 v -1 h -1 v -1 h -2 v -1 h -1 v -1 h -2 v -1 h -1 v -1 h -1 v -1 h -2 v -1 h -1 v -1 h -2 v -1 h -1 v -1 h -2 v -1 h -1 v -1 h -2 v -1 h -1 v -1 h -2 v -1 h -1 v -1 h -2 v -1 h -1 v -1 h -2 v -1 h -1 v -1 h -2 v -1 h -1 v -1 h -2 v -1 h -1 v -1 h -2 v -1 h -1 v -1 h -2 v -1 h -1 v -1 h -2 v -1 h -1 v -1 h -2 v -1 h -2 v -1 h -1 v -1 h -2 v -1 h -1 v -1 h -2 v -1 h -1 v -1 h -2 v -1 h -2 v -1 h -1 v -1 h -2 v -1 h -1 v -1 h -2 v -1 h -2 v -1 h -1 v -1 h -2 v -1 h -1 v -1 h -2 v -1 h -2 v -1 h -1 v -1 h -2 v -1 h -1 v -1 h -2 v -1 h -2 v -1 h -1 v -1 h -2 v -1 h -1 v -1 h -2 v -1 h -2 v -1 h -1 v -1 h -2 v -1 h -2 v -1 h -1 v -1 h -2 v -1 h -2 v -1 h -1 v -1 h -2 v -1 h -2 v -1 h -2 v -1 h -1 v -1 h -2 v -1 h -2 v -1 h -1 v -1 h -2 v -1 h -2 v -1 h -2 v -1 h -1 v -1 h -2 v -1 h -2 v -1 h -1 v -1 h -2 v -1 h -2 v -1 h -2 v -1 h -1 v -1 h -2 v -1 h -2 v -1 h -1 v -1 h -2 v -1 h -2 v -1 h -2 v -1 h -1 v -1 h -2 v -1 h -2 v -1 h -1 v -1 h -2 v -1 h -2 v -1 h -2 v -1 h -2 v -1 h -2 v -1 h -2 v -1 h -1 v -1 h -2 v -1 h -2 v -1 h -2 v -1 h -2 v -1 h -2 v -1 h -1 v -1 h -2 v -1 h -2 v -1 h -2 v -1 h -2 v -1 h -2 v -1 h -1 v -1 h -2 v -1 h -2 v -1 h -2 v -1 h -2 v -1 h -2 v -1 h -1 v -1 h -2 v -1 h -2 v -1 h -2 v -1 h -2 v -1 h -2 v -1 h -1 v -1 h -2 v -1 h -2 v -1 h -2 v -1 h -2 v -1 h -2 v -1 h -2 v -1 h -2 v -1 h -2 v -1 h -2 v -1 h -2 v -1 h -2 v -1 h -2 v -1 h -2 v -1 h -2 v -1 h -2 v -1 h -2 v -1 h -2 v -1 h -2 v -1 h -2 v -1 h -2 v -1 h -1 v -1 h -2 v -1 h -2 v -1 h -2 v -1 h -2 v -1 h -2 v -1 h -2 v -1 h -2 v -1 h -2 v -1 h -2 v -1 h -2 v -1 h -2 v -1 h -2 v -1 h -2 v -1 h -2 v -1 h -2 v -1 h -2 v -1 h -3 v -1 h -2 v -1 h -2 v -1 h -2 v -1 h -2 v -1 h -2 v -1 h -2 v -1 h -2 v -1 h -2 v -1 h -2 v -1 h -2 v -1 h -3 v -1 h -2 v -1 h -2 v -1 h -2 v -1 h -2 v -1 h -2 v -1 h -2 v -1 h -2 v -1 h -2 v -1 h -2 v -1 h -2 v -1 h -2 v -1 h -3 v -1 h -2 v -1 h -2 v -1 h -2 v -1 h -2 v -1 h -2 v -1 h -3 v -1 h -2 v -1 h -2 v -1 h -2 v -1 h -3 v -1 h -2 v -1 h -2 v -1 h -2 v -1 h -2 v -1 h -3 v -1 h -2 v -1 h -2 v -1 h -2 v -1 h -3 v -1 h -2 v -1 h -2 v -1 h -2 v -1 h -2 v -1 h -3 v -1 h -2 v -1 h -2 v -1 h -2 v -1 h -3 v -1 h -2 v -1 h -2 v -1 h -2 v -1 h -2 v -1 h -3 v -1 h -2 v -1 h -3 v -1 h -2 v -1 h -2 v -1 h -3 v -1 h -2 v -1 h -2 v -1 h -3 v -1 h -2 v -1 h -2 v -1 h -3 v -1 h -2 v -1 h -2 v -1 h -3 v -1 h -2 v -1 h -3 v -1 h -2 v -1 h -2 v -1 h -3 v -1 h -2 v -1 h -2 v -1 h -3 v -1 h -2 v -1 h -2 v -1 h -3 v -1 h -2 v -1 h -2 v -1 h -3 v -1 h -2 v -1 h -3 v -1 h -2 v -1 h -3 v -1 h -2 v -1 h -3 v -1 h -2 v -1 h -3 v -1 h -2 v -1 h -3 v -1 h -2 v -1 h -3 v -1 h -2 v -1 h -3 v -1 h -2 v -1 h -3 v -1 h -2 v -1 h -3 v -1 h -2 v -1 h -3 v -1 h -2 v -1 h -3 v -1 h -2 v -1 h -3 v -1 h -2 v -1 h -3 v -1 h -2 v -1 h -3 v -1 h -3 v -1 h -2 v -1 h -3 v -1 h -3 v -1 h -2 v -1 h -3 v -1 h -2 v -1 h -3 v -1 h -3 v -1 h -2 v -1 h -3 v -1 h -3 v -1 h -2 v -1 h -3 v -1 h -3 v -1 h -2 v -1 h -3 v -1 h -3 v -1 h -2 v -1 h -3 v -1 h -3 v -1 h -2 v -1 h -3 v -1 h -3 v -1 h -2 v -1 h -3 v -1 h -3 v -1 h -2 v -1 h -3 v -1 h -3 v -1 h -3 v -1 h -2 v -1 h -3 v -1 h -3 v -1 h -3 v -1 h -3 v -1 h -2 v -1 h -3 v -1 h -3 v -1 h -3 v -1 h -3 v -1 h -3 v -1 h -2 v -1 h -3 v -1 h -3 v -1 h -3 v -1 h -3 v -1 h -2 v -1 h -3 v -1 h -3 v -1 h -3 v -1 h -3 v -1 h -2 v -1 h -3 v -1 h -3 v -1 h -3 v -1 h -3 v -1 h -3 v -1 h -3 v -1 h -3 v -1 h -3 v -1 h -3 v -1 h -3 v -1 h -3 v -1 h -3 v -1 h -3 v -1 h -3 v -1 h -2 v -1 h -3 v -1 h -3 v -1 h -3 v -1 h -3 v -1 h -3 v -1 h -3 v -1 h -3 v -1 h -3 v -1 h -3 v -1 h -3 v -1 h -3 v -1 h -3 v -1 h -4 v -1 h -3 v -1 h -3 v -1 h -3 v -1 h -3 v -1 h -3 v -1 h -3 v -1 h -3 v -1 h -3 v -1 h -3 v -1 h -4 v -1 h -3 v -1 h -3 v -1 h -3 v -1 h -3 v -1 h -3 v -1 h -3 v -1 h -4 v -1 h -3 v -1 h -3 v -1 h -3 v -1 h -3 v -1 h -4 v -1 h -3 v -1 h -3 v -1 h -3 v -1 h -3 v -1 h -4 v -1 h -3 v -1 h -3 v -1 h -3 v -1 h -4 v -1 h -3 v -1 h -3 v -1 h -3 v -1 h -4 v -1 h -3 v -1 h -3 v -1 h -3 v -1 h -4 v -1 h -3 v -1 h -3 v -1 h -4 v -1 h -3 v -1 h -3 v -1 h -4 v -1 h -3 v -1 h -3 v -1 h -4 v -1 h -3 v -1 h -3 v -1 h -4 v -1 h -3 v -1 h -4 v -1 h -3 v -1 h -3 v -1 h -4 v -1 h -3 v -1 h -3 v -1 h -4 v -1 h -3 v -1 h -4 v -1 h -3 v -1 h -4 v -1 h -3 v -1 h -3 v -1 h -4 v -1 h -3 v -1 h -4 v -1 h -3 v -1 h -4 v -1 h -3 v -1 h -4 v -1 h -3 v -1 h -4 v -1 h -3 v -1 h -4 v -1 h -3 v -1 h -4 v -1 h -4 v -1 h -3 v -1 h -4 v -1 h -3 v -1 h -4 v -1 h -3 v -1 h -4 v -1 h -3 v -1 h -4 v -1 h -4 v -1 h -3 v -1 h -4 v -1 h -4 v -1 h -3 v -1 h -4 v -1 h -4 v -1 h -3 v -1 h -4 v -1 h -4 v -1 h -3 v -1 h -4 v -1 h -4 v -1 h -3 v -1 h -4 v -1 h -4 v -1 h -4 v -1 h -3 v -1 h -4 v -1 h -4 v -1 h -4 v -1 h -3 v -1 h -4 v -1 h -4 v -1 h -4 v -1 h -4 v -1 h -4 v -1 h -3 v -1 h -4 v -1 h -4 v -1 h -4 v -1 h -4 v -1 h -4 v -1 h -4 v -1 h -4 v -1 h -4 v -1 h -4 v -1 h -4 v -1 h -4 v -1 h -4 v -1 h -4 v -1 h -4 v -1 h -4 v -1 h -4 v -1 h -4 v -1 h -4 v -1 h -4 v -1 h -4 v -1 h -4 v -1 h -4 v -1 h -5 v -1 h -4 v -1 h -4 v -1 h -4 v -1 h -4 v -1 h -4 v -1 h -5 v -1 h -4 v -1 h -5 v -1 h -4 v -1 h -4 v -1 h -5 v -1 h -4 v -1 h -4 v -1 h -5 v -1 h -4 v -1 h -5 v -1 h -4 v -1 h -5 v -1 h -5 v -1 h -4 v -1 h -5 v -1 h -5 v -1 h -4 v -1 h -5 v -1 h -5 v -1 h -5 v -1 h -5 v -1 h -5 v -1 h -5 v -1 h -5 v -1 h -5 v -1 h -5 v -1 h -5 v -1 h -5 v -1 h -6 v -1 h -5 v -1 h -6 v -1" /></g></g></g><g
         id="g424"><g
           clip-path="url(#clipPath430)"
           id="g426"><path
             id="path452"
             style="fill:url(#linearGradient450);fill-opacity:1;fill-rule:nonzero;stroke:none"
             d="M 0,1061.18 4.90234,1033.19 229.973,1072.6 225.07,1100.59 0,1061.18" /></g></g></g></g></svg>